OxygenSans-Bold.ufo
<glyph name="exclam" format="1">
  <advance width="550.929718665"/>
  <unicode hex="0021"/>
  <outline>
    <contour>
      <point x="239.815924837" y="406.528448457" type="line"/>
      <point x="329.872821751" y="406.528448457" type="line"/>
      <point x="383.367625446" y="1182.44583246" type="line"/>
      <point x="383.367625446" y="1348.70213101" type="line"/>
      <point x="180.277083771" y="1348.70213101" type="line"/>
      <point x="180.277083771" y="1182.44583246" type="line"/>
    </contour>
    <contour>
      <point x="280.21226118" y="-9.23057946672" type="curve" smooth="yes"/>
      <point x="362.256298551" y="-9.23057946672"/>
      <point x="412.191475961" y="54.6269158094"/>
      <point x="412.191475961" y="123.067289523" type="curve" smooth="yes"/>
      <point x="412.191475961" y="192.189009028"/>
      <point x="362.256298551" y="255.727850094"/>
      <point x="280.21226118" y="255.727850094" type="curve" smooth="yes"/>
      <point x="198.442840647" y="255.727850094"/>
      <point x="147.870354818" y="192.189009028"/>
      <point x="147.870354818" y="123.067289523" type="curve" smooth="yes"/>
      <point x="147.870354818" y="54.6269158094"/>
      <point x="198.442840647" y="-9.23057946672"/>
    </contour>
  </outline>
</glyph>
<glyph name="quotedbl" format="1">
  <advance width="694.763961789"/>
  <unicode hex="0022"/>
  <outline>
    <contour>
      <point x="135.132112114" y="881.292935125" type="line"/>
      <point x="256.937644342" y="881.292935125" type="line"/>
      <point x="284.618990132" y="1353.84463573" type="line"/>
      <point x="109.823850514" y="1353.84463573" type="line"/>
    </contour>
    <contour>
      <point x="464.378018056" y="880.018318287" type="line"/>
      <point x="586.820858702" y="880.018318287" type="line"/>
      <point x="613.546241864" y="1353.84463573" type="line"/>
      <point x="439.069756456" y="1353.84463573" type="line"/>
    </contour>
  </outline>
</glyph>
<glyph name="numbersign" format="1">
  <advance width="1177.90399958"/>
  <unicode hex="0023"/>
  <outline>
    <contour>
      <point x="244.538841067" y="-17.1425047239" type="line"/>
      <point x="392.981681713" y="-17.1425047239" type="line"/>
      <point x="464.256298551" y="371.230579467" type="line"/>
      <point x="648.176149486" y="371.230579467" type="line"/>
      <point x="575.352298971" y="-17.1425047239" type="line"/>
      <point x="736.080149066" y="-17.1425047239" type="line"/>
      <point x="811.541307999" y="371.230579467" type="line"/>
      <point x="975.543774932" y="371.230579467" type="line"/>
      <point x="984.543774932" y="515.771887466" type="line"/>
      <point x="833.21226118" y="515.771887466" type="line"/>
      <point x="888.90399958" y="829.075215201" type="line"/>
      <point x="1044.49973756" y="829.075215201" type="line"/>
      <point x="1056.49973756" y="974.067289523" type="line"/>
      <point x="915.574952761" y="974.067289523" type="line"/>
      <point x="978.388410666" y="1332.8134579" type="line"/>
      <point x="829.901532647" y="1332.8134579" type="line"/>
      <point x="765.538841067" y="974.067289523" type="line"/>
      <point x="581.21226118" y="974.067289523" type="line"/>
      <point x="650.717457485" y="1332.8134579" type="line"/>
      <point x="488.714990552" y="1332.8134579" type="line"/>
      <point x="415.209794247" y="974.067289523" type="line"/>
      <point x="223.966355238" y="974.067289523" type="line"/>
      <point x="216.329046819" y="828.075215201" type="line"/>
      <point x="388.3082616" y="828.075215201" type="line"/>
      <point x="337.891140038" y="515.771887466" type="line"/>
      <point x="154.966355238" y="515.771887466" type="line"/>
      <point x="145.966355238" y="371.230579467" type="line"/>
      <point x="311.538841067" y="371.230579467" type="line"/>
    </contour>
    <contour>
      <point x="490.52052278" y="515.771887466" type="line"/>
      <point x="553.266691161" y="829.075215201" type="line"/>
      <point x="738.230579467" y="829.075215201" type="line"/>
      <point x="676.847102666" y="515.771887466" type="line"/>
    </contour>
  </outline>
</glyph>
<glyph name="dollar" format="1">
  <advance width="1166.19999981"/>
  <unicode hex="0024"/>
  <outline>
    <contour>
      <point x="544.600000024" y="-17.9372999975" type="line"/>
      <point x="356.882599081" y="-13.6019599842"/>
      <point x="224.128899449" y="43.0237307162"/>
      <point x="133.400000215" y="98.400000453" type="curve"/>
      <point x="204.999999762" y="273.599998832" type="line"/>
      <point x="286.199999928" y="217.899998605"/>
      <point x="431.199999213" y="168.599998355"/>
      <point x="579.399999857" y="168.599998355" type="curve" smooth="yes"/>
      <point x="741.400000691" y="168.599998355"/>
      <point x="826.300001323" y="227.199998617"/>
      <point x="829.000001431" y="371.199999452" type="curve" smooth="yes"/>
      <point x="831.100001514" y="473.900000393"/>
      <point x="776.100001514" y="526.500000417"/>
      <point x="647.600000262" y="572.600000978" type="curve" smooth="yes"/>
      <point x="420.000000358" y="651.200001121" type="line" smooth="yes"/>
      <point x="254.100000203" y="709.000001311"/>
      <point x="146.800000072" y="816.700000823"/>
      <point x="149.500000179" y="1003.40000069" type="curve" smooth="yes"/>
      <point x="153.30940033" y="1237.74800082"/>
      <point x="324.196300564" y="1350.56100014"/>
      <point x="544.600000024" y="1367.99000004" type="curve"/>
      <point x="544.600000024" y="1552.20000088" type="line"/>
      <point x="649.799999475" y="1552.20000088" type="line"/>
      <point x="650.300999495" y="1369.82200003" type="line"/>
      <point x="791.906299559" y="1362.85400007"/>
      <point x="921.960299561" y="1318.03899976"/>
      <point x="1014.89999896" y="1260.5999999" type="curve"/>
      <point x="941.899999321" y="1088.10000163" type="line"/>
      <point x="869.400000095" y="1121.80000138"/>
      <point x="745.700000226" y="1182.60000169"/>
      <point x="612.299999654" y="1182.60000169" type="curve" smooth="yes"/>
      <point x="472.999999404" y="1182.60000169"/>
      <point x="371.999998331" y="1138.50000161"/>
      <point x="369.599998236" y="1008.40000069" type="curve" smooth="yes"/>
      <point x="367.799998164" y="922.999999881"/>
      <point x="409.299998343" y="876.299999893"/>
      <point x="499.699999511" y="843.099999368" type="curve" smooth="yes"/>
      <point x="713.399999499" y="766.899999201" type="line" smooth="yes"/>
      <point x="931.899998844" y="689.699999273"/>
      <point x="1053.99999952" y="593.499999821"/>
      <point x="1050.09999937" y="369.599999547" type="curve" smooth="yes"/>
      <point x="1045.9374992" y="130.321259337"/>
      <point x="882.499499185" y="8.0147558019"/>
      <point x="649.90169948" y="-14.0373400412" type="curve"/>
      <point x="650.399999499" y="-189.400001168" type="line"/>
      <point x="544.600000024" y="-189.400001168" type="line"/>
    </contour>
  </outline>
</glyph>
<glyph name="percent" format="1">
  <advance width="1724.49999946"/>
  <unicode hex="0025"/>
  <outline>
    <contour>
      <point x="1334.89999944" y="-12.6999999881" type="curve" smooth="yes"/>
      <point x="1119.29999954" y="-12.6999999881"/>
      <point x="1007.4999997" y="140.300000012"/>
      <point x="1007.4999997" y="337.300000012" type="curve" smooth="yes"/>
      <point x="1007.4999997" y="535.300000012"/>
      <point x="1122.29999954" y="687.300000012"/>
      <point x="1334.89999944" y="687.300000012" type="curve" smooth="yes"/>
      <point x="1551.49999934" y="687.300000012"/>
      <point x="1663.29999918" y="538.300000012"/>
      <point x="1663.29999918" y="337.300000012" type="curve" smooth="yes"/>
      <point x="1663.29999918" y="140.300000012"/>
      <point x="1548.49999934" y="-12.6999999881"/>
    </contour>
    <contour>
      <point x="1335.49999946" y="97.0999993682" type="curve" smooth="yes"/>
      <point x="1470.19999981" y="97.0999993682"/>
      <point x="1527.79999995" y="203.69999963"/>
      <point x="1527.79999995" y="339.0" type="curve" smooth="yes"/>
      <point x="1527.79999995" y="478.900000393"/>
      <point x="1469.19999981" y="578.200000644"/>
      <point x="1335.49999946" y="578.200000644" type="curve" smooth="yes"/>
      <point x="1200.49999911" y="578.200000644"/>
      <point x="1140.89999896" y="473.600000381"/>
      <point x="1140.89999896" y="339.0" type="curve" smooth="yes"/>
      <point x="1140.89999896" y="200.099999607"/>
      <point x="1200.79999912" y="97.0999993682"/>
    </contour>
    <contour>
      <point x="389.200000048" y="774.199999332" type="curve" smooth="yes"/>
      <point x="523.900000393" y="774.199999332"/>
      <point x="581.500000536" y="880.799999595"/>
      <point x="581.500000536" y="1016.09999996" type="curve" smooth="yes"/>
      <point x="581.500000536" y="1156.00000036"/>
      <point x="522.900000393" y="1255.30000061"/>
      <point x="389.200000048" y="1255.30000061" type="curve" smooth="yes"/>
      <point x="254.19999969" y="1255.30000061"/>
      <point x="194.599999547" y="1150.70000035"/>
      <point x="194.599999547" y="1016.09999996" type="curve" smooth="yes"/>
      <point x="194.599999547" y="877.199999571"/>
      <point x="254.499999702" y="774.199999332"/>
    </contour>
    <contour>
      <point x="388.600000024" y="664.399999976" type="curve" smooth="yes"/>
      <point x="173.000000119" y="664.399999976"/>
      <point x="61.2000002861" y="817.399999976"/>
      <point x="61.2000002861" y="1014.39999998" type="curve" smooth="yes"/>
      <point x="61.2000002861" y="1212.39999998"/>
      <point x="176.000000119" y="1364.39999998"/>
      <point x="388.600000024" y="1364.39999998" type="curve" smooth="yes"/>
      <point x="605.199999928" y="1364.39999998"/>
      <point x="716.999999762" y="1215.39999998"/>
      <point x="716.999999762" y="1014.39999998" type="curve" smooth="yes"/>
      <point x="716.999999762" y="817.399999976"/>
      <point x="602.199999928" y="664.399999976"/>
    </contour>
    <contour>
      <point x="378.700000584" y="0.0" type="line"/>
      <point x="1162.00000048" y="1352.60000002" type="line"/>
      <point x="1333.69999915" y="1352.60000002" type="line"/>
      <point x="558.699999273" y="0.0" type="line"/>
    </contour>
  </outline>
</glyph>
<glyph name="ampersand" format="1">
  <advance width="1345.10000056"/>
  <unicode hex="0026"/>
  <outline>
    <contour>
      <point x="589.100000083" y="-6.10000020266" type="curve" smooth="yes"/>
      <point x="320.59999907" y="-6.10000020266"/>
      <point x="118.300000131" y="117.900000274"/>
      <point x="118.300000131" y="373.999999404" type="curve" smooth="yes"/>
      <point x="118.300000131" y="570.599999428"/>
      <point x="252.099999845" y="678.099999607"/>
      <point x="420.400000453" y="765.999999762" type="curve"/>
      <point x="338.599999905" y="857.000000238"/>
      <point x="275.200000286" y="943.500000298"/>
      <point x="275.200000286" y="1061.00000036" type="curve" smooth="yes"/>
      <point x="275.200000286" y="1257.59999979"/>
      <point x="426.69999975" y="1362.90000015"/>
      <point x="619.400000215" y="1362.90000015" type="curve" smooth="yes"/>
      <point x="796.700000584" y="1362.90000015"/>
      <point x="969.099999845" y="1271.39999986"/>
      <point x="969.099999845" y="1073.70000023" type="curve" smooth="yes"/>
      <point x="969.099999845" y="908.800000429"/>
      <point x="824.799999595" y="800.100000203"/>
      <point x="668.799998879" y="725.300000012" type="curve"/>
      <point x="1004.0000006" y="355.899998128" type="line"/>
      <point x="1051.7000007" y="408.899998128"/>
      <point x="1108.50000101" y="501.199998736"/>
      <point x="1142.200001" y="570.299998939" type="curve"/>
      <point x="1284.79999995" y="477.499999583" type="line"/>
      <point x="1246.90000004" y="398.199999571"/>
      <point x="1181.4999997" y="297.399999022"/>
      <point x="1120.69999963" y="231.699999034" type="curve"/>
      <point x="1296.79999912" y="47.0999996066" type="line"/>
      <point x="1123.00000048" y="-2.90000027418" type="line"/>
      <point x="1001.70000058" y="125.899999678" type="line"/>
      <point x="885.200000525" y="39.3999996185"/>
      <point x="754.000000834" y="-6.10000020266"/>
    </contour>
    <contour>
      <point x="595.900000155" y="146.199998736" type="curve" smooth="yes"/>
      <point x="709.200000882" y="146.199998736"/>
      <point x="809.600001097" y="177.899998724"/>
      <point x="890.000001431" y="240.799998999" type="curve"/>
      <point x="855.700002015" y="278.599998355"/>
      <point x="551.299999297" y="610.100001276"/>
      <point x="518.399999857" y="646.500000656" type="curve"/>
      <point x="398.59999907" y="583.600000381"/>
      <point x="309.699998796" y="510.499999702"/>
      <point x="309.699998796" y="383.39999938" type="curve" smooth="yes"/>
      <point x="309.699998796" y="227.499999225"/>
      <point x="423.899998963" y="146.199998736"/>
    </contour>
    <contour>
      <point x="568.699999511" y="841.999999166" type="curve"/>
      <point x="675.200000286" y="896.599999428"/>
      <point x="784.900001228" y="967.399999976"/>
      <point x="784.900001228" y="1074.80000031" type="curve" smooth="yes"/>
      <point x="784.900001228" y="1169.90000075"/>
      <point x="719.90000087" y="1216.90000111"/>
      <point x="624.300000131" y="1216.90000111" type="curve" smooth="yes"/>
      <point x="526.599999547" y="1216.90000111"/>
      <point x="455.099998891" y="1165.90000063"/>
      <point x="455.099998891" y="1068.80000031" type="curve" smooth="yes"/>
      <point x="455.099998891" y="985.50000006"/>
      <point x="499.699999034" y="910.799999475"/>
    </contour>
  </outline>
</glyph>
<glyph name="quotesingle" format="1">
  <advance width="435.099996865"/>
  <unicode hex="0027"/>
  <outline>
    <contour>
      <point x="155.199998856" y="860.000001073" type="line"/>
      <point x="282.699997842" y="860.000001073" type="line"/>
      <point x="304.099997699" y="1346.40000021" type="line"/>
      <point x="129.799999118" y="1346.40000021" type="line"/>
    </contour>
  </outline>
</glyph>
<glyph name="parenleft" format="1">
  <advance width="682.442840647"/>
  <unicode hex="0028"/>
  <outline>
    <contour>
      <point x="407.518055847" y="-174.09600042" type="curve"/>
      <point x="600.004933865" y="-174.09600042" type="line"/>
      <point x="446.390877598" y="76.7926726853"/>
      <point x="357.103401218" y="345.779813143"/>
      <point x="357.103401218" y="642.735775772" type="curve" smooth="yes"/>
      <point x="357.103401218" y="944.077682133"/>
      <point x="468.644709217" y="1239.99207432"/>
      <point x="601.004933865" y="1438.79020575" type="curve"/>
      <point x="406.199401638" y="1438.79020575" type="line"/>
      <point x="259.144971657" y="1233.85749528"/>
      <point x="156.253831619" y="951.132112114"/>
      <point x="156.253831619" y="639.779813143" type="curve" smooth="yes"/>
      <point x="156.253831619" y="317.088074743"/>
      <point x="254.199401638" y="41.266691161"/>
    </contour>
  </outline>
</glyph>
<glyph name="parenright" format="1">
  <advance width="698.099998653"/>
  <unicode hex="0029"/>
  <outline>
    <contour>
      <point x="100.600000501" y="-172.100001276" type="curve"/>
      <point x="296.799998999" y="-172.100001276" type="line"/>
      <point x="441.699999154" y="24.3999990225"/>
      <point x="547.699998796" y="326.999999762"/>
      <point x="547.699998796" y="651.399999976" type="curve" smooth="yes"/>
      <point x="547.699998796" y="961.099999726"/>
      <point x="451.799999118" y="1215.20000017"/>
      <point x="296.699999034" y="1438.10000044" type="curve"/>
      <point x="101.000000477" y="1438.10000044" type="line"/>
      <point x="255.500001132" y="1183.99999964"/>
      <point x="344.500000298" y="939.69999975"/>
      <point x="344.500000298" y="651.50000006" type="curve" smooth="yes"/>
      <point x="344.500000298" y="340.600000262"/>
      <point x="229.50000149" y="19.7000003457"/>
    </contour>
  </outline>
</glyph>
<glyph name="asterisk" format="1">
  <advance width="1102.00000036"/>
  <unicode hex="002A"/>
  <outline>
    <contour>
      <point x="596.199995875" y="483.600001097" type="line"/>
      <point x="704.299992383" y="582.700000584" type="line"/>
      <point x="704.299992383" y="582.700000584"/>
      <point x="652.29999727" y="834.500001848"/>
      <point x="625.699997723" y="868.100001276" type="curve"/>
      <point x="736.199989915" y="940.000001431" type="line"/>
      <point x="702.799991012" y="1124.20000029" type="line"/>
      <point x="594.899998724" y="993.600000024" type="line"/>
      <point x="604.699997962" y="1352.20000064" type="line"/>
      <point x="489.000002146" y="1352.20000064" type="line"/>
      <point x="499.900001347" y="993.600000024" type="line"/>
      <point x="394.400009036" y="1124.20000029" type="line"/>
      <point x="359.500010192" y="940.000001431" type="line"/>
      <point x="467.200002313" y="868.100001276" type="line"/>
      <point x="478.300002754" y="852.500000656"/>
      <point x="351.700006187" y="632.800002575"/>
      <point x="391.000007749" y="582.700000584" type="curve"/>
      <point x="367.000006795" y="567.699999988"/>
      <point x="526.000005126" y="500.300001681"/>
      <point x="502.000004172" y="485.300001085" type="curve"/>
      <point x="544.699999988" y="790.800001979" type="line"/>
    </contour>
  </outline>
</glyph>
<glyph name="plus" format="1">
  <advance width="1042.20000029"/>
  <unicode hex="002B"/>
  <outline>
    <contour>
      <point x="447.600000739" y="143.500000536" type="line"/>
      <point x="608.499999464" y="143.500000536" type="line"/>
      <point x="608.499999464" y="517.000000596" type="line"/>
      <point x="964.999999285" y="517.000000596" type="line"/>
      <point x="964.999999285" y="671.299999177" type="line"/>
      <point x="609.199999452" y="671.299999177" type="line"/>
      <point x="609.199999452" y="1043.09999913" type="line"/>
      <point x="448.300000727" y="1043.09999913" type="line"/>
      <point x="448.300000727" y="671.299999177" type="line"/>
      <point x="88.4000008106" y="671.299999177" type="line"/>
      <point x="88.4000008106" y="517.000000596" type="line"/>
      <point x="447.600000739" y="517.000000596" type="line"/>
    </contour>
  </outline>
</glyph>
<glyph name="comma" format="1">
  <advance width="498.899998844"/>
  <unicode hex="002C"/>
  <outline>
    <contour>
      <point x="134.50000006" y="-242.900000393" type="curve"/>
      <point x="268.899998367" y="-242.900000393" type="line"/>
      <point x="293.799999356" y="-175.699997723"/>
      <point x="388.799997449" y="117.999997139"/>
      <point x="405.599998116" y="181.599999666" type="curve"/>
      <point x="408.199998021" y="229.099999368" type="line"/>
      <point x="201.199999213" y="229.099999368" type="line"/>
      <point x="197.299999058" y="164.899996817"/>
      <point x="142.600000381" y="-175.399997711"/>
    </contour>
  </outline>
</glyph>
<glyph name="hyphen" format="1">
  <advance width="634.78773882"/>
  <unicode hex="002D"/>
  <outline>
    <contour>
      <point x="82.8109909721" y="430.217719924" type="line"/>
      <point x="555.867887886" y="430.217719924" type="line"/>
      <point x="555.867887886" y="595.484411085" type="line"/>
      <point x="82.8109909721" y="595.484411085" type="line"/>
    </contour>
  </outline>
</glyph>
<glyph name="period" format="1">
  <advance width="512.036111694"/>
  <unicode hex="002E"/>
  <outline>
    <contour>
      <point x="260.28747638" y="-4.32904681923" type="curve" smooth="yes"/>
      <point x="342.012859542" y="-4.32904681923"/>
      <point x="392.266691161" y="58.8471026664"/>
      <point x="392.266691161" y="127.28747638" type="curve" smooth="yes"/>
      <point x="392.266691161" y="196.409195885"/>
      <point x="342.012859542" y="260.266691161"/>
      <point x="260.28747638" y="260.266691161" type="curve" smooth="yes"/>
      <point x="177.880747428" y="260.266691161"/>
      <point x="127.264224228" y="196.409195885"/>
      <point x="127.264224228" y="127.28747638" type="curve" smooth="yes"/>
      <point x="127.264224228" y="58.4844110855"/>
      <point x="178.880747428" y="-4.32904681923"/>
    </contour>
  </outline>
</glyph>
<glyph name="slash" format="1">
  <advance width="896.60000062"/>
  <unicode hex="002F"/>
  <outline>
    <contour>
      <point x="69.2000005245" y="-182.300000608" type="line"/>
      <point x="237.899998844" y="-182.300000608" type="line"/>
      <point x="826.000000119" y="1348.9999994" type="line"/>
      <point x="654.600001812" y="1348.9999994" type="line"/>
    </contour>
  </outline>
</glyph>
<glyph name="zero" format="1">
  <advance width="1223.49999875"/>
  <unicode hex="0030"/>
  <outline>
    <contour>
      <point x="613.199999452" y="149.799998522" type="curve" smooth="yes"/>
      <point x="426.099999368" y="149.799998522"/>
      <point x="347.299998224" y="365.799997568"/>
      <point x="347.299998224" y="675.799999952" type="curve"/>
      <point x="348.099998176" y="974.800002098"/>
      <point x="427.199999332" y="1189.00000143"/>
      <point x="613.199999452" y="1189.00000143" type="curve" smooth="yes"/>
      <point x="800.299999535" y="1189.00000143"/>
      <point x="875.10000056" y="985.100002587"/>
      <point x="875.10000056" y="674.300000012" type="curve" smooth="yes"/>
      <point x="875.10000056" y="364.699997604"/>
      <point x="800.299999535" y="149.799998522"/>
    </contour>
    <contour>
      <point x="613.199999452" y="-21.900000155" type="curve" smooth="yes"/>
      <point x="962.399998665" y="-21.900000155"/>
      <point x="1091.49999875" y="292.09999913"/>
      <point x="1091.49999875" y="667.900000036" type="curve" smooth="yes"/>
      <point x="1091.49999875" y="1055.90000123"/>
      <point x="953.99999845" y="1360.30000013"/>
      <point x="613.199999452" y="1360.30000013" type="curve" smooth="yes"/>
      <point x="273.500000417" y="1360.30000013"/>
      <point x="132.0" y="1057.40000117"/>
      <point x="132.0" y="667.900000036" type="curve" smooth="yes"/>
      <point x="132.0" y="292.09999913"/>
      <point x="264.700000226" y="-21.900000155"/>
    </contour>
  </outline>
</glyph>
<glyph name="one" format="1">
  <advance width="1117.90000004"/>
  <unicode hex="0031"/>
  <outline>
    <contour>
      <point x="195.099999964" y="0.0" type="line"/>
      <point x="981.999999404" y="0.0" type="line"/>
      <point x="981.999999404" y="166.399998665" type="line"/>
      <point x="635.299999535" y="166.399998665" type="line"/>
      <point x="713.599998951" y="87.3999992609" type="line"/>
      <point x="713.599998951" y="1341.40000021" type="line"/>
      <point x="525.30000025" y="1341.40000021" type="line"/>
      <point x="450.30000037" y="1287.80000031"/>
      <point x="306.999999762" y="1238.90000027"/>
      <point x="206.500000417" y="1213.80000055" type="curve"/>
      <point x="206.500000417" y="1045.20000184" type="line"/>
      <point x="325.399999619" y="1063.00000167"/>
      <point x="480.200000286" y="1117.70000166"/>
      <point x="542.500000536" y="1172.50000173" type="curve"/>
      <point x="500.200000644" y="1201.10000151" type="line"/>
      <point x="500.200000644" y="87.9999992847" type="line"/>
      <point x="577.900000036" y="166.399998665" type="line"/>
      <point x="195.099999964" y="166.399998665" type="line"/>
    </contour>
  </outline>
</glyph>
<glyph name="two" format="1">
  <advance width="1134.69999975"/>
  <unicode hex="0032"/>
  <outline>
    <contour>
      <point x="158.899999678" y="0.0" type="line"/>
      <point x="950.599999905" y="0.0" type="line"/>
      <point x="963.999999762" y="166.399998665" type="line"/>
      <point x="290.999997973" y="166.399998665" type="line"/>
      <point x="324.499997556" y="95.6999991536" type="line"/>
      <point x="720.599999666" y="508.400000811" type="line" smooth="yes"/>
      <point x="892.799999833" y="689.200000763"/>
      <point x="965.999999523" y="812.999999881"/>
      <point x="965.999999523" y="986.100000441" type="curve" smooth="yes"/>
      <point x="965.999999523" y="1245.80000091"/>
      <point x="746.899998367" y="1361.50000018"/>
      <point x="532.299999654" y="1361.50000018" type="curve" smooth="yes"/>
      <point x="373.799999833" y="1361.50000018"/>
      <point x="236.999999642" y="1301.10000032"/>
      <point x="159.099999607" y="1238.90000051" type="curve"/>
      <point x="222.09999913" y="1084.40000176" type="line"/>
      <point x="278.299999893" y="1122.40000212"/>
      <point x="401.699999869" y="1191.00000155"/>
      <point x="523.199999809" y="1191.00000155" type="curve" smooth="yes"/>
      <point x="636.199999928" y="1191.00000155"/>
      <point x="752.300001323" y="1120.80000198"/>
      <point x="752.300001323" y="973.30000037" type="curve" smooth="yes"/>
      <point x="752.300001323" y="858.899999201"/>
      <point x="687.400001168" y="759.499999821"/>
      <point x="591.500000536" y="657.199999332" type="curve" smooth="yes"/>
      <point x="145.39999938" y="178.199998856" type="line"/>
    </contour>
  </outline>
</glyph>
<glyph name="three" format="1">
  <advance width="1167.59999919"/>
  <unicode hex="0033"/>
  <outline>
    <contour>
      <point x="533.999999642" y="-18.0" type="curve" smooth="yes"/>
      <point x="800.50000006" y="-18.0"/>
      <point x="1000.69999951" y="119.900000155"/>
      <point x="1000.69999951" y="366.699999988" type="curve" smooth="yes"/>
      <point x="1000.69999951" y="539.700000703"/>
      <point x="903.499998868" y="673.500000417"/>
      <point x="746.699998438" y="713.600000262" type="curve"/>
      <point x="885.799998999" y="760.900000036"/>
      <point x="964.999999523" y="854.299999893"/>
      <point x="964.999999523" y="1010.20000064" type="curve" smooth="yes"/>
      <point x="964.999999523" y="1225.50000066"/>
      <point x="778.999999285" y="1361.50000018"/>
      <point x="538.599999547" y="1361.50000018" type="curve" smooth="yes"/>
      <point x="384.399999976" y="1361.50000018"/>
      <point x="260.299999774" y="1325.20000017"/>
      <point x="155.299999654" y="1260.4000001" type="curve"/>
      <point x="218.799999237" y="1105.50000137" type="line"/>
      <point x="299.399999499" y="1157.40000153"/>
      <point x="407.69999975" y="1191.70000154"/>
      <point x="521.69999975" y="1191.70000154" type="curve" smooth="yes"/>
      <point x="668.600000143" y="1191.70000154"/>
      <point x="761.600001216" y="1108.80000174"/>
      <point x="761.600001216" y="993.300000727" type="curve" smooth="yes"/>
      <point x="761.600001216" y="819.799999714"/>
      <point x="603.800000072" y="794.599999785"/>
      <point x="414.699999988" y="791.499999702" type="curve"/>
      <point x="362.500000298" y="791.499999702" type="line"/>
      <point x="362.500000298" y="623.300000966" type="line"/>
      <point x="414.099999964" y="623.300000966" type="line"/>
      <point x="635.000000358" y="618.300000966"/>
      <point x="788.900001347" y="578.700000823"/>
      <point x="788.900001347" y="373.899999797" type="curve" smooth="yes"/>
      <point x="788.900001347" y="234.899998724"/>
      <point x="690.500000656" y="152.499998629"/>
      <point x="534.999999642" y="152.499998629" type="curve" smooth="yes"/>
      <point x="412.499999464" y="152.499998629"/>
      <point x="284.599999309" y="199.299998939"/>
      <point x="226.399999499" y="244.999998689" type="curve"/>
      <point x="160.199999928" y="92.1999999285" type="line"/>
      <point x="222.999999166" y="39.300000608"/>
      <point x="375.099999368" y="-18.0"/>
    </contour>
  </outline>
</glyph>
<glyph name="four" format="1">
  <advance width="1208.1999985"/>
  <unicode hex="0034"/>
  <outline>
    <contour>
      <point x="732.500000417" y="0.0" type="line"/>
      <point x="941.499998629" y="0.0" type="line"/>
      <point x="941.499998629" y="317.000000834" type="line"/>
      <point x="1092.6999988" y="317.000000834" type="line"/>
      <point x="1105.49999875" y="484.199999452" type="line"/>
      <point x="941.499998629" y="484.199999452" type="line"/>
      <point x="941.499998629" y="1341.40000021" type="line"/>
      <point x="696.300001204" y="1341.40000021" type="line"/>
      <point x="131.399999738" y="475.100000083" type="line"/>
      <point x="131.399999738" y="317.000000834" type="line"/>
      <point x="732.500000417" y="317.000000834" type="line"/>
    </contour>
    <contour>
      <point x="345.999997973" y="481.999999523" type="line"/>
      <point x="732.200000405" y="1097.60000169" type="line"/>
      <point x="732.200000405" y="481.999999523" type="line"/>
    </contour>
  </outline>
</glyph>
<glyph name="five" format="1">
  <advance width="1191.39999878"/>
  <unicode hex="0035"/>
  <outline>
    <contour>
      <point x="567.09999913" y="-18.3000000119" type="curve" smooth="yes"/>
      <point x="861.699998438" y="-18.3000000119"/>
      <point x="1053.09999901" y="154.499999583"/>
      <point x="1053.09999901" y="429.50000006" type="curve" smooth="yes"/>
      <point x="1053.09999901" y="670.599999666"/>
      <point x="889.89999944" y="850.499999821"/>
      <point x="626.09999913" y="850.499999821" type="curve" smooth="yes"/>
      <point x="560.899998605" y="850.499999821"/>
      <point x="488.99999845" y="821.399999976"/>
      <point x="426.39999795" y="786.999999523" type="curve"/>
      <point x="427.799997926" y="831.099998772"/>
      <point x="452.899998128" y="1136.20000219"/>
      <point x="454.299998105" y="1169.80000162" type="curve"/>
      <point x="984.899998963" y="1169.80000162" type="line"/>
      <point x="999.799998879" y="1341.40000021" type="line"/>
      <point x="260.999999881" y="1341.40000021" type="line"/>
      <point x="220.999999762" y="609.800000787" type="line"/>
      <point x="380.399998784" y="586.800001025" type="line"/>
      <point x="439.499998748" y="650.200001001"/>
      <point x="520.399999142" y="682.800001144"/>
      <point x="598.199999571" y="682.800001144" type="curve" smooth="yes"/>
      <point x="750.800000906" y="682.800001144"/>
      <point x="834.100000799" y="577.400000334"/>
      <point x="834.100000799" y="429.399999976" type="curve" smooth="yes"/>
      <point x="834.100000799" y="261.999998808"/>
      <point x="728.599999666" y="153.899998605"/>
      <point x="545.599999309" y="153.899998605" type="curve" smooth="yes"/>
      <point x="408.699999869" y="153.899998605"/>
      <point x="279.600000143" y="227.89999789"/>
      <point x="238.199999094" y="254.799998522" type="curve"/>
      <point x="164.499999702" y="102.799999714" type="line"/>
      <point x="214.400000811" y="68.4999991059"/>
      <point x="385.300000131" y="-18.3000000119"/>
    </contour>
  </outline>
</glyph>
<glyph name="six" format="1">
  <advance width="1236.88074743"/>
  <unicode hex="0036"/>
  <outline>
    <contour>
      <point x="615.891140038" y="-18.0" type="curve" smooth="yes"/>
      <point x="893.891140038" y="-18.0"/>
      <point x="1086.45323326" y="160.054429981"/>
      <point x="1086.45323326" y="412.538841067" type="curve" smooth="yes"/>
      <point x="1086.45323326" y="662.857495276"/>
      <point x="900.782280076" y="837.68134579"/>
      <point x="659.759027924" y="837.68134579" type="curve" smooth="yes"/>
      <point x="605.859962209" y="837.68134579"/>
      <point x="541.028186017" y="817.023252152"/>
      <point x="498.952970817" y="797.639775352" type="curve"/>
      <point x="940.574952761" y="1341.73577577" type="line"/>
      <point x="684.800598362" y="1341.73577577" type="line"/>
      <point x="684.800598362" y="1341.73577577"/>
      <point x="415.487402897" y="988.166281755"/>
      <point x="364.666019316" y="925.653159773" type="curve" smooth="yes"/>
      <point x="219.505196305" y="743.39386941"/>
      <point x="144.108859962" y="617.119252572"/>
      <point x="144.108859962" y="425.823850514" type="curve" smooth="yes"/>
      <point x="144.108859962" y="170.339439429"/>
      <point x="325.935177409" y="-18.0"/>
    </contour>
    <contour>
      <point x="608.759027924" y="145.585345371" type="curve" smooth="yes"/>
      <point x="439.090541675" y="145.585345371"/>
      <point x="347.432448037" y="262.759027924"/>
      <point x="347.432448037" y="411.31865421" type="curve" smooth="yes"/>
      <point x="347.432448037" y="560.603663657"/>
      <point x="432.100934285" y="677.08560781"/>
      <point x="617.813457905" y="677.08560781" type="curve" smooth="yes"/>
      <point x="791.878280495" y="677.08560781"/>
      <point x="873.756560991" y="565.285009448"/>
      <point x="873.756560991" y="408.857495276" type="curve" smooth="yes"/>
      <point x="873.756560991" y="260.6165232"/>
      <point x="780.196934705" y="145.585345371"/>
    </contour>
  </outline>
</glyph>
<glyph name="seven" format="1">
  <advance width="1077.0752152"/>
  <unicode hex="0037"/>
  <outline>
    <contour>
      <point x="276.689271468" y="0.318654209532" type="line"/>
      <point x="501.650167961" y="0.318654209532" type="line"/>
      <point x="953.461158933" y="1203.22811253" type="line"/>
      <point x="953.461158933" y="1341.73577577" type="line"/>
      <point x="136.217719924" y="1341.73577577" type="line"/>
      <point x="136.326579887" y="1174.69966408" type="line"/>
      <point x="722.456225068" y="1174.69966408" type="line"/>
    </contour>
  </outline>
</glyph>
<glyph name="eight" format="1">
  <advance width="1218.69999832"/>
  <unicode hex="0038"/>
  <outline>
    <contour>
      <point x="611.09999913" y="-18.0" type="curve" smooth="yes"/>
      <point x="855.999999046" y="-18.0"/>
      <point x="1061.49999875" y="108.299999774"/>
      <point x="1061.49999875" y="351.399999619" type="curve" smooth="yes"/>
      <point x="1061.49999875" y="519.899999797"/>
      <point x="968.399998307" y="644.800000191"/>
      <point x="825.799997449" y="705.600000024" type="curve"/>
      <point x="950.6999982" y="763.599999905"/>
      <point x="1035.09999865" y="863.200000048"/>
      <point x="1035.09999865" y="1019.70000035" type="curve" smooth="yes"/>
      <point x="1035.09999865" y="1243.90000004"/>
      <point x="850.699999154" y="1361.50000018"/>
      <point x="610.699999154" y="1361.50000018" type="curve" smooth="yes"/>
      <point x="371.499999106" y="1361.50000018"/>
      <point x="183.69999963" y="1243.90000004"/>
      <point x="183.69999963" y="1019.70000035" type="curve" smooth="yes"/>
      <point x="183.69999963" y="861.700000107"/>
      <point x="276.700000107" y="758.899999797"/>
      <point x="402.400000691" y="704.699999988" type="curve"/>
      <point x="251.499999821" y="641.300000012"/>
      <point x="157.199999571" y="527.0"/>
      <point x="157.199999571" y="352.099999607" type="curve" smooth="yes"/>
      <point x="157.199999571" y="109.399999738"/>
      <point x="365.699999273" y="-18.0"/>
    </contour>
    <contour>
      <point x="611.09999913" y="129.399999022" type="curve" smooth="yes"/>
      <point x="446.599998236" y="129.399999022"/>
      <point x="353.89999789" y="210.499999225"/>
      <point x="353.89999789" y="350.799999833" type="curve" smooth="yes"/>
      <point x="353.89999789" y="497.30000037"/>
      <point x="464.299998462" y="586.200000525"/>
      <point x="611.09999913" y="621.800000548" type="curve"/>
      <point x="757.799999833" y="586.200000525"/>
      <point x="865.700000346" y="493.900000274"/>
      <point x="865.700000346" y="351.499999821" type="curve" smooth="yes"/>
      <point x="865.700000346" y="207.799999118"/>
      <point x="778.400000095" y="129.399999022"/>
    </contour>
    <contour>
      <point x="611.09999913" y="766.299999654" type="curve"/>
      <point x="460.699998438" y="800.299999774"/>
      <point x="374.499998271" y="886.800000072"/>
      <point x="374.499998271" y="1020.80000043" type="curve" smooth="yes"/>
      <point x="374.499998271" y="1136.30000097"/>
      <point x="473.399998546" y="1209.20000124"/>
      <point x="611.09999913" y="1209.20000124" type="curve" smooth="yes"/>
      <point x="749.399999738" y="1209.20000124"/>
      <point x="844.699999988" y="1136.30000097"/>
      <point x="844.699999988" y="1020.80000043" type="curve" smooth="yes"/>
      <point x="844.699999988" y="886.800000072"/>
      <point x="761.399999857" y="800.299999774"/>
    </contour>
  </outline>
</glyph>
<glyph name="nine" format="1">
  <advance width="1190.6999988"/>
  <unicode hex="0039"/>
  <outline>
    <contour>
      <point x="273.800000668" y="0.0" type="line"/>
      <point x="531.899998486" y="0.0" type="line"/>
      <point x="531.899998486" y="0.0"/>
      <point x="870.599998116" y="455.199999452"/>
      <point x="885.299997866" y="474.799999118" type="curve" smooth="yes"/>
      <point x="989.899998486" y="618.49999994"/>
      <point x="1075.69999868" y="744.0"/>
      <point x="1075.69999868" y="927.400000453" type="curve" smooth="yes"/>
      <point x="1075.69999868" y="1176.79999971"/>
      <point x="890.299999535" y="1361.50000018"/>
      <point x="603.399999619" y="1361.50000018" type="curve" smooth="yes"/>
      <point x="328.299999774" y="1361.50000018"/>
      <point x="134.400000453" y="1183.09999996"/>
      <point x="134.400000453" y="929.700000465" type="curve" smooth="yes"/>
      <point x="134.400000453" y="680.300000608"/>
      <point x="327.000000477" y="515.200000763"/>
      <point x="566.799999833" y="515.200000763" type="curve" smooth="yes"/>
      <point x="698.100002348" y="515.200000763"/>
      <point x="813.900002539" y="619.200003028"/>
      <point x="829.600002408" y="633.800003171" type="curve"/>
      <point x="789.800002813" y="669.70000273" type="line"/>
      <point x="789.800002813" y="669.70000273"/>
      <point x="651.100002468" y="495.000002503"/>
      <point x="614.500001013" y="445.800000548" type="curve"/>
    </contour>
    <contour>
      <point x="607.199999452" y="672.299999654" type="curve" smooth="yes"/>
      <point x="436.299999058" y="672.299999654"/>
      <point x="349.699998558" y="778.50000006"/>
      <point x="349.699998558" y="933.900000393" type="curve" smooth="yes"/>
      <point x="349.699998558" y="1083.00000072"/>
      <point x="443.899998844" y="1196.60000145"/>
      <point x="612.399999499" y="1196.60000145" type="curve" smooth="yes"/>
      <point x="778.700000226" y="1196.60000145"/>
      <point x="862.800000548" y="1086.30000073"/>
      <point x="862.800000548" y="938.800000429" type="curve" smooth="yes"/>
      <point x="862.800000548" y="760.199999094"/>
      <point x="753.499998748" y="672.299999654"/>
    </contour>
  </outline>
</glyph>
<glyph name="colon" format="1">
  <advance width="584.89999789"/>
  <unicode hex="003A"/>
  <outline>
    <contour>
      <point x="180.799999595" y="-10.2000004053" type="line"/>
      <point x="400.499998152" y="-10.2000004053" type="line"/>
      <point x="400.499998152" y="228.799998522" type="line"/>
      <point x="180.799999595" y="228.799998522" type="line"/>
    </contour>
    <contour>
      <point x="180.799999595" y="785.600000978" type="line"/>
      <point x="400.499998152" y="785.600000978" type="line"/>
      <point x="400.499998152" y="1018.10000008" type="line"/>
      <point x="180.799999595" y="1018.10000008" type="line"/>
    </contour>
  </outline>
</glyph>
<glyph name="semicolon" format="1">
  <advance width="579.899997771"/>
  <unicode hex="003B"/>
  <outline>
    <contour>
      <point x="170.299999177" y="-284.599999905" type="line"/>
      <point x="299.199998021" y="-284.599999905" type="line"/>
      <point x="414.299997985" y="213.799998641" type="line"/>
      <point x="220.899999201" y="213.799998641" type="line"/>
    </contour>
    <contour>
      <point x="195.299999535" y="789.800000906" type="line"/>
      <point x="414.299998105" y="789.800000906" type="line"/>
      <point x="414.299998105" y="1022.60000002" type="line"/>
      <point x="195.299999535" y="1022.60000002" type="line"/>
    </contour>
  </outline>
</glyph>
<glyph name="less" format="1">
  <advance width="1112.20000029"/>
  <unicode hex="003C"/>
  <outline>
    <contour>
      <point x="971.700000107" y="150.999999285" type="line"/>
      <point x="971.700000107" y="150.999999285"/>
      <point x="971.300000131" y="330.199997902"/>
      <point x="970.600000143" y="330.89999789" type="curve" smooth="yes"/>
      <point x="314.499998033" y="626.699998915" type="line"/>
      <point x="972.600000143" y="948.099999845" type="line"/>
      <point x="972.600000143" y="1122.19999862" type="line"/>
      <point x="99.3000001311" y="674.599998593" type="line"/>
      <point x="99.3000001311" y="569.699999273" type="line"/>
    </contour>
  </outline>
</glyph>
<glyph name="greater" format="1">
  <advance width="1116.10000044"/>
  <unicode hex="003E"/>
  <outline>
    <contour>
      <point x="136.300000012" y="154.499999344" type="line"/>
      <point x="1009.90000004" y="569.099999249" type="line"/>
      <point x="1009.90000004" y="673.599998593" type="line"/>
      <point x="137.200000048" y="1125.2999987" type="line"/>
      <point x="137.200000048" y="951.49999994" type="line"/>
      <point x="792.800002098" y="626.699998915" type="line"/>
      <point x="136.300000012" y="334.699997962" type="line"/>
    </contour>
  </outline>
</glyph>
<glyph name="question" format="1">
  <advance width="934.499998629"/>
  <unicode hex="003F"/>
  <outline>
    <contour>
      <point x="474.199998379" y="409.499999464" type="line"/>
      <point x="608.699998438" y="696.100000203"/>
      <point x="806.399998188" y="836.900000274"/>
      <point x="806.399998188" y="1071.00000083" type="curve" smooth="yes"/>
      <point x="806.399998188" y="1273.10000032"/>
      <point x="644.999999285" y="1375.00000048"/>
      <point x="467.699998677" y="1375.00000048" type="curve" smooth="yes"/>
      <point x="345.399999619" y="1375.00000048"/>
      <point x="235.799999237" y="1345.30000073"/>
      <point x="149.999999404" y="1282.90000063" type="curve"/>
      <point x="205.79999876" y="1139.30000144" type="line"/>
      <point x="253.599998593" y="1168.90000135"/>
      <point x="331.399998784" y="1212.70000142"/>
      <point x="443.099998653" y="1212.70000142" type="curve" smooth="yes"/>
      <point x="557.599998951" y="1212.70000142"/>
      <point x="630.099999368" y="1157.40000165"/>
      <point x="631.39999938" y="1049.00000119" type="curve"/>
      <point x="631.39999938" y="880.500000775"/>
      <point x="395.199998379" y="648.099998415"/>
      <point x="379.59999907" y="412.499999344" type="curve"/>
    </contour>
    <contour>
      <point x="433.099999011" y="-9.10000008345" type="curve" smooth="yes"/>
      <point x="513.699999034" y="-9.10000008345"/>
      <point x="563.199998617" y="54.9999997616"/>
      <point x="563.199998617" y="123.999999404" type="curve" smooth="yes"/>
      <point x="563.199998617" y="193.699999034"/>
      <point x="513.699999034" y="257.499998868"/>
      <point x="433.099999011" y="257.499998868" type="curve" smooth="yes"/>
      <point x="351.999999046" y="257.499998868"/>
      <point x="299.599999547" y="193.699999034"/>
      <point x="299.599999547" y="123.999999404" type="curve" smooth="yes"/>
      <point x="299.599999547" y="54.5999997854"/>
      <point x="352.699999034" y="-9.10000008345"/>
    </contour>
  </outline>
</glyph>
<glyph name="at" format="1">
  <advance width="1803.20000243"/>
  <unicode hex="0040"/>
  <outline>
    <contour>
      <point x="883.500001132" y="-148.100001156" type="curve" smooth="yes"/>
      <point x="1060.20000136" y="-148.100001156"/>
      <point x="1240.00000119" y="-107.300001085"/>
      <point x="1358.90000135" y="-27.6000009775" type="curve"/>
      <point x="1318.70000142" y="80.7999985218" type="line"/>
      <point x="1195.80000126" y="10.3999984264"/>
      <point x="1036.60000134" y="-26.700001657"/>
      <point x="884.500001132" y="-26.700001657" type="curve" smooth="yes"/>
      <point x="505.600000978" y="-26.700001657"/>
      <point x="295.799999833" y="242.199997783"/>
      <point x="295.799999833" y="580.69999963" type="curve" smooth="yes"/>
      <point x="295.799999833" y="932.000001192"/>
      <point x="535.500001132" y="1249.60000098"/>
      <point x="939.400001287" y="1249.60000098" type="curve" smooth="yes"/>
      <point x="1337.1000008" y="1249.60000098"/>
      <point x="1522.20000243" y="992.400001287"/>
      <point x="1522.20000243" y="715.899999797" type="curve" smooth="yes"/>
      <point x="1522.20000243" y="466.200000048"/>
      <point x="1419.20000267" y="341.599998951"/>
      <point x="1299.00000131" y="341.599998951" type="curve" smooth="yes"/>
      <point x="1230.90000087" y="341.599998951"/>
      <point x="1189.6000011" y="393.799999356"/>
      <point x="1189.6000011" y="469.399999738" type="curve" smooth="yes"/>
      <point x="1189.6000011" y="582.999999881"/>
      <point x="1224.50000113" y="753.000000119"/>
      <point x="1250.40000117" y="938.700000346" type="curve"/>
      <point x="1171.00000107" y="978.900000155"/>
      <point x="1041.20000148" y="1004.50000018"/>
      <point x="952.200001359" y="1004.50000018" type="curve" smooth="yes"/>
      <point x="689.000001192" y="1004.50000018"/>
      <point x="541.900001109" y="772.600000381"/>
      <point x="541.900001109" y="546.19999969" type="curve" smooth="yes"/>
      <point x="541.900001109" y="366.299999058"/>
      <point x="636.000001311" y="225.999999285"/>
      <point x="823.600001097" y="225.999999285" type="curve" smooth="yes"/>
      <point x="979.100000679" y="225.999999285"/>
      <point x="1078.50000125" y="368.299998701"/>
      <point x="1109.70000154" y="484.299999774" type="curve"/>
      <point x="1070.30000132" y="484.299999774" type="line"/>
      <point x="1082.40000129" y="321.799998522"/>
      <point x="1177.12900203" y="229.499999464"/>
      <point x="1299.50000137" y="229.499999464" type="curve" smooth="yes"/>
      <point x="1470.400002" y="229.499999464"/>
      <point x="1657.40000188" y="390.69999963"/>
      <point x="1657.40000188" y="708.199999809" type="curve" smooth="yes"/>
      <point x="1657.40000188" y="1114.10000032"/>
      <point x="1347.50000173" y="1371.20000052"/>
      <point x="945.600001216" y="1371.20000052" type="curve" smooth="yes"/>
      <point x="481.60000062" y="1371.20000052"/>
      <point x="146.700000584" y="1037.00000012"/>
      <point x="146.700000584" y="584.599999547" type="curve" smooth="yes"/>
      <point x="146.700000584" y="131.199998975"/>
      <point x="448.400000572" y="-148.100001156"/>
    </contour>
    <contour>
      <point x="839.400001049" y="334.499998987" type="curve" smooth="yes"/>
      <point x="739.000000834" y="334.499998987"/>
      <point x="687.300000489" y="415.399998784"/>
      <point x="687.300000489" y="543.299999774" type="curve" smooth="yes"/>
      <point x="687.300000489" y="726.000000119"/>
      <point x="793.100000679" y="901.400000453"/>
      <point x="966.900000989" y="901.400000453" type="curve" smooth="yes"/>
      <point x="1017.30000097" y="901.400000453"/>
      <point x="1111.00000179" y="882.700000346"/>
      <point x="1146.90000182" y="870.400000334" type="curve"/>
      <point x="1102.30000156" y="943.500000417" type="line"/>
      <point x="1100.50000149" y="925.799999714"/>
      <point x="1057.10000163" y="674.800000429"/>
      <point x="1054.70000154" y="657.399999738" type="curve" smooth="yes"/>
      <point x="1025.50000161" y="476.099999487"/>
      <point x="979.900001228" y="334.499998987"/>
    </contour>
  </outline>
</glyph>
<glyph name="A" format="1">
  <advance width="1346.45570019"/>
  <unicode hex="0041"/>
  <outline>
    <contour>
      <point x="671.815924837" y="426.677986563" type="move" name="top"/>
    </contour>
    <contour>
      <point x="1220.3908776" y="6.81345790468" type="move" name="ogonek"/>
    </contour>
    <contour>
      <point x="47.3626915809" y="0.0" type="line"/>
      <point x="287.411662818" y="0.0" type="line"/>
      <point x="450.157831199" y="454.031177829" type="line"/>
      <point x="369.90399958" y="395.590804115" type="line"/>
      <point x="979.694205333" y="395.590804115" type="line"/>
      <point x="897.077682133" y="450.668486248" type="line"/>
      <point x="1063.31865421" y="0.0" type="line"/>
      <point x="1299.09300861" y="0.0" type="line"/>
      <point x="810.940111274" y="1341.73577577" type="line"/>
      <point x="536.878280495" y="1341.73577577" type="line"/>
    </contour>
    <contour>
      <point x="457.608597523" y="484.152897334" type="line"/>
      <point x="698.453233256" y="1202.1504304" type="line"/>
      <point x="654.134579047" y="1202.78773882" type="line"/>
      <point x="888.626915809" y="484.834243124" type="line"/>
      <point x="933.209794247" y="551.494803695" type="line"/>
      <point x="414.981681713" y="551.494803695" type="line"/>
    </contour>
  </outline>
</glyph>
<glyph name="B" format="1">
  <advance width="1294.20000005"/>
  <unicode hex="0042"/>
  <outline>
    <contour>
      <point x="173.400000691" y="0.0" type="line"/>
      <point x="706.200000048" y="0.0" type="line" smooth="yes"/>
      <point x="1017.70000046" y="0.0"/>
      <point x="1196.39999974" y="142.500000179"/>
      <point x="1196.39999974" y="391.399999738" type="curve" smooth="yes"/>
      <point x="1196.39999974" y="598.799999714"/>
      <point x="1055.69999987" y="703.799999833"/>
      <point x="869.299998939" y="745.299999654" type="curve"/>
      <point x="869.299998939" y="691.399999976" type="line"/>
      <point x="1064.80000007" y="754.099999845"/>
      <point x="1145.69999963" y="861.099999964"/>
      <point x="1145.69999963" y="1015.90000015" type="curve" smooth="yes"/>
      <point x="1145.69999963" y="1259.99999976"/>
      <point x="968.400000095" y="1352.60000002"/>
      <point x="632.399999857" y="1352.60000002" type="curve" smooth="yes"/>
      <point x="173.400000691" y="1352.60000002" type="line"/>
    </contour>
    <contour>
      <point x="354.29999882" y="177.599998474" type="line"/>
      <point x="409.199998617" y="120.299998701" type="line"/>
      <point x="409.199998617" y="693.900000155" type="line"/>
      <point x="353.999998808" y="631.60000062" type="line"/>
      <point x="640.099999726" y="631.60000062" type="line" smooth="yes"/>
      <point x="859.300001085" y="631.60000062"/>
      <point x="960.600001812" y="571.000000477"/>
      <point x="960.600001812" y="404.099999487" type="curve" smooth="yes"/>
      <point x="960.600001812" y="243.199998736"/>
      <point x="867.800001502" y="177.599998474"/>
      <point x="665.000000477" y="177.599998474" type="curve" smooth="yes"/>
    </contour>
    <contour>
      <point x="353.699998796" y="790.299999416" type="line"/>
      <point x="409.199998617" y="740.899999678" type="line"/>
      <point x="409.199998617" y="1234.50000125" type="line"/>
      <point x="354.599998832" y="1179.20000148" type="line"/>
      <point x="612.200000405" y="1179.20000148" type="line" smooth="yes"/>
      <point x="819.800001264" y="1179.20000148"/>
      <point x="917.900001705" y="1141.40000129"/>
      <point x="917.900001705" y="984.600000501" type="curve" smooth="yes"/>
      <point x="917.900001705" y="835.299999416"/>
      <point x="825.900000989" y="790.299999416"/>
      <point x="662.900000513" y="790.299999416" type="curve" smooth="yes"/>
    </contour>
  </outline>
</glyph>
<glyph name="C" format="1">
  <advance width="1234.4948037"/>
  <unicode hex="0043"/>
  <outline>
    <contour>
      <point x="636.31865421" y="429.864528658" type="move" name="top"/>
    </contour>
    <contour>
      <point x="636.31865421" y="1.27461683813" type="move" name="bottom"/>
    </contour>
    <contour>
      <point x="768.098467353" y="-18.0" type="curve" smooth="yes"/>
      <point x="923.932710477" y="-18.0"/>
      <point x="1037.41465463" y="20.9663552383"/>
      <point x="1127.63730842" y="71.1761494856" type="curve"/>
      <point x="1079.96635524" y="246.476485408" type="line"/>
      <point x="982.515588915" y="194.89360697"/>
      <point x="894.70213101" y="166.025719085"/>
      <point x="788.054429981" y="168.069756456" type="curve" smooth="yes"/>
      <point x="508.761494856" y="172.839176989"/>
      <point x="352.113793827" y="367.253831619"/>
      <point x="352.113793827" y="672.274616838" type="curve" smooth="yes"/>
      <point x="352.113793827" y="977.976747848"/>
      <point x="526.795139618" y="1164.80852404"/>
      <point x="753.064822591" y="1173.66601932" type="curve" smooth="yes"/>
      <point x="871.064822591" y="1179.79813143"/>
      <point x="987.3834768" y="1138.98467353"/>
      <point x="1078.60366366" y="1084.62198194" type="curve"/>
      <point x="1149.8134579" y="1253.37308419" type="line"/>
      <point x="1041.83424312" y="1320.86788789"/>
      <point x="906.70213101" y="1361.77981314"/>
      <point x="758.461158933" y="1361.77981314" type="curve" smooth="yes"/>
      <point x="371.352298971" y="1361.77981314"/>
      <point x="119.559626286" y="1098.06728952"/>
      <point x="119.559626286" y="678.274616838" type="curve" smooth="yes"/>
      <point x="119.559626286" y="245.240972076"/>
      <point x="384.505196305" y="-18.0"/>
    </contour>
  </outline>
</glyph>
<glyph name="D" format="1">
  <advance width="1454.76942053"/>
  <unicode hex="0044"/>
  <outline>
    <contour>
      <point x="722.714990552" y="429.864528658" type="move" name="top"/>
    </contour>
    <contour>
      <point x="722.714990552" y="215.091591434" type="move" name="center"/>
    </contour>
    <contour>
      <point x="407.036111694" y="109.134579047" type="line"/>
      <point x="407.036111694" y="1231.91985093" type="line"/>
      <point x="345.409195885" y="1170.61158933" type="line"/>
      <point x="581.769420533" y="1170.61158933" type="line" smooth="yes"/>
      <point x="915.899065715" y="1170.61158933"/>
      <point x="1103.3369725" y="1028.6452341"/>
      <point x="1103.3369725" y="672.274616838" type="curve" smooth="yes"/>
      <point x="1103.3369725" y="346.727850094"/>
      <point x="932.502729372" y="175.21226118"/>
      <point x="607.450766324" y="175.21226118" type="curve" smooth="yes"/>
      <point x="346.090541675" y="175.21226118" type="line"/>
    </contour>
    <contour>
      <point x="174.481944153" y="0.0" type="line"/>
      <point x="603.966355238" y="0.0" type="line" smooth="yes"/>
      <point x="1042.82385051" y="0.0"/>
      <point x="1335.20979425" y="235.132112114"/>
      <point x="1335.20979425" y="676.955962629" type="curve" smooth="yes"/>
      <point x="1335.20979425" y="1138.28500945"/>
      <point x="1021.68134579" y="1341.73577577"/>
      <point x="579.054429981" y="1341.73577577" type="curve" smooth="yes"/>
      <point x="174.481944153" y="1341.73577577" type="line"/>
    </contour>
  </outline>
</glyph>
<glyph name="E" format="1">
  <advance width="1163.79999959"/>
  <unicode hex="0045"/>
  <outline>
    <contour>
      <point x="173.400000691" y="0.0" type="line"/>
      <point x="1028.4999997" y="0.0" type="line"/>
      <point x="1043.09999961" y="177.599998474" type="line"/>
      <point x="344.399999022" y="177.599998474" type="line"/>
      <point x="409.199998617" y="113.899998844" type="line"/>
      <point x="409.199998617" y="685.699999988" type="line"/>
      <point x="343.699999034" y="619.10000056" type="line"/>
      <point x="986.999999285" y="619.10000056" type="line"/>
      <point x="986.999999285" y="792.499999106" type="line"/>
      <point x="344.399999022" y="792.499999106" type="line"/>
      <point x="409.199998617" y="729.299999535" type="line"/>
      <point x="409.199998617" y="1243.200001" type="line"/>
      <point x="344.299999058" y="1179.20000148" type="line"/>
      <point x="1027.19999981" y="1179.20000148" type="line"/>
      <point x="1036.09999973" y="1352.60000002" type="line"/>
      <point x="173.400000691" y="1352.60000002" type="line"/>
    </contour>
  </outline>
</glyph>
<glyph name="F" format="1">
  <advance width="1080.3999989"/>
  <unicode hex="0046"/>
  <outline>
    <contour>
      <point x="173.400000691" y="0.0" type="line"/>
      <point x="410.399998665" y="0.0" type="line"/>
      <point x="410.399998665" y="668.600000024" type="line"/>
      <point x="328.799999237" y="592.100000799" type="line"/>
      <point x="968.999998808" y="592.100000799" type="line"/>
      <point x="968.999998808" y="763.299999297" type="line"/>
      <point x="324.199999213" y="763.299999297" type="line"/>
      <point x="410.399998665" y="699.69999975" type="line"/>
      <point x="410.399998665" y="1248.50000113" type="line"/>
      <point x="320.699999273" y="1172.2000016" type="line"/>
      <point x="1020.79999864" y="1172.2000016" type="line"/>
      <point x="1031.89999861" y="1352.60000002" type="line"/>
      <point x="173.400000691" y="1352.60000002" type="line"/>
    </contour>
  </outline>
</glyph>
<glyph name="G" format="1">
  <advance width="1379.40000033"/>
  <unicode hex="0047"/>
  <outline>
    <contour>
      <point x="765.200000286" y="-18.0" type="curve" smooth="yes"/>
      <point x="948.80000031" y="-18.0"/>
      <point x="1096.30000025" y="15.1999999285"/>
      <point x="1240.10000008" y="75.3999997377" type="curve"/>
      <point x="1240.10000008" y="711.699999392" type="line"/>
      <point x="741.600001454" y="711.699999392" type="line"/>
      <point x="738.900001347" y="536.400000691" type="line"/>
      <point x="1095.00000143" y="536.400000691" type="line"/>
      <point x="1033.00000167" y="598.400000453" type="line"/>
      <point x="1033.00000167" y="132.299998939" type="line"/>
      <point x="1099.00000119" y="238.099998057" type="line"/>
      <point x="1040.7000013" y="209.299998224"/>
      <point x="960.900000155" y="170.699998319"/>
      <point x="784.000000596" y="170.699998319" type="curve" smooth="yes"/>
      <point x="483.399998784" y="170.699998319"/>
      <point x="352.699998319" y="371.099999011"/>
      <point x="352.699998319" y="679.999999881" type="curve" smooth="yes"/>
      <point x="352.699998319" y="986.600000381"/>
      <point x="525.699998677" y="1185.40000165"/>
      <point x="799.799999833" y="1185.40000165" type="curve" smooth="yes"/>
      <point x="942.50000149" y="1185.40000165"/>
      <point x="1052.10000128" y="1142.6000011"/>
      <point x="1152.60000038" y="1091.60000145" type="curve"/>
      <point x="1208.89999992" y="1265.69999999" type="line"/>
      <point x="1080.80000043" y="1338.4000001"/>
      <point x="952.599999905" y="1370.60000002"/>
      <point x="789.50000006" y="1370.60000002" type="curve" smooth="yes"/>
      <point x="400.099999368" y="1370.60000002"/>
      <point x="116.900000393" y="1101.99999928"/>
      <point x="116.900000393" y="677.599999905" type="curve" smooth="yes"/>
      <point x="116.900000393" y="265.000000358"/>
      <point x="355.599999905" y="-18.0"/>
    </contour>
  </outline>
</glyph>
<glyph name="H" format="1">
  <advance width="1445.69999963"/>
  <unicode hex="0048"/>
  <outline>
    <contour>
      <point x="172.200000644" y="0.0" type="line"/>
      <point x="407.999998569" y="0.0" type="line"/>
      <point x="407.999998569" y="672.600000262" type="line"/>
      <point x="337.399998903" y="608.100000799" type="line"/>
      <point x="1111.20000076" y="608.100000799" type="line"/>
      <point x="1037.70000106" y="672.600000262" type="line"/>
      <point x="1037.70000106" y="0.0" type="line"/>
      <point x="1273.49999899" y="0.0" type="line"/>
      <point x="1273.49999899" y="1352.60000002" type="line"/>
      <point x="1037.70000106" y="1352.60000002" type="line"/>
      <point x="1037.70000106" y="718.399999738" type="line"/>
      <point x="1106.40000081" y="782.899999201" type="line"/>
      <point x="336.699998915" y="782.899999201" type="line"/>
      <point x="407.999998569" y="718.399999738" type="line"/>
      <point x="407.999998569" y="1352.60000002" type="line"/>
      <point x="172.200000644" y="1352.60000002" type="line"/>
    </contour>
  </outline>
</glyph>
<glyph name="I" format="1">
  <advance width="795.799998403"/>
  <unicode hex="0049"/>
  <outline>
    <contour>
      <point x="115.199999809" y="1352.60000002" type="line"/>
      <point x="115.199999809" y="1212.00000119" type="line"/>
      <point x="345.799999714" y="1212.00000119" type="line"/>
      <point x="281.400000215" y="1264.70000094" type="line"/>
      <point x="281.400000215" y="83.5999990702" type="line"/>
      <point x="346.599999785" y="140.599998832" type="line"/>
      <point x="115.199999809" y="140.599998832" type="line"/>
      <point x="115.199999809" y="0.0" type="line"/>
      <point x="680.599998593" y="0.0" type="line"/>
      <point x="680.599998593" y="140.599998832" type="line"/>
      <point x="445.299998701" y="140.599998832" type="line"/>
      <point x="517.19999814" y="83.4999991059" type="line"/>
      <point x="517.19999814" y="1266.20000088" type="line"/>
      <point x="446.499998748" y="1212.00000119" type="line"/>
      <point x="680.599998593" y="1212.00000119" type="line"/>
      <point x="680.599998593" y="1352.60000002" type="line"/>
    </contour>
  </outline>
</glyph>
<glyph name="J" format="1">
  <advance width="792.699997842"/>
  <unicode hex="004A"/>
  <outline>
    <contour>
      <point x="176.399998188" y="-194.699998915" type="line"/>
      <point x="461.699998558" y="-194.699998915"/>
      <point x="619.299997151" y="-9.79999983311"/>
      <point x="619.299997151" y="291.099999607" type="curve" smooth="yes"/>
      <point x="619.299997151" y="1352.60000002" type="line"/>
      <point x="383.499999225" y="1352.60000002" type="line"/>
      <point x="383.499999225" y="276.499999344" type="line" smooth="yes"/>
      <point x="383.499999225" y="140.199998021"/>
      <point x="324.499999106" y="-6.20000052452"/>
      <point x="149.099998653" y="-6.20000052452" type="curve" smooth="yes"/>
      <point x="16.2999997735" y="-6.20000052452" type="line"/>
      <point x="16.2999997735" y="-194.699998915" type="line"/>
    </contour>
  </outline>
</glyph>
<glyph name="K" format="1">
  <advance width="1294.29999858"/>
  <unicode hex="004B"/>
  <outline>
    <contour>
      <point x="173.400000691" y="0.0" type="line"/>
      <point x="409.199998617" y="0.0" type="line"/>
      <point x="409.199998617" y="609.800000191" type="line"/>
      <point x="359.899998724" y="490.400000691" type="line"/>
      <point x="584.499998391" y="686.800000668" type="line"/>
      <point x="493.599998951" y="695.800000548" type="line"/>
      <point x="998.800000191" y="0.0" type="line"/>
      <point x="1271.59999788" y="0.0" type="line"/>
      <point x="661.099997222" y="815.499999702" type="line"/>
      <point x="663.199997306" y="695.000000715" type="line"/>
      <point x="1240.79999793" y="1352.60000002" type="line"/>
      <point x="967.900000274" y="1352.60000002" type="line"/>
      <point x="352.699998915" y="673.999999642" type="line"/>
      <point x="409.199998617" y="664.999999642" type="line"/>
      <point x="409.199998617" y="1352.60000002" type="line"/>
      <point x="173.400000691" y="1352.60000002" type="line"/>
    </contour>
  </outline>
</glyph>
<glyph name="L" format="1">
  <advance width="1075.59999943"/>
  <unicode hex="004C"/>
  <outline>
    <contour>
      <point x="173.400000691" y="0.0" type="line"/>
      <point x="1016.69999927" y="0.0" type="line"/>
      <point x="1026.49999911" y="177.599998474" type="line"/>
      <point x="327.499999106" y="177.599998474" type="line"/>
      <point x="409.199998617" y="95.299998939" type="line"/>
      <point x="409.199998617" y="1352.60000002" type="line"/>
      <point x="173.400000691" y="1352.60000002" type="line"/>
    </contour>
  </outline>
</glyph>
<glyph name="M" format="1">
  <advance width="1759.99999881"/>
  <unicode hex="004D"/>
  <outline>
    <contour>
      <point x="173.400000691" y="0.0" type="line"/>
      <point x="397.299998701" y="0.0" type="line"/>
      <point x="404.299998581" y="638.800006151" type="line"/>
      <point x="389.999998689" y="1091.60000396" type="line"/>
      <point x="348.099999011" y="1091.60000396" type="line"/>
      <point x="787.900000036" y="175.899999201" type="line"/>
      <point x="967.299998939" y="175.899999201" type="line"/>
      <point x="1417.29999989" y="1091.60000396" type="line"/>
      <point x="1372.30000013" y="1091.60000396" type="line"/>
      <point x="1357.00000024" y="642.100006163" type="line"/>
      <point x="1364.00000012" y="0.0" type="line"/>
      <point x="1586.59999812" y="0.0" type="line"/>
      <point x="1572.59999835" y="1352.60000002" type="line"/>
      <point x="1328.69999975" y="1352.60000002" type="line"/>
      <point x="839.19999969" y="346.599997163" type="line"/>
      <point x="922.899999201" y="346.599997163" type="line"/>
      <point x="436.899999082" y="1352.60000002" type="line"/>
      <point x="187.400000453" y="1352.60000002" type="line"/>
    </contour>
  </outline>
</glyph>
<glyph name="N" format="1">
  <advance width="1493.39999974"/>
  <unicode hex="004E"/>
  <outline>
    <contour>
      <point x="173.400000691" y="0.0" type="line"/>
      <point x="402.299998462" y="0.0" type="line"/>
      <point x="402.299998462" y="539.500005186" type="line"/>
      <point x="381.899998605" y="1130.80000257" type="line"/>
      <point x="332.099998891" y="1124.80000234" type="line"/>
      <point x="1065.00000155" y="0.0" type="line"/>
      <point x="1319.99999905" y="0.0" type="line"/>
      <point x="1319.99999905" y="1352.60000002" type="line"/>
      <point x="1091.10000128" y="1352.60000002" type="line"/>
      <point x="1091.10000128" y="716.799996257" type="line"/>
      <point x="1107.50000113" y="213.699997723" type="line"/>
      <point x="1153.60000098" y="215.199997783" type="line"/>
      <point x="419.499998271" y="1352.60000002" type="line"/>
      <point x="173.400000691" y="1352.60000002" type="line"/>
    </contour>
  </outline>
</glyph>
<glyph name="O" format="1">
  <advance width="1556.49999994"/>
  <unicode hex="004F"/>
  <outline>
    <contour>
      <point x="779.399999976" y="168.599998355" type="curve" smooth="yes"/>
      <point x="508.499998271" y="168.599998355"/>
      <point x="353.399998307" y="374.999999046"/>
      <point x="353.399998307" y="670.899999917" type="curve" smooth="yes"/>
      <point x="353.399998307" y="975.700000942"/>
      <point x="513.099998415" y="1182.60000169"/>
      <point x="779.699999988" y="1182.60000169" type="curve" smooth="yes"/>
      <point x="1046.60000157" y="1182.60000169"/>
      <point x="1203.10000163" y="975.100000918"/>
      <point x="1203.10000163" y="670.899999917" type="curve" smooth="yes"/>
      <point x="1203.10000163" y="374.999999046"/>
      <point x="1050.30000168" y="168.599998355"/>
    </contour>
    <contour>
      <point x="779.699999988" y="-18.0" type="curve" smooth="yes"/>
      <point x="1182.00000036" y="-18.0"/>
      <point x="1438.89999956" y="250.500000298"/>
      <point x="1438.89999956" y="671.699999869" type="curve" smooth="yes"/>
      <point x="1438.89999956" y="1102.59999967"/>
      <point x="1176.1000002" y="1370.60000002"/>
      <point x="780.0" y="1370.60000002" type="curve" smooth="yes"/>
      <point x="379.999999642" y="1370.60000002"/>
      <point x="117.600000381" y="1103.79999971"/>
      <point x="117.600000381" y="672.299999893" type="curve" smooth="yes"/>
      <point x="117.600000381" y="247.800000191"/>
      <point x="374.999999523" y="-18.0"/>
    </contour>
  </outline>
</glyph>
<glyph name="P" format="1">
  <advance width="1229.09999889"/>
  <unicode hex="0050"/>
  <outline>
    <contour>
      <point x="173.400000691" y="0.0" type="line"/>
      <point x="409.199998617" y="0.0" type="line"/>
      <point x="409.199998617" y="679.700000465" type="line"/>
      <point x="347.099998772" y="612.700000942" type="line"/>
      <point x="670.999999642" y="612.700000942" type="line" smooth="yes"/>
      <point x="1029.69999844" y="612.700000942"/>
      <point x="1159.89999837" y="762.600000501"/>
      <point x="1159.89999837" y="1003.10000044" type="curve" smooth="yes"/>
      <point x="1159.89999837" y="1272.8999998"/>
      <point x="952.599998951" y="1352.60000002"/>
      <point x="672.499999702" y="1352.60000002" type="curve" smooth="yes"/>
      <point x="173.400000691" y="1352.60000002" type="line"/>
    </contour>
    <contour>
      <point x="653.399999976" y="792.39999938" type="curve" smooth="yes"/>
      <point x="348.899998724" y="792.39999938" type="line"/>
      <point x="409.199998617" y="732.199999809" type="line"/>
      <point x="409.199998617" y="1237.90000135" type="line"/>
      <point x="348.899998724" y="1179.20000148" type="line"/>
      <point x="671.099999607" y="1179.20000148" type="line" smooth="yes"/>
      <point x="835.69999975" y="1179.20000148"/>
      <point x="924.100000441" y="1134.00000131"/>
      <point x="924.100000441" y="997.800000548" type="curve" smooth="yes"/>
      <point x="924.100000441" y="855.699999392"/>
      <point x="860.299999774" y="792.39999938"/>
    </contour>
  </outline>
</glyph>
<glyph name="Q" format="1">
  <advance width="1556.49999994"/>
  <unicode hex="0051"/>
  <outline>
    <contour>
      <point x="1167.5000003" y="-436.59999907" type="curve"/>
      <point x="1304.69999903" y="-315.400000095" type="line"/>
      <point x="1204.49999946" y="-214.300000489"/>
      <point x="1098.89999908" y="-47.9000006318"/>
      <point x="1052.69999903" y="36.0999997258" type="curve"/>
      <point x="858.400000811" y="-8.7999997139" type="line"/>
      <point x="937.800000906" y="-158.300000012"/>
      <point x="1076.10000104" y="-365.799999356"/>
    </contour>
    <component base="O"/>
  </outline>
</glyph>
<glyph name="R" format="1">
  <advance width="1329.1000002"/>
  <unicode hex="0052"/>
  <outline>
    <contour>
      <point x="173.400000691" y="0.0" type="line"/>
      <point x="409.199998617" y="0.0" type="line"/>
      <point x="409.199998617" y="645.70000118" type="line"/>
      <point x="348.499998748" y="600.100001276" type="line"/>
      <point x="823.300000608" y="600.100001276" type="line"/>
      <point x="719.900001109" y="653.500001252" type="line"/>
      <point x="834.200001121" y="373.300001681" type="line"/>
      <point x="994.700001776" y="0.0" type="line"/>
      <point x="1241.59999955" y="0.0" type="line"/>
      <point x="1047.69999892" y="429.700001538" type="line"/>
      <point x="924.699999392" y="712.800000668" type="line"/>
      <point x="909.199999571" y="616.70000118" type="line"/>
      <point x="1069.30000001" y="663.100000918"/>
      <point x="1189.49999946" y="752.400001168"/>
      <point x="1189.49999946" y="980.700000703" type="curve" smooth="yes"/>
      <point x="1189.49999946" y="1261.3999995"/>
      <point x="1011.40000069" y="1352.60000002"/>
      <point x="714.100001037" y="1352.60000002" type="curve" smooth="yes"/>
      <point x="173.400000691" y="1352.60000002" type="line"/>
    </contour>
    <contour>
      <point x="409.199998617" y="700.500000417" type="line"/>
      <point x="409.199998617" y="1236.60000134" type="line"/>
      <point x="350.699998677" y="1179.20000148" type="line"/>
      <point x="722.600000858" y="1179.20000148" type="line" smooth="yes"/>
      <point x="901.600001454" y="1179.20000148"/>
      <point x="955.200001597" y="1109.10000116"/>
      <point x="955.200001597" y="977.600000739" type="curve" smooth="yes"/>
      <point x="955.200001597" y="824.200000167"/>
      <point x="909.50000149" y="759.400000095"/>
      <point x="704.500000536" y="759.400000095" type="curve" smooth="yes"/>
      <point x="347.099998772" y="759.400000095" type="line"/>
    </contour>
  </outline>
</glyph>
<glyph name="S" format="1">
  <advance width="1157.19999945"/>
  <unicode hex="0053"/>
  <outline>
    <contour>
      <point x="570.899999917" y="-18.0" type="curve" smooth="yes"/>
      <point x="845.499999344" y="-18.0"/>
      <point x="1045.59999919" y="104.599999428"/>
      <point x="1050.09999937" y="369.599999547" type="curve" smooth="yes"/>
      <point x="1053.99999952" y="593.499999821"/>
      <point x="931.899998844" y="689.699999273"/>
      <point x="713.399999499" y="766.899999201" type="curve" smooth="yes"/>
      <point x="499.699999511" y="843.099999368" type="line" smooth="yes"/>
      <point x="409.299998343" y="876.299999893"/>
      <point x="367.799998164" y="922.999999881"/>
      <point x="369.599998236" y="1008.40000069" type="curve" smooth="yes"/>
      <point x="371.999998331" y="1138.50000161"/>
      <point x="472.999999404" y="1182.60000169"/>
      <point x="612.299999654" y="1182.60000169" type="curve" smooth="yes"/>
      <point x="745.700000226" y="1182.60000169"/>
      <point x="869.400000095" y="1121.80000138"/>
      <point x="941.899999321" y="1088.10000163" type="curve"/>
      <point x="1014.89999896" y="1260.5999999" type="line"/>
      <point x="912.19999969" y="1324.19999969"/>
      <point x="765.799999833" y="1370.60000002"/>
      <point x="608.199999928" y="1370.60000002" type="curve" smooth="yes"/>
      <point x="358.500000656" y="1370.60000002"/>
      <point x="153.700000346" y="1259.90000087"/>
      <point x="149.500000179" y="1003.40000069" type="curve" smooth="yes"/>
      <point x="146.800000072" y="816.700000823"/>
      <point x="254.100000203" y="709.000001311"/>
      <point x="420.000000358" y="651.200001121" type="curve" smooth="yes"/>
      <point x="647.600000262" y="572.600000978" type="line" smooth="yes"/>
      <point x="776.100001514" y="526.500000417"/>
      <point x="831.100001514" y="473.900000393"/>
      <point x="829.000001431" y="371.199999452" type="curve" smooth="yes"/>
      <point x="826.300001323" y="227.199998617"/>
      <point x="741.400000691" y="168.599998355"/>
      <point x="579.399999857" y="168.599998355" type="curve" smooth="yes"/>
      <point x="431.199999213" y="168.599998355"/>
      <point x="286.199999928" y="217.899998605"/>
      <point x="204.999999762" y="273.599998832" type="curve"/>
      <point x="133.400000215" y="98.400000453" type="line"/>
      <point x="228.699999392" y="39.900000751"/>
      <point x="370.599998951" y="-18.0"/>
    </contour>
  </outline>
</glyph>
<glyph name="T" format="1">
  <advance width="1122.91439219"/>
  <unicode hex="0054"/>
  <outline>
    <contour>
      <point x="562.572485828" y="429.864528658" type="move" name="top"/>
    </contour>
    <contour>
      <point x="562.572485828" y="215.091591434" type="move" name="center"/>
    </contour>
    <contour>
      <point x="562.572485828" y="0.0" type="move" name="bottom"/>
    </contour>
    <contour>
      <point x="445.746168381" y="0.0" type="line"/>
      <point x="678.300335923" y="0.0" type="line"/>
      <point x="678.300335923" y="1235.28254252" type="line"/>
      <point x="615.815924837" y="1172.52351459" type="line"/>
      <point x="1066.18900903" y="1172.52351459" type="line"/>
      <point x="1066.18900903" y="1341.73577577" type="line"/>
      <point x="56.7253831619" y="1341.73577577" type="line"/>
      <point x="56.7253831619" y="1172.52351459" type="line"/>
      <point x="508.230579467" y="1172.52351459" type="line"/>
      <point x="445.746168381" y="1235.32657989" type="line"/>
    </contour>
  </outline>
</glyph>
<glyph name="U" format="1">
  <advance width="1412.9999994"/>
  <unicode hex="0055"/>
  <outline>
    <contour>
      <point x="706.19999969" y="-18.0" type="curve" smooth="yes"/>
      <point x="1059.19999993" y="-18.0"/>
      <point x="1262.99999917" y="183.400000453"/>
      <point x="1262.99999917" y="488.500000179" type="curve" smooth="yes"/>
      <point x="1262.99999917" y="1352.60000002" type="line"/>
      <point x="1027.20000124" y="1352.60000002" type="line"/>
      <point x="1027.20000124" y="502.899999917" type="line" smooth="yes"/>
      <point x="1027.20000124" y="283.599998951"/>
      <point x="916.100000799" y="170.699998319"/>
      <point x="706.19999969" y="170.699998319" type="curve" smooth="yes"/>
      <point x="495.999998331" y="170.699998319"/>
      <point x="385.799998164" y="283.199998975"/>
      <point x="385.799998164" y="502.49999994" type="curve" smooth="yes"/>
      <point x="385.799998164" y="1352.60000002" type="line"/>
      <point x="150.000000238" y="1352.60000002" type="line"/>
      <point x="150.000000238" y="490.100000203" type="line" smooth="yes"/>
      <point x="150.000000238" y="182.900000513"/>
      <point x="353.099999487" y="-18.0"/>
    </contour>
  </outline>
</glyph>
<glyph name="V" format="1">
  <advance width="1331.99999881"/>
  <unicode hex="0056"/>
  <outline>
    <contour>
      <point x="540.300000966" y="0.0" type="line"/>
      <point x="790.599997878" y="0.0" type="line"/>
      <point x="1266.79999876" y="1352.60000002" type="line"/>
      <point x="1018.70000106" y="1352.60000002" type="line"/>
      <point x="758.69999975" y="547.399998426" type="line"/>
      <point x="637.599999428" y="160.699998796" type="line"/>
      <point x="700.699999273" y="160.699998796" type="line"/>
      <point x="577.799998999" y="545.199998379" type="line"/>
      <point x="314.999997735" y="1352.60000002" type="line"/>
      <point x="65.2000000477" y="1352.60000002" type="line"/>
    </contour>
  </outline>
</glyph>
<glyph name="W" format="1">
  <advance width="1921.93271048"/>
  <unicode hex="0057"/>
  <outline>
    <contour>
      <point x="960.966355238" y="429.864528658" type="move" name="top"/>
    </contour>
    <contour>
      <point x="429.228112534" y="0.0" type="line"/>
      <point x="648.562093219" y="0.0" type="line"/>
      <point x="986.285009448" y="1113.92777661" type="line"/>
      <point x="940.647701029" y="1113.92777661" type="line"/>
      <point x="1261.38100987" y="0.0" type="line"/>
      <point x="1483.03364476" y="0.0" type="line"/>
      <point x="1879.73577577" y="1341.41712156" type="line"/>
      <point x="1653.54429981" y="1341.41712156" type="line"/>
      <point x="1350.80059836" y="234.072223389" type="line"/>
      <point x="1387.39386941" y="234.072223389" type="line"/>
      <point x="1068.34190636" y="1325.22018686" type="line"/>
      <point x="854.590804115" y="1325.22018686" type="line"/>
      <point x="524.911925257" y="234.709531808" type="line"/>
      <point x="563.230579467" y="234.709531808" type="line"/>
      <point x="267.795139618" y="1341.41712156" type="line"/>
      <point x="42.196934705" y="1341.41712156" type="line"/>
    </contour>
  </outline>
</glyph>
<glyph name="X" format="1">
  <advance width="1300.9999994"/>
  <unicode hex="0058"/>
  <outline>
    <contour>
      <point x="73.0000013113" y="0.0" type="line"/>
      <point x="311.699999034" y="0.0" type="line"/>
      <point x="666.499999702" y="530.800001502" type="line"/>
      <point x="772.899998605" y="663.299999774" type="line"/>
      <point x="1217.39999855" y="1352.60000002" type="line"/>
      <point x="980.100000679" y="1352.60000002" type="line"/>
      <point x="657.899999678" y="845.699997962" type="line"/>
      <point x="538.800000787" y="713.499999583" type="line"/>
    </contour>
    <contour>
      <point x="984.400000811" y="0.0" type="line"/>
      <point x="1232.79999828" y="0.0" type="line"/>
      <point x="334.999998331" y="1352.60000002" type="line"/>
      <point x="90.6000007391" y="1352.60000002" type="line"/>
    </contour>
  </outline>
</glyph>
<glyph name="Y" format="1">
  <advance width="1223.69999868"/>
  <unicode hex="0059"/>
  <outline>
    <contour>
      <point x="501.10000056" y="0.0" type="line"/>
      <point x="732.699998558" y="0.0" type="line"/>
      <point x="732.699998558" y="621.200000048" type="line"/>
      <point x="683.199998736" y="439.400001049" type="line"/>
      <point x="1174.29999846" y="1352.60000002" type="line"/>
      <point x="933.900000751" y="1352.60000002" type="line"/>
      <point x="578.799999833" y="652.999999166" type="line"/>
      <point x="651.799999356" y="652.999999166" type="line"/>
      <point x="292.999997854" y="1352.60000002" type="line"/>
      <point x="49.4000002146" y="1352.60000002" type="line"/>
      <point x="556.30000037" y="427.100001156" type="line"/>
      <point x="501.10000056" y="617.300000131" type="line"/>
    </contour>
  </outline>
</glyph>
<glyph name="Z" format="1">
  <advance width="1177.8999992"/>
  <unicode hex="005A"/>
  <outline>
    <contour>
      <point x="142.999999881" y="0.0" type="line"/>
      <point x="1061.19999909" y="0.0" type="line"/>
      <point x="1064.49999923" y="177.599998474" type="line"/>
      <point x="360.899997294" y="177.599998474" type="line"/>
      <point x="392.499997079" y="106.299998939" type="line"/>
      <point x="1056.39999926" y="1197.50000125" type="line"/>
      <point x="1053.69999915" y="1352.60000002" type="line"/>
      <point x="160.500000298" y="1352.60000002" type="line"/>
      <point x="160.500000298" y="1179.20000148" type="line"/>
      <point x="863.300001323" y="1179.20000148" type="line"/>
      <point x="825.100001514" y="1248.70000082" type="line"/>
      <point x="142.999999881" y="148.299999058" type="line"/>
    </contour>
  </outline>
</glyph>
<glyph name="bracketleft" format="1">
  <advance width="708.899998128"/>
  <unicode hex="005B"/>
  <outline>
    <contour>
      <point x="170.699998915" y="-161.700002134" type="line"/>
      <point x="170.699998915" y="1409.99999905" type="line"/>
      <point x="592.799998522" y="1409.99999905" type="line"/>
      <point x="592.799998522" y="1259.40000021" type="line"/>
      <point x="370.099997103" y="1259.40000021" type="line"/>
      <point x="370.099997103" y="-11.0000033379" type="line"/>
      <point x="592.799998522" y="-11.0000033379" type="line"/>
      <point x="592.799998522" y="-161.700002134" type="line"/>
    </contour>
  </outline>
</glyph>
<glyph name="backslash" format="1">
  <advance width="859.200000644"/>
  <unicode hex="005C"/>
  <outline>
    <contour>
      <point x="577.400001526" y="-16.8000006676" type="line"/>
      <point x="106.700000346" y="1341.40000021" type="line"/>
      <point x="291.799998522" y="1341.40000021" type="line"/>
      <point x="759.299999774" y="-16.8000006676" type="line"/>
    </contour>
  </outline>
</glyph>
<glyph name="bracketright" format="1">
  <advance width="709.499998152"/>
  <unicode hex="005D"/>
  <outline>
    <contour>
      <point x="116.999999642" y="-161.700002134" type="line"/>
      <point x="116.999999642" y="-11.7000033259" type="line"/>
      <point x="339.700001061" y="-11.7000033259" type="line"/>
      <point x="339.700001061" y="1258.70000023" type="line"/>
      <point x="116.999999642" y="1258.70000023" type="line"/>
      <point x="116.999999642" y="1409.99999905" type="line"/>
      <point x="538.799999237" y="1409.99999905" type="line"/>
      <point x="538.799999237" y="-161.700002134" type="line"/>
    </contour>
  </outline>
</glyph>
<glyph name="asciicircum" format="1">
  <advance width="1129.30000192"/>
  <unicode hex="005E"/>
  <outline>
    <contour>
      <point x="84.7000015378" y="513.500000894" type="line"/>
      <point x="496.20000124" y="1363.50000066" type="line"/>
      <point x="604.400000572" y="1363.50000066" type="line"/>
      <point x="1040.40000021" y="513.500000894" type="line"/>
      <point x="873.100001872" y="513.500000894" type="line"/>
      <point x="551.200000882" y="1144.60000277" type="line"/>
      <point x="253.199999928" y="513.500000894" type="line"/>
    </contour>
  </outline>
</glyph>
<glyph name="underscore" format="1">
  <advance width="1010.49999994"/>
  <unicode hex="005F"/>
  <outline>
    <contour>
      <point x="61.9000005126" y="-206.500001252" type="line"/>
      <point x="944.999999285" y="-206.500001252" type="line"/>
      <point x="944.999999285" y="-57.9000023007" type="line"/>
      <point x="61.9000005126" y="-57.9000023007" type="line"/>
    </contour>
  </outline>
</glyph>
<glyph name="grave" format="1">
  <advance width="519.600002885"/>
  <unicode hex="0060"/>
  <outline>
    <contour>
      <point x="333.000001669" y="1109.50000113" type="line"/>
      <point x="465.000000358" y="1109.50000113" type="line"/>
      <point x="292.800000548" y="1466.30000097" type="line"/>
      <point x="31.0000020266" y="1466.30000097" type="line"/>
    </contour>
  </outline>
</glyph>
<glyph name="a" format="1">
  <advance width="1060.60000026"/>
  <unicode hex="0061"/>
  <outline>
    <contour>
      <point x="418.000000119" y="-16.7999999523" type="curve" smooth="yes"/>
      <point x="554.399999857" y="-16.7999999523"/>
      <point x="693.100000203" y="43.9999995232"/>
      <point x="774.100000918" y="163.700000584" type="curve"/>
      <point x="728.500001132" y="188.900000155" type="line"/>
      <point x="767.600000858" y="0.300000011921" type="line"/>
      <point x="924.599999547" y="0.300000011921" type="line"/>
      <point x="924.599999547" y="658.799999952" type="line" smooth="yes"/>
      <point x="924.599999547" y="929.199999809"/>
      <point x="757.399999738" y="1029.49999958"/>
      <point x="526.699999869" y="1029.49999958" type="curve" smooth="yes"/>
      <point x="408.799999952" y="1029.49999958"/>
      <point x="266.199999928" y="999.499999464"/>
      <point x="146.300000608" y="946.799999595" type="curve"/>
      <point x="193.800000429" y="802.800000668" type="line"/>
      <point x="294.000000238" y="843.400000811"/>
      <point x="412.800000429" y="871.400000811"/>
      <point x="506.800000548" y="871.400000811" type="curve" smooth="yes"/>
      <point x="635.800001264" y="871.400000811"/>
      <point x="712.800001264" y="814.700000226"/>
      <point x="712.800001264" y="685.099999845" type="curve"/>
      <point x="712.800001264" y="585.299999297" type="line"/>
      <point x="749.800001144" y="621.799999237" type="line"/>
      <point x="529.500001132" y="609.199999452" type="line" smooth="yes"/>
      <point x="250.400000095" y="594.499999702"/>
      <point x="102.600000262" y="498.599999428"/>
      <point x="102.600000262" y="279.099999607" type="curve" smooth="yes"/>
      <point x="102.600000262" y="81.6999999881"/>
      <point x="240.800000072" y="-16.7999999523"/>
    </contour>
    <contour>
      <point x="454.199999332" y="137.099998891" type="curve" smooth="yes"/>
      <point x="368.399999261" y="137.099998891"/>
      <point x="301.399998784" y="185.499998987"/>
      <point x="301.399998784" y="280.099999607" type="curve" smooth="yes"/>
      <point x="301.399998784" y="408.50000006"/>
      <point x="378.699998558" y="462.200000644"/>
      <point x="596.000000358" y="473.400000453" type="curve" smooth="yes"/>
      <point x="740.000001311" y="481.100000322" type="line"/>
      <point x="712.100001276" y="515.900000274" type="line"/>
      <point x="712.100001276" y="224.49999994" type="line"/>
      <point x="749.100001156" y="312.200000286" type="line"/>
      <point x="706.600000143" y="227.099998415"/>
      <point x="578.399999976" y="137.099998891"/>
    </contour>
  </outline>
</glyph>
<glyph name="b" format="1">
  <advance width="1163.30000037"/>
  <unicode hex="0062"/>
  <outline>
    <contour>
      <point x="648.899999678" y="-18.0" type="curve" smooth="yes"/>
      <point x="912.100000083" y="-18.0"/>
      <point x="1068.49999994" y="195.399999738"/>
      <point x="1068.49999994" y="509.099999607" type="curve" smooth="yes"/>
      <point x="1068.49999994" y="813.299999774"/>
      <point x="922.700000107" y="1029.89999956"/>
      <point x="654.099999726" y="1029.89999956" type="curve" smooth="yes"/>
      <point x="502.299999416" y="1029.89999956"/>
      <point x="385.099999011" y="940.799999237"/>
      <point x="323.699999034" y="838.699998438" type="curve"/>
      <point x="353.699999034" y="826.099998653" type="line"/>
      <point x="357.899998963" y="1050.79999888" type="line"/>
      <point x="357.899998963" y="1375.20000029" type="line"/>
      <point x="143.60000062" y="1361.00000036" type="line"/>
      <point x="143.60000062" y="0.699999988079" type="line"/>
      <point x="324.699999034" y="0.699999988079" type="line"/>
      <point x="349.399998903" y="207.600001454" type="line"/>
      <point x="306.499998868" y="194.400001645" type="line"/>
      <point x="358.899998605" y="91.200001359"/>
      <point x="486.199998498" y="-18.0"/>
    </contour>
    <contour>
      <point x="606.300000489" y="145.699998677" type="curve" smooth="yes"/>
      <point x="453.399999499" y="145.699998677"/>
      <point x="353.499998987" y="260.799999356"/>
      <point x="353.499998987" y="520.69999975" type="curve"/>
      <point x="354.599998951" y="751.599999785"/>
      <point x="449.699999034" y="866.90000087"/>
      <point x="612.200000525" y="866.90000087" type="curve" smooth="yes"/>
      <point x="770.200001836" y="866.90000087"/>
      <point x="855.100001633" y="742.899999678"/>
      <point x="855.100001633" y="507.599999666" type="curve" smooth="yes"/>
      <point x="855.100001633" y="268.699999511"/>
      <point x="763.100001752" y="145.699998677"/>
    </contour>
  </outline>
</glyph>
<glyph name="c" format="1">
  <advance width="942.450766324"/>
  <unicode hex="0063"/>
  <outline>
    <contour>
      <point x="475.769420533" y="314.193050598" type="move" name="top"/>
    </contour>
    <contour>
      <point x="475.769420533" y="0.0" type="move" name="bottom"/>
    </contour>
    <contour>
      <point x="578.31865421" y="-18.0" type="curve" smooth="yes"/>
      <point x="739.738242704" y="-18.0"/>
      <point x="825.660560571" y="32.7149905522"/>
      <point x="859.253831619" y="58.2642242284" type="curve"/>
      <point x="827.847102666" y="205.89360697" type="line"/>
      <point x="766.088074743" y="170.992074323"/>
      <point x="688.264224228" y="142.948036952"/>
      <point x="601.132112114" y="146.354765904" type="curve" smooth="yes"/>
      <point x="421.717457485" y="151.124186437"/>
      <point x="305.585345371" y="283.396336343"/>
      <point x="305.585345371" y="503.440373714" type="curve" smooth="yes"/>
      <point x="305.585345371" y="734.044037371"/>
      <point x="432.266691161" y="864.855028343"/>
      <point x="610.362691581" y="864.855028343" type="curve" smooth="yes"/>
      <point x="689.409195885" y="864.855028343"/>
      <point x="762.365158514" y="837.875813563"/>
      <point x="813.077682133" y="809.041570439" type="curve"/>
      <point x="866.067289523" y="953.582878438" type="line"/>
      <point x="792.352298971" y="1002.25383162"/>
      <point x="698.582878438" y="1029.20979425"/>
      <point x="584.505196305" y="1029.20979425" type="curve" smooth="yes"/>
      <point x="305.593271048" y="1029.20979425"/>
      <point x="95.4715515431" y="833.056896914"/>
      <point x="95.4715515431" y="505.484411085" type="curve" smooth="yes"/>
      <point x="95.4715515431" y="180.834243124"/>
      <point x="287.779813143" y="-18.0"/>
    </contour>
  </outline>
</glyph>
<glyph name="d" format="1">
  <advance width="1160.90000027"/>
  <unicode hex="0064"/>
  <outline>
    <contour>
      <point x="518.800000548" y="-17.3000000119" type="curve" smooth="yes"/>
      <point x="724.100000799" y="-17.3000000119"/>
      <point x="808.500001132" y="101.800000548"/>
      <point x="852.600001216" y="201.00000155" type="curve"/>
      <point x="807.700001419" y="202.200001597" type="line"/>
      <point x="836.000001192" y="0.0" type="line"/>
      <point x="1017.29999965" y="0.0" type="line"/>
      <point x="1017.29999965" y="1375.20000029" type="line"/>
      <point x="803.900001347" y="1361.00000036" type="line"/>
      <point x="803.900001347" y="1056.50000018" type="line"/>
      <point x="814.200001359" y="821.599998116" type="line"/>
      <point x="849.500001252" y="837.799997926" type="line"/>
      <point x="791.300001204" y="947.49999851"/>
      <point x="695.700001538" y="1029.89999956"/>
      <point x="517.900000513" y="1029.89999956" type="curve" smooth="yes"/>
      <point x="254.100000441" y="1029.89999956"/>
      <point x="94.8000004292" y="817.299999654"/>
      <point x="94.8000004292" y="511.599999785" type="curve" smooth="yes"/>
      <point x="94.8000004292" y="195.499999821"/>
      <point x="250.000000238" y="-17.3000000119"/>
    </contour>
    <contour>
      <point x="556.799999833" y="145.699998677" type="curve" smooth="yes"/>
      <point x="391.999998689" y="145.699998677"/>
      <point x="308.199998736" y="270.799999833"/>
      <point x="308.199998736" y="507.499999821" type="curve" smooth="yes"/>
      <point x="308.199998736" y="751.299999893"/>
      <point x="410.699998558" y="865.500000894"/>
      <point x="566.599999785" y="865.500000894" type="curve" smooth="yes"/>
      <point x="721.400000691" y="865.500000894"/>
      <point x="812.500001252" y="757.199999928"/>
      <point x="812.500001252" y="492.499999821" type="curve"/>
      <point x="811.100001276" y="261.599999785"/>
      <point x="726.100001156" y="145.699998677"/>
    </contour>
  </outline>
</glyph>
<glyph name="e" format="1">
  <advance width="1105.34190636"/>
  <unicode hex="0065"/>
  <outline>
    <contour>
      <point x="553.165756876" y="314.193050598" type="move" name="top"/>
    </contour>
    <contour>
      <point x="1007.58534537" y="10.0" type="move" name="ogonek"/>
    </contour>
    <contour>
      <point x="553.165756876" y="0.0" type="move" name="bottom"/>
    </contour>
    <contour>
      <point x="609.6165232" y="-18.0" type="curve" smooth="yes"/>
      <point x="761.792672685" y="-18.0"/>
      <point x="884.375551123" y="11.5492336763"/>
      <point x="979.738242704" y="69.6813457905" type="curve"/>
      <point x="945.056896914" y="215.90399958" type="line"/>
      <point x="879.476485408" y="184.795139618"/>
      <point x="770.805532228" y="140.859962209"/>
      <point x="628.836710057" y="140.859962209" type="curve" smooth="yes"/>
      <point x="446.277083771" y="140.859962209"/>
      <point x="305.673420113" y="247.826317447"/>
      <point x="306.354765904" y="498.054429981" type="curve"/>
      <point x="260.859962209" y="460.427514172" type="line"/>
      <point x="998.782280076" y="460.427514172" type="line"/>
      <point x="998.782280076" y="460.427514172"/>
      <point x="1005.14497166" y="535.98960739"/>
      <point x="1005.14497166" y="555.450766324" type="curve" smooth="yes"/>
      <point x="1005.14497166" y="835.857495276"/>
      <point x="848.704597942" y="1029.20979425"/>
      <point x="582.132112114" y="1029.20979425" type="curve" smooth="yes"/>
      <point x="307.790205753" y="1028.52844846"/>
      <point x="95.4715515431" y="824.264224228"/>
      <point x="95.4715515431" y="503.396336343" type="curve" smooth="yes"/>
      <point x="95.4715515431" y="179.176149486"/>
      <point x="309.274616838" y="-18.0"/>
    </contour>
    <contour>
      <point x="311.398803275" y="556.29786899" type="line"/>
      <point x="314.90399958" y="764.220186857"/>
      <point x="449.266691161" y="874.39386941"/>
      <point x="585.088074743" y="874.39386941" type="curve" smooth="yes"/>
      <point x="726.624448877" y="874.39386941"/>
      <point x="809.261757296" y="767.779813143"/>
      <point x="811.987140458" y="555.474018476" type="curve"/>
      <point x="853.217719924" y="595.474018476" type="line"/>
      <point x="262.22265379" y="595.474018476" type="line"/>
    </contour>
  </outline>
</glyph>
<glyph name="f" format="1">
  <advance width="733.704597942"/>
  <unicode hex="0066"/>
  <outline>
    <contour>
      <point x="234.295402058" y="0.0" type="line"/>
      <point x="445.046504304" y="0.0" type="line"/>
      <point x="445.046504304" y="913.614056267" type="line"/>
      <point x="405.046504304" y="864.492336763" type="line"/>
      <point x="675.59573798" y="864.492336763" type="line"/>
      <point x="675.59573798" y="1006.44037371" type="line"/>
      <point x="398.870354818" y="1006.44037371" type="line"/>
      <point x="445.046504304" y="964.362691581" type="line"/>
      <point x="445.046504304" y="1071.13211211" type="line" smooth="yes"/>
      <point x="445.046504304" y="1225.85502834"/>
      <point x="498.507663237" y="1246.08560781"/>
      <point x="586.243439009" y="1246.08560781" type="curve" smooth="yes"/>
      <point x="627.518055847" y="1246.08560781"/>
      <point x="680.660560571" y="1238.81099097"/>
      <point x="701.100934285" y="1235.40426202" type="curve"/>
      <point x="719.002466933" y="1391.44037371" type="line"/>
      <point x="673.352298971" y="1400.29786899"/>
      <point x="611.670953181" y="1408.84710267"/>
      <point x="547.891140038" y="1408.84710267" type="curve" smooth="yes"/>
      <point x="362.450766324" y="1408.84710267"/>
      <point x="234.295402058" y="1333.11132689"/>
      <point x="234.295402058" y="1061.0" type="curve" smooth="yes"/>
      <point x="234.295402058" y="963.0" type="line"/>
      <point x="277.70213101" y="1010.1217195" type="line"/>
      <point x="77.6813457905" y="989.077682133" type="line"/>
      <point x="72.6813457905" y="864.492336763" type="line"/>
      <point x="271.108859962" y="864.492336763" type="line"/>
      <point x="234.295402058" y="916.976747848" type="line"/>
    </contour>
  </outline>
</glyph>
<glyph name="g" format="1">
  <advance width="1164.30000061"/>
  <unicode hex="0067"/>
  <outline>
    <contour>
      <point x="559.500000179" y="162.599998713" type="curve" smooth="yes"/>
      <point x="364.499999225" y="162.599998713"/>
      <point x="294.899998963" y="330.899999917"/>
      <point x="294.899998963" y="515.199999571" type="curve" smooth="yes"/>
      <point x="294.899998963" y="704.299999535"/>
      <point x="373.999999046" y="865.500000894"/>
      <point x="566.700000107" y="865.500000894" type="curve"/>
      <point x="752.800001264" y="865.500000894"/>
      <point x="822.200001597" y="737.500000179"/>
      <point x="822.200001597" y="539.600000143" type="curve" smooth="yes"/>
      <point x="822.200001597" y="487.599999189" type="line"/>
      <point x="820.800001621" y="306.199999332"/>
      <point x="752.600001097" y="162.599998713"/>
    </contour>
    <contour>
      <point x="462.10000056" y="-463.299999177" type="curve" smooth="yes"/>
      <point x="840.800001025" y="-463.299999177"/>
      <point x="1027.90000004" y="-240.299999058"/>
      <point x="1027.90000004" y="105.099999726" type="curve" smooth="yes"/>
      <point x="1027.90000004" y="1006.99999964" type="line"/>
      <point x="836.900001466" y="1006.99999964" type="line"/>
      <point x="820.400001526" y="819.699999034" type="line"/>
      <point x="854.200001478" y="825.999998927" type="line"/>
      <point x="800.200001597" y="966.199998856"/>
      <point x="686.100001514" y="1029.89999956"/>
      <point x="535.200000763" y="1029.89999956" type="curve" smooth="yes"/>
      <point x="266.299999416" y="1029.89999956"/>
      <point x="81.5000006557" y="817.099998534"/>
      <point x="81.5000006557" y="507.599999547" type="curve" smooth="yes"/>
      <point x="81.5000006557" y="231.000000715"/>
      <point x="246.49999994" y="0.0"/>
      <point x="525.400000691" y="0.0" type="curve" smooth="yes"/>
      <point x="688.900001705" y="0.0"/>
      <point x="818.700001657" y="69.9000012279"/>
      <point x="863.900001466" y="248.000000358" type="curve"/>
      <point x="820.100001633" y="254.400000215" type="line"/>
      <point x="820.100001633" y="33.7000009418" type="line" smooth="yes"/>
      <point x="820.100001633" y="-167.30000037"/>
      <point x="701.000001788" y="-295.500000536"/>
      <point x="457.100000441" y="-295.500000536" type="curve" smooth="yes"/>
      <point x="448.200000286" y="-295.500000536"/>
      <point x="418.298826552" y="-295.590643697"/>
      <point x="232.000000954" y="-289.900000513" type="curve"/>
      <point x="232.000000954" y="-457.699999154" type="line"/>
      <point x="443.498712103" y="-463.412354948"/>
      <point x="453.300000489" y="-463.299999177"/>
    </contour>
  </outline>
</glyph>
<glyph name="h" format="1">
  <advance width="1136.79999995"/>
  <unicode hex="0068"/>
  <outline>
    <contour>
      <point x="143.60000062" y="0.0" type="line"/>
      <point x="354.899998963" y="0.0" type="line"/>
      <point x="354.899998963" y="513.800000906" type="line" smooth="yes"/>
      <point x="354.899998963" y="706.80000031"/>
      <point x="403.699999273" y="866.200000882"/>
      <point x="614.000000119" y="866.200000882" type="curve" smooth="yes"/>
      <point x="744.900000751" y="866.200000882"/>
      <point x="789.800001025" y="786.100000441"/>
      <point x="789.800001025" y="614.399999857" type="curve" smooth="yes"/>
      <point x="789.800001025" y="0.0" type="line"/>
      <point x="1003.19999933" y="0.0" type="line"/>
      <point x="1003.19999933" y="630.199999571" type="line" smooth="yes"/>
      <point x="1003.19999933" y="897.899999201"/>
      <point x="873.799999714" y="1029.89999956"/>
      <point x="657.999999642" y="1029.89999956" type="curve" smooth="yes"/>
      <point x="502.299999177" y="1029.89999956"/>
      <point x="370.299999058" y="951.89999944"/>
      <point x="303.999999166" y="826.499998748" type="curve"/>
      <point x="348.199998975" y="809.499998868" type="line"/>
      <point x="356.999998927" y="1080.09999913" type="line"/>
      <point x="356.999998927" y="1375.20000029" type="line"/>
      <point x="143.60000062" y="1361.00000036" type="line"/>
    </contour>
  </outline>
</glyph>
<glyph name="i" format="1">
  <advance width="505.699999392"/>
  <unicode hex="0069"/>
  <outline>
    <contour>
      <point x="149.900000513" y="0.0" type="line"/>
      <point x="363.29999882" y="0.0" type="line"/>
      <point x="363.29999882" y="1006.99999964" type="line"/>
      <point x="149.900000513" y="1006.99999964" type="line"/>
    </contour>
    <contour>
      <point x="149.900000513" y="1172.60000062" type="line"/>
      <point x="363.29999882" y="1172.60000062" type="line"/>
      <point x="363.29999882" y="1352.60000002" type="line"/>
      <point x="149.900000513" y="1352.60000002" type="line"/>
    </contour>
  </outline>
</glyph>
<glyph name="j" format="1">
  <advance width="543.699999273"/>
  <unicode hex="006A"/>
  <outline>
    <contour>
      <point x="11.300000608" y="-388.600000381" type="line"/>
      <point x="65.0000003576" y="-388.600000381" type="line" smooth="yes"/>
      <point x="346.099998891" y="-388.600000381"/>
      <point x="404.499998748" y="-275.700001419"/>
      <point x="404.499998748" y="-13.7000021338" type="curve" smooth="yes"/>
      <point x="404.499998748" y="1007.69999963" type="line"/>
      <point x="192.600000381" y="1007.69999963" type="line"/>
      <point x="192.600000381" y="-28.0000009537" type="line" smooth="yes"/>
      <point x="192.600000381" y="-185.300001442"/>
      <point x="183.200000525" y="-221.800001383"/>
      <point x="41.6000005007" y="-221.800001383" type="curve" smooth="yes"/>
      <point x="-12.8999992013" y="-221.800001383" type="line"/>
    </contour>
    <contour>
      <point x="192.600000381" y="1172.60000062" type="line"/>
      <point x="404.499998748" y="1172.60000062" type="line"/>
      <point x="404.499998748" y="1352.60000002" type="line"/>
      <point x="192.600000381" y="1352.60000002" type="line"/>
    </contour>
  </outline>
</glyph>
<glyph name="k" format="1">
  <advance width="1074.89999908"/>
  <unicode hex="006B"/>
  <outline>
    <contour>
      <point x="143.60000062" y="0.0" type="line"/>
      <point x="356.999998927" y="0.0" type="line"/>
      <point x="356.999998927" y="412.599999666" type="line"/>
      <point x="305.399999261" y="304.200000405" type="line"/>
      <point x="493.099999249" y="479.900000274" type="line"/>
      <point x="425.499999464" y="479.900000274" type="line"/>
      <point x="806.200000763" y="0.0" type="line"/>
      <point x="1056.49999875" y="0.0" type="line"/>
      <point x="579.999997973" y="597.299999297" type="line"/>
      <point x="579.999997973" y="501.900000036" type="line"/>
      <point x="1037.89999896" y="1006.99999964" type="line"/>
      <point x="771.900001228" y="1006.99999964" type="line"/>
      <point x="310.899999082" y="500.799998879" type="line"/>
      <point x="350.299998939" y="500.799998879" type="line"/>
      <point x="356.999998927" y="746.599998474" type="line"/>
      <point x="356.999998927" y="1375.20000029" type="line"/>
      <point x="143.60000062" y="1361.00000036" type="line"/>
    </contour>
  </outline>
</glyph>
<glyph name="l" format="1">
  <advance width="643.399998546"/>
  <unicode hex="006C"/>
  <outline>
    <contour>
      <point x="489.399999022" y="-12.0999999642" type="curve" smooth="yes"/>
      <point x="561.099998891" y="-12.0999999642"/>
      <point x="622.999998689" y="2.59999990463"/>
      <point x="633.899998844" y="5.59999990463" type="curve"/>
      <point x="633.899998844" y="154.999998689" type="line"/>
      <point x="616.499998987" y="153.299998701"/>
      <point x="559.59999907" y="145.899998724"/>
      <point x="523.399998784" y="145.899998724" type="curve" smooth="yes"/>
      <point x="426.699998319" y="145.899998724"/>
      <point x="358.399998903" y="175.299999058"/>
      <point x="358.399998903" y="344.19999814" type="curve" smooth="yes"/>
      <point x="358.399998903" y="1375.20000029" type="line"/>
      <point x="145.000000596" y="1361.00000036" type="line"/>
      <point x="145.000000596" y="353.299998105" type="line" smooth="yes"/>
      <point x="145.000000596" y="95.1999988556"/>
      <point x="258.90000087" y="-12.0999999642"/>
    </contour>
  </outline>
</glyph>
<glyph name="m" format="1">
  <advance width="1688.89999968"/>
  <unicode hex="006D"/>
  <outline>
    <contour>
      <point x="143.60000062" y="0.0" type="line"/>
      <point x="356.999998927" y="0.0" type="line"/>
      <point x="356.999998927" y="541.700001895" type="line" smooth="yes"/>
      <point x="367.499999344" y="726.400001287"/>
      <point x="416.600000381" y="866.200000882"/>
      <point x="590.399999976" y="866.200000882" type="curve" smooth="yes"/>
      <point x="718.500000417" y="866.200000882"/>
      <point x="746.600000739" y="770.500000656"/>
      <point x="746.600000739" y="576.499999464" type="curve" smooth="yes"/>
      <point x="746.600000739" y="0.0" type="line"/>
      <point x="959.999999046" y="0.0" type="line"/>
      <point x="959.999999046" y="559.699998558" type="line"/>
      <point x="963.982672785" y="620.267039102"/>
      <point x="969.140095528" y="666.359735321"/>
      <point x="980.122152118" y="698.99631318" type="curve" smooth="yes"/>
      <point x="1011.07093451" y="806.95516732"/>
      <point x="1083.83276496" y="866.200000882"/>
      <point x="1186.40000021" y="866.200000882" type="curve" smooth="yes"/>
      <point x="1328.7000013" y="866.200000882"/>
      <point x="1341.90000075" y="741.599999189"/>
      <point x="1341.90000075" y="573.599999785" type="curve" smooth="yes"/>
      <point x="1341.90000075" y="0.0" type="line"/>
      <point x="1555.29999906" y="0.0" type="line"/>
      <point x="1555.29999906" y="643.899999917" type="line" smooth="yes"/>
      <point x="1555.29999906" y="891.599999785"/>
      <point x="1453.69999915" y="1029.89999956"/>
      <point x="1231.39999962" y="1029.89999956" type="curve" smooth="yes"/>
      <point x="1083.3999989" y="1029.89999956"/>
      <point x="966.099999011" y="952.799998879"/>
      <point x="891.699999273" y="813.099998653" type="curve"/>
      <point x="940.599998951" y="813.099998653" type="line"/>
      <point x="888.199999332" y="945.499998629"/>
      <point x="811.999999642" y="1029.89999956"/>
      <point x="644.09999913" y="1029.89999956" type="curve" smooth="yes"/>
      <point x="471.999999404" y="1029.89999956"/>
      <point x="361.799999356" y="936.799999475"/>
      <point x="300.199999213" y="824.299998939" type="curve"/>
      <point x="348.999999046" y="816.799998879" type="line"/>
      <point x="316.799999237" y="1006.99999964" type="line"/>
      <point x="143.60000062" y="1006.99999964" type="line"/>
    </contour>
  </outline>
</glyph>
<glyph name="n" format="1">
  <advance width="1160.89999944"/>
  <unicode hex="006E"/>
  <outline>
    <contour>
      <point x="143.60000062" y="0.0" type="line"/>
      <point x="356.999998927" y="0.0" type="line"/>
      <point x="356.999998927" y="520.900000989" type="line" smooth="yes"/>
      <point x="356.999998927" y="719.800000429"/>
      <point x="422.599998951" y="866.200000882"/>
      <point x="637.099999726" y="866.200000882" type="curve" smooth="yes"/>
      <point x="777.500000298" y="866.200000882"/>
      <point x="813.500000536" y="774.500000536"/>
      <point x="813.900000513" y="617.400000215" type="curve"/>
      <point x="813.900000513" y="0.0" type="line"/>
      <point x="1027.29999882" y="0.0" type="line"/>
      <point x="1027.29999882" y="626.199999452" type="line" smooth="yes"/>
      <point x="1027.29999882" y="885.599999785"/>
      <point x="918.199998975" y="1029.89999956"/>
      <point x="685.899999082" y="1029.89999956" type="curve" smooth="yes"/>
      <point x="503.499998868" y="1029.89999956"/>
      <point x="382.799998999" y="948.299999416"/>
      <point x="304.999999404" y="824.499999344" type="curve"/>
      <point x="351.599999189" y="824.499999344" type="line"/>
      <point x="320.699999392" y="1006.99999964" type="line"/>
      <point x="143.60000062" y="1006.99999964" type="line"/>
    </contour>
  </outline>
</glyph>
<glyph name="o" format="1">
  <advance width="1162.59999979"/>
  <unicode hex="006F"/>
  <outline>
    <contour>
      <point x="581.299999893" y="144.999998689" type="curve" smooth="yes"/>
      <point x="406.299998939" y="144.999998689"/>
      <point x="307.599998713" y="281.399999619"/>
      <point x="307.599998713" y="504.799999714" type="curve" smooth="yes"/>
      <point x="307.599998713" y="728.799999952"/>
      <point x="407.699998915" y="866.200000882"/>
      <point x="581.299999893" y="866.200000882" type="curve" smooth="yes"/>
      <point x="758.100000918" y="866.200000882"/>
      <point x="855.000001073" y="728.49999994"/>
      <point x="855.000001073" y="504.499999702" type="curve" smooth="yes"/>
      <point x="855.000001073" y="279.999999642"/>
      <point x="758.300000966" y="144.999998689"/>
    </contour>
    <contour>
      <point x="581.299999893" y="-18.0" type="curve" smooth="yes"/>
      <point x="877.299999416" y="-18.0"/>
      <point x="1067.79999936" y="190.400000215"/>
      <point x="1067.79999936" y="505.399999738" type="curve" smooth="yes"/>
      <point x="1067.79999936" y="821.499999464"/>
      <point x="877.099999845" y="1029.89999956"/>
      <point x="581.299999893" y="1029.89999956" type="curve" smooth="yes"/>
      <point x="280.200000167" y="1029.89999956"/>
      <point x="94.8000004292" y="825.599999309"/>
      <point x="94.8000004292" y="505.399999738" type="curve" smooth="yes"/>
      <point x="94.8000004292" y="193.000000119"/>
      <point x="289.300000012" y="-18.0"/>
    </contour>
  </outline>
</glyph>
<glyph name="p" format="1">
  <advance width="1163.00000024"/>
  <unicode hex="0070"/>
  <outline>
    <contour>
      <point x="145.700000584" y="-420.300000489" type="line"/>
      <point x="359.099998891" y="-408.800000548" type="line"/>
      <point x="359.099998891" y="-34.8000007868" type="line"/>
      <point x="351.29999882" y="225.300001681" type="line"/>
      <point x="307.099999011" y="199.500001609" type="line"/>
      <point x="347.999999166" y="108.900000513"/>
      <point x="462.299999297" y="-18.0"/>
      <point x="649.599999785" y="-18.0" type="curve" smooth="yes"/>
      <point x="911.999999881" y="-18.0"/>
      <point x="1068.19999981" y="201.299999774"/>
      <point x="1068.19999981" y="504.899999678" type="curve" smooth="yes"/>
      <point x="1068.19999981" y="804.199999928"/>
      <point x="921.599999905" y="1029.89999956"/>
      <point x="661.89999944" y="1029.89999956" type="curve" smooth="yes"/>
      <point x="516.199998736" y="1029.89999956"/>
      <point x="381.399998903" y="953.899998844"/>
      <point x="306.299999297" y="808.499998629" type="curve"/>
      <point x="356.999998808" y="806.999998569" type="line"/>
      <point x="327.699999034" y="1006.99999964" type="line"/>
      <point x="145.700000584" y="1006.99999964" type="line"/>
    </contour>
    <contour>
      <point x="611.800000191" y="145.699998677" type="curve" smooth="yes"/>
      <point x="448.599999428" y="145.699998677"/>
      <point x="356.799998879" y="266.499999583"/>
      <point x="356.799998879" y="522.499999702" type="curve"/>
      <point x="358.199998856" y="749.299999774"/>
      <point x="443.59999907" y="866.200000882"/>
      <point x="612.600000381" y="866.200000882" type="curve" smooth="yes"/>
      <point x="771.100001633" y="866.200000882"/>
      <point x="854.800001502" y="739.399999738"/>
      <point x="854.800001502" y="506.899999678" type="curve" smooth="yes"/>
      <point x="854.800001502" y="275.699999392"/>
      <point x="768.400001407" y="145.699998677"/>
    </contour>
  </outline>
</glyph>
<glyph name="q" format="1">
  <advance width="1173.50000077"/>
  <unicode hex="0071"/>
  <outline>
    <contour>
      <point x="817.100001872" y="-420.300000489" type="line"/>
      <point x="1029.90000015" y="-408.000000596" type="line"/>
      <point x="1029.90000015" y="1006.99999964" type="line"/>
      <point x="840.600001574" y="1006.99999964" type="line"/>
      <point x="816.800001621" y="812.199998856" type="line"/>
      <point x="859.000001311" y="824.999998689" type="line"/>
      <point x="805.600001216" y="928.699999511"/>
      <point x="710.000000834" y="1029.89999956"/>
      <point x="524.700000703" y="1029.89999956" type="curve" smooth="yes"/>
      <point x="249.10000056" y="1029.89999956"/>
      <point x="94.8000004292" y="808.599999666"/>
      <point x="94.8000004292" y="503.399999619" type="curve" smooth="yes"/>
      <point x="94.8000004292" y="198.999999881"/>
      <point x="266.400000572" y="-18.0"/>
      <point x="526.000000596" y="-18.0" type="curve" smooth="yes"/>
      <point x="704.100001872" y="-18.0"/>
      <point x="807.900001943" y="78.1000010371"/>
      <point x="872.00000155" y="210.300001323" type="curve"/>
      <point x="823.400001884" y="229.400001287" type="line"/>
      <point x="817.100001872" y="-19.4000014067" type="line"/>
    </contour>
    <contour>
      <point x="562.700000226" y="144.299998701" type="curve" smooth="yes"/>
      <point x="399.099999011" y="144.299998701"/>
      <point x="307.599998713" y="272.199999571"/>
      <point x="307.599998713" y="505.599999785" type="curve" smooth="yes"/>
      <point x="307.599998713" y="738.899999797"/>
      <point x="398.799998879" y="865.500000894"/>
      <point x="561.200000286" y="865.500000894" type="curve" smooth="yes"/>
      <point x="738.300001562" y="865.500000894"/>
      <point x="821.700001657" y="746.0"/>
      <point x="821.700001657" y="505.500000417" type="curve"/>
      <point x="820.500001729" y="259.999999881"/>
      <point x="741.600001812" y="144.299998701"/>
    </contour>
  </outline>
</glyph>
<glyph name="r" format="1">
  <advance width="776.299999654"/>
  <unicode hex="0072"/>
  <outline>
    <contour>
      <point x="145.000000596" y="0.0" type="line"/>
      <point x="358.399998903" y="0.0" type="line"/>
      <point x="358.399998903" y="556.100000203" type="line" smooth="yes"/>
      <point x="358.399998903" y="719.300000489"/>
      <point x="471.299999297" y="837.900001228"/>
      <point x="644.199999332" y="837.900001228" type="curve" smooth="yes"/>
      <point x="668.099999249" y="837.900001228"/>
      <point x="692.799999237" y="835.900001228"/>
      <point x="721.899999082" y="830.20000124" type="curve"/>
      <point x="727.09999913" y="1008.39999974" type="line"/>
      <point x="702.199999213" y="1013.4999997"/>
      <point x="679.09999913" y="1014.09999973"/>
      <point x="653.999999046" y="1014.09999973" type="curve" smooth="yes"/>
      <point x="532.699998915" y="1014.09999973"/>
      <point x="395.699998915" y="942.299999535"/>
      <point x="306.399999142" y="776.199998856" type="curve"/>
      <point x="354.79999876" y="767.299998939" type="line"/>
      <point x="321.999999046" y="1006.99999964" type="line"/>
      <point x="145.000000596" y="1006.99999964" type="line"/>
    </contour>
  </outline>
</glyph>
<glyph name="s" format="1">
  <advance width="928.199999452"/>
  <unicode hex="0073"/>
  <outline>
    <contour>
      <point x="471.69999963" y="-17.3000000119" type="curve" smooth="yes"/>
      <point x="700.999999285" y="-17.3000000119"/>
      <point x="835.299999177" y="90.5783096654"/>
      <point x="835.299999177" y="287.399999261" type="curve" smooth="yes"/>
      <point x="835.299999177" y="442.899999082"/>
      <point x="748.899999797" y="516.199999213"/>
      <point x="561.099999011" y="590.999999166" type="curve" smooth="yes"/>
      <point x="491.399998426" y="618.099999249" type="line" smooth="yes"/>
      <point x="363.296698343" y="670.675299073"/>
      <point x="320.49999851" y="693.39999938"/>
      <point x="320.49999851" y="764.699999869" type="curve" smooth="yes"/>
      <point x="320.49999851" y="833.30000025"/>
      <point x="383.799998879" y="873.200000763"/>
      <point x="492.599999785" y="873.200000763" type="curve" smooth="yes"/>
      <point x="586.399999976" y="873.200000763"/>
      <point x="678.199999452" y="841.40000093"/>
      <point x="747.699999273" y="807.700001061" type="curve"/>
      <point x="797.299998939" y="953.600000024" type="line"/>
      <point x="700.899999201" y="1000.49999982"/>
      <point x="603.499999702" y="1029.89999956"/>
      <point x="482.69999975" y="1029.89999956" type="curve" smooth="yes"/>
      <point x="260.499999821" y="1029.89999956"/>
      <point x="131.600000024" y="924.099999368"/>
      <point x="131.600000024" y="746.49999994" type="curve"/>
      <point x="132.300000012" y="601.59850062"/>
      <point x="199.69999963" y="532.900000274"/>
      <point x="373.699999869" y="460.500000536" type="curve"/>
      <point x="440.700000465" y="433.000000477" type="line" smooth="yes"/>
      <point x="581.7207013" y="373.669900503"/>
      <point x="636.800000906" y="342.700000107"/>
      <point x="636.800000906" y="265.999999642" type="curve"/>
      <point x="635.40000093" y="181.799999118"/>
      <point x="589.900000513" y="139.399998784"/>
      <point x="473.799999714" y="137.29999882" type="curve" smooth="yes"/>
      <point x="361.799999237" y="135.199998856"/>
      <point x="239.199999928" y="188.299998462"/>
      <point x="171.400000215" y="228.699998081" type="curve"/>
      <point x="130.900000393" y="80.099999249" type="line"/>
      <point x="156.60000062" y="63.1999992132"/>
      <point x="295.000000358" y="-17.3000000119"/>
    </contour>
  </outline>
</glyph>
<glyph name="t" format="1">
  <advance width="806.999998927"/>
  <unicode hex="0074"/>
  <outline>
    <contour>
      <point x="545.499998987" y="-12.0999999642" type="curve" smooth="yes"/>
      <point x="647.399998903" y="-12.0999999642"/>
      <point x="732.99999845" y="13.3999998569"/>
      <point x="738.599998355" y="15.4999998212" type="curve"/>
      <point x="738.599998355" y="157.099998653" type="line"/>
      <point x="735.099998415" y="154.999998689"/>
      <point x="649.399998665" y="140.79999876"/>
      <point x="588.299998581" y="140.79999876" type="curve" smooth="yes"/>
      <point x="489.599998593" y="140.79999876"/>
      <point x="426.699998558" y="187.199998617"/>
      <point x="426.699998558" y="349.699998558" type="curve" smooth="yes"/>
      <point x="426.699998558" y="914.500000536" type="line"/>
      <point x="389.699998677" y="872.100000799" type="line"/>
      <point x="710.099998891" y="872.100000799" type="line"/>
      <point x="710.099998891" y="1006.99999964" type="line"/>
      <point x="388.999998689" y="1006.99999964" type="line"/>
      <point x="426.699998558" y="960.49999994" type="line"/>
      <point x="426.699998558" y="1259.59999967" type="line"/>
      <point x="276.799999833" y="1258.09999961" type="line"/>
      <point x="215.700000226" y="968.0" type="line"/>
      <point x="275.599999666" y="1009.99999964" type="line"/>
      <point x="69.0000003576" y="995.899999678" type="line"/>
      <point x="59.2000005245" y="872.800000787" type="line"/>
      <point x="250.300000131" y="872.800000787" type="line"/>
      <point x="213.30000025" y="915.500000536" type="line"/>
      <point x="213.30000025" y="352.699998438" type="line"/>
      <point x="214.000000238" y="108.599999309"/>
      <point x="313.600000381" y="-12.0999999642"/>
    </contour>
  </outline>
</glyph>
<glyph name="u" format="1">
  <advance width="1160.02325215"/>
  <unicode hex="0075"/>
  <outline>
    <contour>
      <point x="552.725383162" y="314.193050598" type="move" name="top"/>
    </contour>
    <contour>
      <point x="1025.82631745" y="10.0" type="move" name="ogonek"/>
    </contour>
    <component base="n" xScale="-1.0" yScale="-1.0" xOffset="1160.02325215" yOffset="1006.44037371"/>
  </outline>
</glyph>
<glyph name="v" format="1">
  <advance width="1048.69999915"/>
  <unicode hex="0076"/>
  <outline>
    <contour>
      <point x="428.100000203" y="0.0" type="line"/>
      <point x="636.599998713" y="0.0" type="line"/>
      <point x="1011.89999872" y="1006.99999964" type="line"/>
      <point x="790.400000572" y="1006.99999964" type="line"/>
      <point x="603.900000155" y="452.399999261" type="line"/>
      <point x="514.599999428" y="161.6999982" type="line"/>
      <point x="556.099999368" y="161.6999982" type="line"/>
      <point x="457.29999882" y="452.199999213" type="line"/>
      <point x="260.399998546" y="1006.99999964" type="line"/>
      <point x="36.8000004292" y="1006.99999964" type="line"/>
    </contour>
  </outline>
</glyph>
<glyph name="w" format="1">
  <advance width="1519.85996221"/>
  <unicode hex="0077"/>
  <outline>
    <contour>
      <point x="760.111326895" y="314.193050598" type="move" name="top"/>
    </contour>
    <contour>
      <point x="324.01039261" y="0.0" type="line"/>
      <point x="525.310728532" y="0.0" type="line"/>
      <point x="780.199401638" y="865.875813563" type="line"/>
      <point x="741.572485828" y="865.875813563" type="line"/>
      <point x="996.481944153" y="0.0" type="line"/>
      <point x="1193.72785009" y="0.0" type="line"/>
      <point x="1481.11379383" y="1006.44037371" type="line"/>
      <point x="1281.63730842" y="1006.44037371" type="line"/>
      <point x="1073.4948037" y="178.279550703" type="line"/>
      <point x="1109.90153265" y="178.279550703" type="line"/>
      <point x="870.036111694" y="1006.44037371" type="line"/>
      <point x="655.549233676" y="1006.44037371" type="line"/>
      <point x="416.518055847" y="178.279550703" type="line"/>
      <point x="449.562093219" y="178.279550703" type="line"/>
      <point x="241.541307999" y="1006.44037371" type="line"/>
      <point x="38.7461683813" y="1006.44037371" type="line"/>
    </contour>
  </outline>
</glyph>
<glyph name="x" format="1">
  <advance width="1058.99999881"/>
  <unicode hex="0078"/>
  <outline>
    <contour>
      <point x="37.0000001192" y="0.0" type="line"/>
      <point x="274.999998212" y="0.0" type="line"/>
      <point x="547.799999356" y="391.800000787" type="line"/>
      <point x="630.999998569" y="467.699999988" type="line"/>
      <point x="1007.09999865" y="1006.99999964" type="line"/>
      <point x="769.10000056" y="1006.99999964" type="line"/>
      <point x="509.099999487" y="628.199998498" type="line"/>
      <point x="423.600000381" y="551.399999499" type="line"/>
    </contour>
    <contour>
      <point x="775.700000465" y="0.0" type="line"/>
      <point x="1016.59999847" y="0.0" type="line"/>
      <point x="295.599998355" y="1006.99999964" type="line"/>
      <point x="56.2000002861" y="1006.99999964" type="line"/>
    </contour>
  </outline>
</glyph>
<glyph name="y" format="1">
  <advance width="1040.69999939"/>
  <unicode hex="0079"/>
  <outline>
    <contour>
      <point x="492.199998856" y="-375.399999976" type="line"/>
      <point x="1007.49999911" y="1006.99999964" type="line"/>
      <point x="789.200001001" y="1006.99999964" type="line"/>
      <point x="524.599999785" y="203.799998403" type="line"/>
      <point x="569.499999583" y="203.799998403" type="line"/>
      <point x="273.599998593" y="1006.99999964" type="line"/>
      <point x="53.6000003815" y="1006.99999964" type="line"/>
      <point x="470.700000465" y="-41.1999998093" type="line"/>
      <point x="470.700000465" y="93.1999996901" type="line"/>
      <point x="299.800000548" y="-349.500000179" type="line"/>
    </contour>
  </outline>
</glyph>
<glyph name="z" format="1">
  <advance width="931.499998748"/>
  <unicode hex="007A"/>
  <outline>
    <contour>
      <point x="107.000000119" y="0.0" type="line"/>
      <point x="837.399998546" y="0.0" type="line"/>
      <point x="837.399998546" y="157.799998641" type="line"/>
      <point x="293.39999783" y="157.799998641" type="line"/>
      <point x="312.89999789" y="92.7999988794" type="line"/>
      <point x="824.699998677" y="860.400000811" type="line"/>
      <point x="824.699998677" y="1006.99999964" type="line"/>
      <point x="128.400000095" y="1006.99999964" type="line"/>
      <point x="128.400000095" y="854.800000906" type="line"/>
      <point x="656.000000596" y="854.800000906" type="line"/>
      <point x="631.500000656" y="913.000000715" type="line"/>
      <point x="107.000000119" y="133.699999034" type="line"/>
    </contour>
  </outline>
</glyph>
<glyph name="braceleft" format="1">
  <advance width="709.300000727"/>
  <unicode hex="007B"/>
  <outline>
    <contour>
      <point x="616.199999452" y="-250.400000215" type="line" smooth="yes"/>
      <point x="374.800000072" y="-250.400000215"/>
      <point x="262.800000906" y="-169.199999332"/>
      <point x="262.800000906" y="42.6000005007" type="curve" smooth="yes"/>
      <point x="262.800000906" y="258.999999285" type="line" smooth="yes"/>
      <point x="262.800000906" y="405.499999702"/>
      <point x="234.000001192" y="479.300000846"/>
      <point x="69.4000008106" y="480.200000882" type="curve" smooth="yes"/>
      <point x="69.4000008106" y="652.699999273" type="line"/>
      <point x="237.100001037" y="653.399999261"/>
      <point x="262.800000906" y="724.800000548"/>
      <point x="262.800000906" y="871.500000894" type="curve" smooth="yes"/>
      <point x="262.800000906" y="1114.70000011" type="line" smooth="yes"/>
      <point x="262.800000906" y="1315.09999961"/>
      <point x="385.700000346" y="1391.10000032"/>
      <point x="616.199999452" y="1391.40000033" type="curve" smooth="yes"/>
      <point x="616.199999452" y="1228.00000179" type="line"/>
      <point x="487.199999332" y="1226.00000179"/>
      <point x="457.999998927" y="1184.80000138"/>
      <point x="457.999998927" y="1051.70000058" type="curve" smooth="yes"/>
      <point x="457.999998927" y="810.400000572" type="line"/>
      <point x="456.599998951" y="692.800000668"/>
      <point x="411.899999201" y="633.400000811"/>
      <point x="290.699998915" y="564.600000024" type="curve"/>
      <point x="403.899999201" y="532.099999964"/>
      <point x="458.299998939" y="443.299999297"/>
      <point x="457.999998927" y="328.599999547" type="curve" smooth="yes"/>
      <point x="457.999998927" y="86.1999995708" type="line" smooth="yes"/>
      <point x="457.999998927" y="-44.8000011444"/>
      <point x="485.599999309" y="-87.3000016809"/>
      <point x="616.199999452" y="-89.3000016809" type="curve"/>
    </contour>
  </outline>
</glyph>
<glyph name="bar" format="1">
  <advance width="486.199995279"/>
  <unicode hex="007C"/>
  <outline>
    <contour>
      <point x="166.799998164" y="-293.50000149" type="line"/>
      <point x="166.799998164" y="1456.30000001" type="line"/>
      <point x="331.499996722" y="1456.30000001" type="line"/>
      <point x="331.499996722" y="-293.50000149" type="line"/>
    </contour>
  </outline>
</glyph>
<glyph name="braceright" format="1">
  <advance width="710.437906781"/>
  <unicode hex="007D"/>
  <outline>
    <contour>
      <point x="91.7902057527" y="-250.735775772" type="line"/>
      <point x="324.979214781" y="-250.417121562"/>
      <point x="442.233046399" y="-174.660560571"/>
      <point x="442.233046399" y="23.5932710477" type="curve" smooth="yes"/>
      <point x="442.233046399" y="260.111326895" type="line" smooth="yes"/>
      <point x="442.233046399" y="408.033644762"/>
      <point x="473.178616418" y="483.492336763"/>
      <point x="636.463625866" y="483.492336763" type="curve"/>
      <point x="636.463625866" y="653.474018476" type="line"/>
      <point x="467.178616418" y="655.111326895"/>
      <point x="442.233046399" y="727.295402058"/>
      <point x="442.233046399" y="874.448299391" type="curve" smooth="yes"/>
      <point x="442.233046399" y="1095.07768213" type="line" smooth="yes"/>
      <point x="442.233046399" y="1310.70459794"/>
      <point x="331.538841067" y="1391.92231787"/>
      <point x="91.7902057527" y="1391.92231787" type="curve"/>
      <point x="91.7902057527" y="1231.75409406" type="line"/>
      <point x="222.614056267" y="1229.75409406"/>
      <point x="250.129645182" y="1185.73330884"/>
      <point x="250.129645182" y="1052.93271048" type="curve" smooth="yes"/>
      <point x="250.129645182" y="811.932710477" type="line"/>
      <point x="251.173682553" y="697.624448877"/>
      <point x="301.075215201" y="609.142504724"/>
      <point x="418.129645182" y="569.735775772" type="curve"/>
      <point x="299.207327315" y="506.518055847"/>
      <point x="250.129645182" y="447.341906362"/>
      <point x="250.129645182" y="328.528448457" type="curve" smooth="yes"/>
      <point x="250.129645182" y="85.8471026664" type="line" smooth="yes"/>
      <point x="250.129645182" y="-49.1840751627"/>
      <point x="220.976747848" y="-88.9742809154"/>
      <point x="91.7902057527" y="-90.9742809154" type="curve"/>
    </contour>
  </outline>
</glyph>
<glyph name="asciitilde" format="1">
  <advance width="1135.39999986"/>
  <unicode hex="007E"/>
  <outline>
    <contour>
      <point x="170.199998975" y="445.300000489" type="curve"/>
      <point x="105.69999975" y="561.999999642" type="line"/>
      <point x="150.599999666" y="660.399999738"/>
      <point x="230.099999726" y="741.599999666"/>
      <point x="360.299999416" y="741.599999666" type="curve" smooth="yes"/>
      <point x="436.799999356" y="741.599999666"/>
      <point x="506.099998891" y="717.999999762"/>
      <point x="589.599999189" y="681.399999619" type="curve" smooth="yes"/>
      <point x="672.799999356" y="645.199999571"/>
      <point x="737.999999642" y="617.599999309"/>
      <point x="790.69999975" y="617.599999309" type="curve" smooth="yes"/>
      <point x="861.899999917" y="617.599999309"/>
      <point x="928.600000143" y="666.399999857"/>
      <point x="986.399999499" y="747.599999785" type="curve"/>
      <point x="1050.29999894" y="636.800000668" type="line"/>
      <point x="1003.19999897" y="536.600000262"/>
      <point x="906.599999666" y="456.500000536"/>
      <point x="781.799999952" y="456.500000536" type="curve" smooth="yes"/>
      <point x="704.400000334" y="456.500000536"/>
      <point x="638.900000274" y="482.900000513"/>
      <point x="557.500000417" y="519.400000453" type="curve"/>
      <point x="478.399999857" y="555.800000668"/>
      <point x="418.999999523" y="582.000000834"/>
      <point x="354.399999499" y="582.000000834" type="curve" smooth="yes"/>
      <point x="274.299999416" y="582.000000834"/>
      <point x="209.499999106" y="518.300000727"/>
    </contour>
  </outline>
</glyph>
<glyph name="cent" format="1">
  <advance width="962.844635734"/>
  <unicode hex="00A2"/>
  <outline>
    <contour>
      <point x="523.899065715" y="-85.8104660928" type="line"/>
      <point x="619.020785219" y="-85.8104660928" type="line"/>
      <point x="619.020785219" y="104.039103506" type="line"/>
      <point x="709.559626286" y="111.083140878"/>
      <point x="791.207327315" y="140.401795087"/>
      <point x="853.152897334" y="191.269682973" type="curve"/>
      <point x="806.305794667" y="329.810990972" type="line"/>
      <point x="759.075215201" y="296.217719924"/>
      <point x="692.844635734" y="265.624448877"/>
      <point x="619.020785219" y="258.261757296" type="curve"/>
      <point x="619.020785219" y="980.376076003" type="line"/>
      <point x="686.196934705" y="972.925309679"/>
      <point x="753.196934705" y="949.386468612"/>
      <point x="804.580411505" y="914.420113374" type="curve"/>
      <point x="848.614056267" y="1051.59872979" type="line"/>
      <point x="793.668486248" y="1098.23603821"/>
      <point x="714.888673105" y="1128.14796347"/>
      <point x="619.020785219" y="1135.55469242" type="curve"/>
      <point x="619.020785219" y="1316.34736511" type="line"/>
      <point x="523.899065715" y="1316.34736511" type="line"/>
      <point x="523.899065715" y="1136.59872979" type="line"/>
      <point x="268.054429981" y="1115.04949612"/>
      <point x="91.8990657149" y="909.634841486"/>
      <point x="90.5804115054" y="627.533907201" type="curve"/>
      <point x="90.5804115054" y="338.938169221"/>
      <point x="254.515588915" y="128.039103506"/>
      <point x="523.899065715" y="104.039103506" type="curve"/>
    </contour>
    <contour>
      <point x="523.899065715" y="266.888673105" type="line"/>
      <point x="377.538841067" y="295.295402058"/>
      <point x="283.419588495" y="426.381009868"/>
      <point x="283.419588495" y="626.347365106" type="curve" smooth="yes"/>
      <point x="283.419588495" y="827.818916649"/>
      <point x="385.538841067" y="957.233571279"/>
      <point x="523.899065715" y="981.870879698" type="curve"/>
    </contour>
  </outline>
</glyph>
<glyph name="sterling" format="1">
  <advance width="1040.80000138"/>
  <unicode hex="00A3"/>
  <outline>
    <contour>
      <point x="90.5000007749" y="9.39999961853" type="line"/>
      <point x="80.900000751" y="167.199998379" type="line"/>
      <point x="243.200001001" y="185.799998283" type="line" smooth="yes"/>
      <point x="243.200001001" y="612.500000298" type="line"/>
      <point x="75.5000008941" y="612.500000298" type="line"/>
      <point x="75.5000008941" y="763.699999154" type="line"/>
      <point x="243.200001001" y="763.699999154" type="line"/>
      <point x="243.200001001" y="853.099999368" type="line"/>
      <point x="243.200001001" y="1134.39999926"/>
      <point x="329.0" y="1364.60000014"/>
      <point x="639.200000644" y="1364.60000014" type="curve" smooth="yes"/>
      <point x="777.10000056" y="1364.60000014"/>
      <point x="889.000000358" y="1314.60000014"/>
      <point x="975.200000167" y="1241.5000003" type="curve"/>
      <point x="888.600000858" y="1104.40000141" type="line"/>
      <point x="810.100000799" y="1161.30000156"/>
      <point x="735.300000608" y="1194.90000159"/>
      <point x="644.700000465" y="1194.90000159" type="curve" smooth="yes"/>
      <point x="491.699999392" y="1194.90000159"/>
      <point x="438.699999273" y="1089.40000057"/>
      <point x="438.699999273" y="918.999999404" type="curve" smooth="yes"/>
      <point x="438.699999273" y="763.699999154" type="line"/>
      <point x="797.299999893" y="763.699999154" type="line"/>
      <point x="797.299999893" y="612.900000274" type="line"/>
      <point x="438.699999273" y="612.900000274" type="line"/>
      <point x="438.699999273" y="187.099998295" type="line"/>
      <point x="991.100000083" y="187.099998295" type="line"/>
      <point x="982.399999976" y="9.39999961853" type="line"/>
    </contour>
  </outline>
</glyph>
<glyph name="currency" format="1">
  <advance width="1108.13510393"/>
  <unicode hex="00A4"/>
  <outline>
    <contour>
      <point x="957.940636154" y="210.637308419" type="line"/>
      <point x="1034.05196305" y="292.067289523" type="line"/>
      <point x="869.458692001" y="450.935177409" type="line"/>
      <point x="914.282542515" y="515.253831619"/>
      <point x="939.150430401" y="588.077682133"/>
      <point x="939.150430401" y="670.220186857" type="curve" smooth="yes"/>
      <point x="939.150430401" y="749.813457905"/>
      <point x="912.557159353" y="825.362691581"/>
      <point x="868.458692001" y="890.186542095" type="curve"/>
      <point x="1035.05196305" y="1049.77981314" type="line"/>
      <point x="957.940636154" y="1130.84710267" type="line"/>
      <point x="789.347365106" y="972.253831619" type="line"/>
      <point x="724.072748268" y="1024.44037371"/>
      <point x="646.974280915" y="1052.67095318"/>
      <point x="559.150430401" y="1052.67095318" type="curve" smooth="yes"/>
      <point x="472.689271468" y="1052.67095318"/>
      <point x="391.502729372" y="1024.03364476"/>
      <point x="327.634841486" y="973.935177409" type="curve"/>
      <point x="162.766953601" y="1130.84710267" type="line"/>
      <point x="80.9742809154" y="1051.41712156" type="line"/>
      <point x="249.523514592" y="890.186542095" type="line"/>
      <point x="204.381009868" y="824.549233676"/>
      <point x="178.513121982" y="750.406728952"/>
      <point x="178.513121982" y="670.220186857" type="curve" smooth="yes"/>
      <point x="178.513121982" y="589.033644762"/>
      <point x="205.425047239" y="514.484411085"/>
      <point x="249.523514592" y="450.935177409" type="curve"/>
      <point x="81.9742809154" y="291.341906362" type="line"/>
      <point x="162.766953601" y="211.637308419" type="line"/>
      <point x="326.590804115" y="368.186542095" type="line"/>
      <point x="391.502729372" y="316.362691581"/>
      <point x="470.326579887" y="288.769420533"/>
      <point x="559.150430401" y="288.769420533" type="curve" smooth="yes"/>
      <point x="646.611589334" y="288.769420533"/>
      <point x="725.116785639" y="318.406728952"/>
      <point x="789.347365106" y="368.549233676" type="curve"/>
    </contour>
    <contour>
      <point x="559.150430401" y="408.189009028" type="curve" smooth="yes"/>
      <point x="414.810990972" y="408.189009028"/>
      <point x="297.658093638" y="524.748635314"/>
      <point x="297.658093638" y="670.220186857" type="curve" smooth="yes"/>
      <point x="297.658093638" y="815.01039261"/>
      <point x="414.810990972" y="933.251364686"/>
      <point x="559.150430401" y="933.251364686" type="curve" smooth="yes"/>
      <point x="704.17121562" y="933.251364686"/>
      <point x="821.686804535" y="815.373084191"/>
      <point x="821.686804535" y="670.220186857" type="curve" smooth="yes"/>
      <point x="821.686804535" y="525.067289523"/>
      <point x="705.17121562" y="408.189009028"/>
    </contour>
  </outline>
</glyph>
<glyph name="yen" format="1">
  <advance width="1118.00000286"/>
  <unicode hex="00A5"/>
  <outline>
    <contour>
      <point x="449.300001442" y="0.0" type="line"/>
      <point x="660.599999785" y="0.0" type="line"/>
      <point x="660.599999785" y="267.500000417" type="line"/>
      <point x="965.099999607" y="267.500000417" type="line"/>
      <point x="965.099999607" y="403.699999273" type="line"/>
      <point x="660.599999785" y="403.699999273" type="line"/>
      <point x="660.599999785" y="539.000000477" type="line"/>
      <point x="964.499999583" y="539.000000477" type="line"/>
      <point x="964.499999583" y="670.099999487" type="line"/>
      <point x="722.520899385" y="670.099999487" type="line"/>
      <point x="1108.49999958" y="1341.40000021" type="line"/>
      <point x="886.300001562" y="1341.40000021" type="line"/>
      <point x="553.050300638" y="741.828398324" type="line"/>
      <point x="208.299999297" y="1341.40000021" type="line"/>
      <point x="-17.0999986529" y="1341.40000021" type="line"/>
      <point x="383.169701835" y="670.099999487" type="line"/>
      <point x="144.000001431" y="670.099999487" type="line"/>
      <point x="144.000001431" y="539.000000477" type="line"/>
      <point x="449.300001442" y="539.000000477" type="line"/>
      <point x="449.300001442" y="403.699999273" type="line"/>
      <point x="143.400001407" y="403.699999273" type="line"/>
      <point x="143.400001407" y="267.500000417" type="line"/>
      <point x="449.300001442" y="267.500000417" type="line"/>
    </contour>
  </outline>
</glyph>
<glyph name="brokenbar" format="1">
  <advance width="550.299993336"/>
  <unicode hex="00A6"/>
  <outline>
    <contour>
      <point x="196.699997246" y="-349.900000513" type="line"/>
      <point x="196.699997246" y="306.699999034" type="line"/>
      <point x="361.699995816" y="306.699999034" type="line"/>
      <point x="361.699995816" y="-349.900000513" type="line"/>
    </contour>
    <contour>
      <point x="196.699997246" y="766.300001085" type="line"/>
      <point x="196.699997246" y="1421.30000061" type="line"/>
      <point x="361.699995816" y="1421.30000061" type="line"/>
      <point x="361.699995816" y="766.300001085" type="line"/>
    </contour>
  </outline>
</glyph>
<glyph name="dieresis" format="1">
  <advance width="690.100000441"/>
  <unicode hex="00A8"/>
  <outline>
    <contour>
      <point x="86.1000009179" y="1129.80000043" type="line"/>
      <point x="252.199999809" y="1129.80000043" type="line"/>
      <point x="252.199999809" y="1348.9999994" type="line"/>
      <point x="86.1000009179" y="1348.9999994" type="line"/>
    </contour>
    <contour>
      <point x="451.000000477" y="1129.80000043" type="line"/>
      <point x="616.699999392" y="1129.80000043" type="line"/>
      <point x="616.699999392" y="1348.9999994" type="line"/>
      <point x="451.000000477" y="1348.9999994" type="line"/>
    </contour>
  </outline>
</glyph>
<glyph name="copyright" format="1">
  <advance width="1610.11431871"/>
  <unicode hex="00A9"/>
  <outline>
    <contour>
      <point x="800.743701449" y="241.417121562" type="curve" smooth="yes"/>
      <point x="911.974280915" y="241.417121562"/>
      <point x="1018.76448667" y="271.603663657"/>
      <point x="1086.30332773" y="315.417121562" type="curve"/>
      <point x="1044.63237455" y="418.362691581" type="line"/>
      <point x="988.324112954" y="381.955962629"/>
      <point x="893.445832459" y="356.220186857"/>
      <point x="817.248897754" y="356.220186857" type="curve" smooth="yes"/>
      <point x="615.614056267" y="356.220186857"/>
      <point x="510.437906781" y="500.70213101"/>
      <point x="510.437906781" y="699.71252362" type="curve" smooth="yes"/>
      <point x="510.437906781" y="891.525981524"/>
      <point x="611.746168381" y="1041.55715935"/>
      <point x="805.963888306" y="1041.55715935" type="curve" smooth="yes"/>
      <point x="882.47947722" y="1041.55715935"/>
      <point x="970.533907201" y="1020.96388831"/>
      <point x="1030.07274827" y="982.007925677" type="curve"/>
      <point x="1084.34736511" y="1079.49233676" type="line"/>
      <point x="1009.71005669" y="1130.44829939"/>
      <point x="915.116785639" y="1157.99753307"/>
      <point x="806.116785639" y="1157.99753307" type="curve" smooth="yes"/>
      <point x="547.963888306" y="1157.99753307"/>
      <point x="375.458692001" y="957.678878858"/>
      <point x="375.458692001" y="697.481944153" type="curve" smooth="yes"/>
      <point x="375.458692001" y="434.108859962"/>
      <point x="554.689271468" y="241.417121562"/>
    </contour>
    <contour>
      <point x="802.865420953" y="83.1449716565" type="curve" smooth="yes"/>
      <point x="436.132112114" y="83.1449716565"/>
      <point x="207.427514172" y="359.98960739"/>
      <point x="207.427514172" y="701.064822591" type="curve" smooth="yes"/>
      <point x="207.427514172" y="1037.27214991"/>
      <point x="436.132112114" y="1316.11678564"/>
      <point x="800.272149906" y="1316.11678564" type="curve" smooth="yes"/>
      <point x="1178.65315977" y="1316.11678564"/>
      <point x="1407.03910351" y="1036.63484149"/>
      <point x="1407.03910351" y="698.152897334" type="curve" smooth="yes"/>
      <point x="1407.03910351" y="359.033644762"/>
      <point x="1180.29046819" y="83.1449716565"/>
    </contour>
    <contour>
      <point x="802.865420953" y="-12.7461683813" type="curve" smooth="yes"/>
      <point x="1181.22811253" y="-12.7461683813"/>
      <point x="1518.52351459" y="251.22265379"/>
      <point x="1518.52351459" y="700.108859962" type="curve" smooth="yes"/>
      <point x="1518.52351459" y="1147.03910351"/>
      <point x="1178.27214991" y="1411.73330884"/>
      <point x="800.272149906" y="1411.73330884" type="curve" smooth="yes"/>
      <point x="435.150430401" y="1411.73330884"/>
      <point x="95.5804115054" y="1148.67641193"/>
      <point x="95.5804115054" y="700.108859962" type="curve" smooth="yes"/>
      <point x="95.5804115054" y="251.22265379"/>
      <point x="437.743701449" y="-12.7461683813"/>
    </contour>
  </outline>
</glyph>
<glyph name="ordfeminine" format="1">
  <advance width="712.754094058"/>
  <unicode hex="00AA"/>
  <outline>
    <contour>
      <point x="301.821383582" y="720.733308839" type="curve" smooth="yes"/>
      <point x="376.513121982" y="720.733308839"/>
      <point x="445.041570439" y="754.601196725"/>
      <point x="483.536374134" y="804.699664077" type="curve"/>
      <point x="491.119252572" y="736.557159353" type="line"/>
      <point x="612.274616838" y="736.557159353" type="line"/>
      <point x="609.406728952" y="780.531440269"/>
      <point x="608.362691581" y="847.919850934"/>
      <point x="608.362691581" y="855.699664077" type="curve" smooth="yes"/>
      <point x="609.637308419" y="1184.67887886" type="line" smooth="yes"/>
      <point x="609.637308419" y="1353.99753307"/>
      <point x="501.285009448" y="1417.14003779"/>
      <point x="375.844635734" y="1417.14003779" type="curve" smooth="yes"/>
      <point x="278.020785219" y="1417.14003779"/>
      <point x="184.668486248" y="1391.18407516"/>
      <point x="109.590804115" y="1323.60366366" type="curve"/>
      <point x="160.689271468" y="1231.86542095" type="line"/>
      <point x="236.580411505" y="1288.25929036"/>
      <point x="304.481944153" y="1297.47947722"/>
      <point x="366.580411505" y="1297.47947722" type="curve" smooth="yes"/>
      <point x="447.09600042" y="1297.47947722"/>
      <point x="474.502729372" y="1260.55715935"/>
      <point x="476.458692001" y="1162.99753307" type="curve"/>
      <point x="476.458692001" y="1145.22811253" type="line"/>
      <point x="283.823850514" y="1129.14003779"/>
      <point x="96.9638883057" y="1106.40426202"/>
      <point x="96.9638883057" y="922.601196725" type="curve" smooth="yes"/>
      <point x="96.9638883057" y="794.78773882"/>
      <point x="187.590804115" y="720.733308839"/>
    </contour>
    <contour>
      <point x="114.71252362" y="534.754094058" type="line"/>
      <point x="620.966355238" y="534.754094058" type="line"/>
      <point x="620.966355238" y="644.140037791" type="line"/>
      <point x="114.71252362" y="644.140037791" type="line"/>
    </contour>
    <contour>
      <point x="318.821383582" y="834.031177829" type="curve" smooth="yes"/>
      <point x="265.207327315" y="834.031177829"/>
      <point x="227.285009448" y="858.855028343"/>
      <point x="227.285009448" y="920.601196725" type="curve" smooth="yes"/>
      <point x="227.285009448" y="1022.36815033"/>
      <point x="351.072748268" y="1028.94063615"/>
      <point x="476.458692001" y="1044.11678564" type="curve"/>
      <point x="476.458692001" y="990.256823431" type="line"/>
      <point x="454.445832459" y="902.401795087"/>
      <point x="403.456225068" y="834.031177829"/>
    </contour>
  </outline>
</glyph>
<glyph name="guillemotleft" format="1">
  <advance width="944.176149486"/>
  <unicode hex="00AB"/>
  <outline>
    <contour>
      <point x="354.196934705" y="128.603663657" type="line"/>
      <point x="513.727850094" y="170.450766324" type="line"/>
      <point x="269.365158514" y="514.857495276" type="line"/>
      <point x="518.002466933" y="858.033644762" type="line"/>
      <point x="357.196934705" y="899.518055847" type="line"/>
      <point x="85.6140562671" y="530.748635314" type="line"/>
      <point x="90.8654209532" y="487.748635314" type="line"/>
    </contour>
    <contour>
      <point x="711.494803695" y="128.603663657" type="line"/>
      <point x="863.652634894" y="170.450766324" type="line"/>
      <point x="625.981681713" y="514.857495276" type="line"/>
      <point x="867.015326475" y="858.033644762" type="line"/>
      <point x="713.494803695" y="899.518055847" type="line"/>
      <point x="429.735775772" y="516.0" type="line"/>
    </contour>
  </outline>
</glyph>
<glyph name="logicalnot" format="1">
  <advance width="1128.39999998"/>
  <unicode hex="00AC"/>
  <outline>
    <contour>
      <point x="864.100000918" y="232.900000155" type="line"/>
      <point x="1018.99999952" y="232.900000155" type="line"/>
      <point x="1018.99999952" y="761.099999607" type="line"/>
      <point x="108.699999869" y="761.099999607" type="line"/>
      <point x="108.699999869" y="599.800000787" type="line"/>
      <point x="864.100000918" y="599.800000787" type="line"/>
    </contour>
  </outline>
</glyph>
<glyph name="uni00AD" format="1">
  <advance width="768.308786479"/>
  <unicode hex="00AD"/>
  <outline>
    <contour>
      <point x="81.7125236196" y="278.258765484" type="line"/>
      <point x="696.904524459" y="278.258765484" type="line"/>
      <point x="696.904524459" y="445.206802435" type="line"/>
      <point x="81.7125236196" y="445.206802435" type="line"/>
    </contour>
  </outline>
</glyph>
<glyph name="registered" format="1">
  <advance width="1601.00000298"/>
  <unicode hex="00AE"/>
  <outline>
    <contour>
      <point x="520.900001347" y="262.400000453" type="line"/>
      <point x="653.200000644" y="262.400000453" type="line"/>
      <point x="653.200000644" y="651.500001252" type="line"/>
      <point x="811.700002134" y="651.500001252" type="line"/>
      <point x="832.700001776" y="630.500001609"/>
      <point x="1015.10000223" y="262.400000453"/>
      <point x="1015.10000223" y="262.400000453" type="curve"/>
      <point x="1163.10000139" y="262.400000453" type="line"/>
      <point x="1163.10000139" y="262.400000453"/>
      <point x="979.300000846" y="619.400002003"/>
      <point x="941.50000149" y="669.800001144" type="curve"/>
      <point x="1072.20000136" y="695.100000799"/>
      <point x="1125.30000156" y="774.600000978"/>
      <point x="1125.30000156" y="903.100001037" type="curve" smooth="yes"/>
      <point x="1125.30000156" y="1070.90000075"/>
      <point x="1018.3000024" y="1140.30000085"/>
      <point x="816.600001693" y="1140.30000085" type="curve" smooth="yes"/>
      <point x="520.900001347" y="1140.30000085" type="line"/>
    </contour>
    <contour>
      <point x="652.800000668" y="767.60000062" type="line"/>
      <point x="652.800000668" y="1024.90000147" type="line"/>
      <point x="787.900002062" y="1024.90000147" type="line" smooth="yes"/>
      <point x="933.300002396" y="1024.90000147"/>
      <point x="994.100002348" y="1014.90000123"/>
      <point x="994.100002348" y="900.200001001" type="curve" smooth="yes"/>
      <point x="994.100002348" y="794.700001061"/>
      <point x="937.600002766" y="767.60000062"/>
      <point x="807.900002539" y="767.60000062" type="curve" smooth="yes"/>
    </contour>
    <contour>
      <point x="804.800001383" y="85.7999991179" type="curve" smooth="yes"/>
      <point x="478.00000155" y="85.7999991179"/>
      <point x="206.700000465" y="330.099998534"/>
      <point x="206.700000465" y="693.700000226" type="curve" smooth="yes"/>
      <point x="206.700000465" y="1055.90000194"/>
      <point x="477.300001562" y="1301.60000134"/>
      <point x="804.100001395" y="1301.60000134" type="curve" smooth="yes"/>
      <point x="1133.70000118" y="1301.60000134"/>
      <point x="1404.80000234" y="1055.60000193"/>
      <point x="1404.80000234" y="693.000000238" type="curve" smooth="yes"/>
      <point x="1404.80000234" y="330.399998546"/>
      <point x="1133.70000118" y="85.7999991179"/>
    </contour>
    <contour>
      <point x="804.800001383" y="-11.1000004411" type="curve" smooth="yes"/>
      <point x="1177.00000119" y="-11.1000004411"/>
      <point x="1518.50000197" y="258.599998951"/>
      <point x="1518.50000197" y="693.700000226" type="curve" smooth="yes"/>
      <point x="1518.50000197" y="1128.10000151"/>
      <point x="1176.3000012" y="1399.50000089"/>
      <point x="804.100001395" y="1399.50000089" type="curve" smooth="yes"/>
      <point x="433.300001562" y="1399.50000089"/>
      <point x="93.0000008345" y="1128.8000015"/>
      <point x="93.0000008345" y="693.700000226" type="curve" smooth="yes"/>
      <point x="93.0000008345" y="258.599998951"/>
      <point x="434.00000155" y="-11.1000004411"/>
    </contour>
  </outline>
</glyph>
<glyph name="degree" format="1">
  <advance width="758.196934705"/>
  <unicode hex="00B0"/>
  <outline>
    <contour>
      <point x="382.725383162" y="913.735775772" type="curve" smooth="yes"/>
      <point x="299.341906362" y="913.735775772"/>
      <point x="226.28747638" y="980.437906781"/>
      <point x="226.28747638" y="1075.89906571" type="curve" smooth="yes"/>
      <point x="226.28747638" y="1169.99753307"/>
      <point x="299.979214781" y="1234.3369725"/>
      <point x="383.406728952" y="1234.3369725" type="curve" smooth="yes"/>
      <point x="466.427514172" y="1234.3369725"/>
      <point x="538.437906781" y="1169.99753307"/>
      <point x="538.437906781" y="1075.89906571" type="curve" smooth="yes"/>
      <point x="538.437906781" y="981.075215201"/>
      <point x="466.427514172" y="913.735775772"/>
    </contour>
    <contour>
      <point x="382.406728952" y="792.481944153" type="curve" smooth="yes"/>
      <point x="553.748635314" y="792.481944153"/>
      <point x="668.538841067" y="929.932710477"/>
      <point x="668.538841067" y="1078.03117783" type="curve" smooth="yes"/>
      <point x="668.538841067" y="1230.44829939"/>
      <point x="549.385943733" y="1358.44829939"/>
      <point x="382.406728952" y="1358.44829939" type="curve" smooth="yes"/>
      <point x="214.658093638" y="1358.44829939"/>
      <point x="95.8678878858" y="1230.44829939"/>
      <point x="95.8678878858" y="1078.03117783" type="curve" smooth="yes"/>
      <point x="95.8678878858" y="926.70213101"/>
      <point x="213.251364686" y="792.481944153"/>
    </contour>
  </outline>
</glyph>
<glyph name="plusminus" format="1">
  <advance width="1118.3999995"/>
  <unicode hex="00B1"/>
  <outline>
    <contour>
      <point x="131.199999571" y="0.0" type="line"/>
      <point x="131.199999571" y="147.599998832" type="line"/>
      <point x="999.099999726" y="147.599998832" type="line"/>
      <point x="999.099999726" y="0.0" type="line"/>
    </contour>
    <contour>
      <point x="480.900000155" y="221.199999213" type="line"/>
      <point x="642.499998868" y="221.199999213" type="line"/>
      <point x="642.499998868" y="568.099999726" type="line"/>
      <point x="980.799998999" y="568.099999726" type="line"/>
      <point x="980.799998999" y="729.399998188" type="line"/>
      <point x="641.799998879" y="729.399998188" type="line"/>
      <point x="641.799998879" y="1068.2999987" type="line"/>
      <point x="480.900000155" y="1068.2999987" type="line"/>
      <point x="480.900000155" y="729.399998188" type="line"/>
      <point x="139.899999917" y="729.399998188" type="line"/>
      <point x="139.899999917" y="568.099999726" type="line"/>
      <point x="480.900000155" y="568.099999726" type="line"/>
    </contour>
  </outline>
</glyph>
<glyph name="paragraph" format="1">
  <advance width="1048.29999977"/>
  <unicode hex="00B6"/>
  <outline>
    <contour>
      <point x="406.900001585" y="-139.100000203" type="line"/>
      <point x="556.200000048" y="-139.100000203" type="line"/>
      <point x="556.200000048" y="1244.10000223" type="line"/>
      <point x="719.500001609" y="1244.10000223" type="line"/>
      <point x="719.500001609" y="-139.100000203" type="line"/>
      <point x="854.500000298" y="-139.100000203" type="line"/>
      <point x="854.500000298" y="1244.10000223" type="line"/>
      <point x="924.800000191" y="1244.10000223" type="line"/>
      <point x="924.800000191" y="1390.3000012" type="line"/>
      <point x="522.099999249" y="1390.3000012" type="line" smooth="yes"/>
      <point x="242.899998605" y="1390.3000012"/>
      <point x="81.4000006914" y="1269.39999974"/>
      <point x="81.4000006914" y="1069.30000132" type="curve" smooth="yes"/>
      <point x="81.4000006914" y="900.300001562"/>
      <point x="214.800001144" y="749.500001013"/>
      <point x="406.900001585" y="737.700001299" type="curve"/>
    </contour>
  </outline>
</glyph>
<glyph name="cedilla" format="1">
  <advance width="529.614056267"/>
  <unicode hex="00B8"/>
  <outline>
    <contour>
      <point x="186.581644972" y="0.0" type="move" name="_bottom"/>
    </contour>
    <contour>
      <point x="78.5027293722" y="-337.150430401" type="line"/>
      <point x="248.945570019" y="-337.150430401" type="line"/>
      <point x="294.979214781" y="36.1009342851" type="line"/>
      <point x="186.536374134" y="36.1009342851" type="line"/>
    </contour>
  </outline>
</glyph>
<glyph name="guillemotright" format="1">
  <advance width="990.799998641"/>
  <unicode hex="00BB"/>
  <outline>
    <contour>
      <point x="260.099998772" y="128.100000322" type="line"/>
      <point x="544.699998438" y="512.999999642" type="line"/>
      <point x="261.099998772" y="900.599999309" type="line"/>
      <point x="105.600000501" y="858.499999702" type="line"/>
      <point x="345.700000226" y="515.099999845" type="line"/>
      <point x="104.200000525" y="170.599999905" type="line"/>
    </contour>
    <contour>
      <point x="627.799998283" y="128.100000322" type="line"/>
      <point x="907.499997675" y="512.999999642" type="line"/>
      <point x="630.799998283" y="900.599999309" type="line"/>
      <point x="471.599999785" y="858.499999702" type="line"/>
      <point x="713.299999774" y="515.099999845" type="line"/>
      <point x="467.299999774" y="170.599999905" type="line"/>
    </contour>
  </outline>
</glyph>
<glyph name="threequarters" format="1">
  <advance width="1508.7669536"/>
  <unicode hex="00BE"/>
  <outline>
    <contour>
      <point x="313.505196305" y="568.373084191" type="curve" smooth="yes"/>
      <point x="451.538841067" y="568.373084191"/>
      <point x="584.440373714" y="656.108859962"/>
      <point x="584.440373714" y="813.417121562" type="curve" smooth="yes"/>
      <point x="584.440373714" y="901.746168381"/>
      <point x="536.264224228" y="965.471551543"/>
      <point x="468.023252152" y="999.70213101" type="curve"/>
      <point x="541.826317447" y="1038.15289733"/>
      <point x="566.440373714" y="1113.04403737"/>
      <point x="566.440373714" y="1161.63484149" type="curve" smooth="yes"/>
      <point x="566.440373714" y="1306.44829939"/>
      <point x="439.714990552" y="1381.37061726"/>
      <point x="320.362691581" y="1381.37061726" type="curve" smooth="yes"/>
      <point x="236.285009448" y="1381.37061726"/>
      <point x="151.437906781" y="1343.63484149"/>
      <point x="96.4042620197" y="1288.08560781" type="curve"/>
      <point x="151.614056267" y="1186.37061726" type="line"/>
      <point x="193.349832039" y="1222.88620617"/>
      <point x="253.922317867" y="1251.34736511"/>
      <point x="314.054429981" y="1251.34736511" type="curve" smooth="yes"/>
      <point x="380.054429981" y="1251.34736511"/>
      <point x="419.207327315" y="1218.75409406"/>
      <point x="419.207327315" y="1157.86542095" type="curve" smooth="yes"/>
      <point x="419.207327315" y="1088.15289733"/>
      <point x="368.769420533" y="1056.06482259"/>
      <point x="274.274616838" y="1056.06482259" type="curve" smooth="yes"/>
      <point x="216.580411505" y="1056.06482259" type="line"/>
      <point x="216.580411505" y="928.448299391" type="line"/>
      <point x="275.823850514" y="928.810990972" type="line"/>
      <point x="378.966355238" y="928.810990972"/>
      <point x="439.888673105" y="897.261757296"/>
      <point x="439.888673105" y="816.373084191" type="curve" smooth="yes"/>
      <point x="439.888673105" y="738.362691581"/>
      <point x="382.735775772" y="694.847102666"/>
      <point x="307.461158933" y="694.847102666" type="curve" smooth="yes"/>
      <point x="254.329046819" y="694.847102666"/>
      <point x="193.943103086" y="717.98960739"/>
      <point x="151.481944153" y="761.230579467" type="curve"/>
      <point x="99.9431030863" y="653.525981524" type="line"/>
      <point x="158.658093638" y="597.515588915"/>
      <point x="235.054429981" y="568.373084191"/>
    </contour>
    <contour>
      <point x="1205.7669536" y="30.1528973336" type="line"/>
      <point x="1330.03364476" y="30.1528973336" type="line"/>
      <point x="1330.71499055" y="202.261757296" type="line"/>
      <point x="1430.6165232" y="202.261757296" type="line"/>
      <point x="1425.11132689" y="323.735775772" type="line"/>
      <point x="1331.71499055" y="323.735775772" type="line"/>
      <point x="1331.71499055" y="820.955962629" type="line"/>
      <point x="1194.81099097" y="820.955962629" type="line"/>
      <point x="849.129645182" y="314.450766324" type="line"/>
      <point x="849.129645182" y="202.261757296" type="line"/>
      <point x="1205.7669536" y="202.261757296" type="line"/>
    </contour>
    <contour>
      <point x="278.974280915" y="8.80306529498" type="line"/>
      <point x="437.406728952" y="8.80306529498" type="line"/>
      <point x="1309.71745748" y="1379.18407516" type="line"/>
      <point x="1149.0" y="1379.18407516" type="line"/>
    </contour>
    <contour>
      <point x="1008.48441109" y="323.735775772" type="line"/>
      <point x="1205.04157044" y="617.699664077" type="line"/>
      <point x="1204.08560781" y="573.725383162"/>
      <point x="1203.44829939" y="394.795664497"/>
      <point x="1203.12964518" y="323.735775772" type="curve"/>
    </contour>
  </outline>
</glyph>
<glyph name="AE" format="1">
  <advance width="1857.47701029"/>
  <unicode hex="00C6"/>
  <outline>
    <contour>
      <point x="928.919850934" y="429.864528658" type="move" name="top"/>
    </contour>
    <contour>
      <point x="57.0960004199" y="0.0" type="line"/>
      <point x="274.256298551" y="0.0" type="line"/>
      <point x="475.562093219" y="362.997533067" type="line"/>
      <point x="1006.13757086" y="362.997533067" type="line"/>
      <point x="1033.45622507" y="0.0" type="line"/>
      <point x="1757.11678564" y="0.0" type="line"/>
      <point x="1763.1504304" y="167.551700609" type="line"/>
      <point x="1224.82385051" y="167.551700609" type="line"/>
      <point x="1188.63730842" y="627.370617258" type="line"/>
      <point x="1705.34736511" y="627.370617258" type="line"/>
      <point x="1705.34736511" y="794.559626286" type="line"/>
      <point x="1169.59327105" y="794.559626286" type="line"/>
      <point x="1138.13211211" y="1225.04949612" type="line"/>
      <point x="1732.40179509" y="1225.04949612" type="line"/>
      <point x="1739.47947722" y="1392.91985093" type="line"/>
      <point x="856.839701869" y="1392.91985093" type="line"/>
    </contour>
    <contour>
      <point x="559.365158514" y="537.044037371" type="line"/>
      <point x="938.303327735" y="1189.92530968" type="line"/>
      <point x="987.906991392" y="537.044037371" type="line"/>
    </contour>
  </outline>
</glyph>
<glyph name="Eth" format="1">
  <advance width="1418.90000314"/>
  <unicode hex="00D0"/>
  <outline>
    <contour>
      <point x="376.000000358" y="176.199998617" type="line"/>
      <point x="482.200004578" y="441.499994099" type="line"/>
      <point x="590.200008869" y="441.499994099"/>
      <point x="779.600009441" y="496.699996293"/>
      <point x="779.600009441" y="613.100000918" type="curve"/>
      <point x="779.600009441" y="756.200006604"/>
      <point x="690.500005901" y="923.200006008"/>
      <point x="575.600001335" y="923.200006008" type="curve"/>
      <point x="376.000000358" y="923.200006008" type="line"/>
      <point x="376.000000358" y="1018.59999537" type="line"/>
      <point x="534.100001991" y="1018.59999537" type="line" smooth="yes"/>
      <point x="784.699997723" y="1018.59999537"/>
      <point x="914.199995518" y="916.399995685"/>
      <point x="914.199995518" y="667.199999928" type="curve" smooth="yes"/>
      <point x="914.199995518" y="459.300003469"/>
      <point x="722.499994457" y="346.600005388"/>
      <point x="514.599997997" y="346.600005388" type="curve" smooth="yes"/>
    </contour>
    <contour>
      <point x="169.40000236" y="0.399999976158" type="line"/>
      <point x="476.699997127" y="200.500007927" type="line" smooth="yes"/>
      <point x="781.199991941" y="200.500007927"/>
      <point x="962.799987078" y="360.800005198"/>
      <point x="962.799987078" y="667.399999976" type="curve" smooth="yes"/>
      <point x="962.799987078" y="1013.89999408"/>
      <point x="724.799991131" y="1162.99999297"/>
      <point x="388.099996865" y="1162.99999297" type="curve" smooth="yes"/>
      <point x="169.40000236" y="1162.99999297" type="line"/>
      <point x="169.40000236" y="950.100007236" type="line"/>
      <point x="188.900007546" y="950.100007236" type="line"/>
      <point x="327.500013053" y="950.100007236"/>
      <point x="431.000017166" y="775.900007546"/>
      <point x="431.000017166" y="612.700001061" type="curve"/>
      <point x="431.000017166" y="473.799995542"/>
      <point x="424.700012505" y="409.899993002"/>
      <point x="296.900007427" y="409.899993002" type="curve"/>
    </contour>
  </outline>
</glyph>
<glyph name="multiply" format="1">
  <advance width="1067.09999353"/>
  <unicode hex="00D7"/>
  <outline>
    <contour>
      <point x="288.399996638" y="147.400000691" type="line"/>
      <point x="544.799996257" y="423.400001049" type="line"/>
      <point x="799.799995899" y="147.400000691" type="line"/>
      <point x="915.599995136" y="262.399999619" type="line"/>
      <point x="915.599995136" y="262.399999619"/>
      <point x="686.299993813" y="511.400001526"/>
      <point x="655.499995172" y="544.000000238" type="curve"/>
      <point x="915.599995136" y="828.500000775" type="line"/>
      <point x="800.599995971" y="940.999999762" type="line"/>
      <point x="544.799996257" y="663.599999428" type="line"/>
      <point x="287.199996591" y="940.999999762" type="line"/>
      <point x="174.099997342" y="828.900000751" type="line"/>
      <point x="432.699997365" y="544.000000238" type="line"/>
      <point x="174.099997342" y="261.999999642" type="line"/>
    </contour>
  </outline>
</glyph>
<glyph name="Oslash" format="1">
  <advance width="1504.78527189"/>
  <unicode hex="00D8"/>
  <outline>
    <contour>
      <point x="752.733308839" y="429.864528658" type="move" name="top"/>
    </contour>
    <contour>
      <point x="468.513121982" y="-171.033644762" type="line"/>
      <point x="543.228112534" y="7.45076632375" type="line"/>
      <point x="608.634841486" y="-11.2305794667"/>
      <point x="678.997533067" y="-20.5492336763"/>
      <point x="755.272149906" y="-20.5492336763" type="curve" smooth="yes"/>
      <point x="1171.76448667" y="-20.5492336763"/>
      <point x="1418.59080412" y="266.119252572"/>
      <point x="1418.59080412" y="692.888673105" type="curve" smooth="yes"/>
      <point x="1418.59080412" y="995.899065715"/>
      <point x="1300.32657989" y="1217.86542095"/>
      <point x="1096.22811253" y="1330.73330884" type="curve"/>
      <point x="1173.36022465" y="1517.86542095" type="line"/>
      <point x="1057.89906571" y="1560.59080412" type="line"/>
      <point x="982.997533067" y="1379.37061726" type="line"/>
      <point x="913.272149906" y="1400.73330884"/>
      <point x="838.360224648" y="1411.73330884"/>
      <point x="757.041570439" y="1411.73330884" type="curve" smooth="yes"/>
      <point x="350.922317867" y="1411.73330884"/>
      <point x="93.0415704388" y="1136.66848625"/>
      <point x="93.0415704388" y="693.932710477" type="curve" smooth="yes"/>
      <point x="93.0415704388" y="394.064822591"/>
      <point x="215.437906781" y="161.637308419"/>
      <point x="433.360224648" y="50.8134579047" type="curve"/>
      <point x="358.733308839" y="-129.220186857" type="line"/>
    </contour>
    <contour>
      <point x="509.3834768" y="240.398803275" type="line"/>
      <point x="372.847102666" y="328.727850094"/>
      <point x="306.056896914" y="496.264224228"/>
      <point x="306.056896914" y="698.888673105" type="curve" smooth="yes"/>
      <point x="306.056896914" y="996.919850934"/>
      <point x="454.945570019" y="1223.64276716"/>
      <point x="756.360224648" y="1223.64276716" type="curve" smooth="yes"/>
      <point x="813.09600042" y="1223.64276716"/>
      <point x="865.282542515" y="1215.64276716"/>
      <point x="909.655626706" y="1201.04949612" type="curve"/>
    </contour>
    <contour>
      <point x="756.360224648" y="164.365158514" type="curve" smooth="yes"/>
      <point x="704.899065715" y="164.365158514"/>
      <point x="658.305794667" y="170.727850094"/>
      <point x="617.888673105" y="183.002466933" type="curve"/>
      <point x="1018.47947722" y="1137.97181398" type="line"/>
      <point x="1145.19200084" y="1046.36815033"/>
      <point x="1206.70758975" y="883.974280915"/>
      <point x="1206.70758975" y="691.492336763" type="curve" smooth="yes"/>
      <point x="1206.70758975" y="388.230579467"/>
      <point x="1059.36815033" y="164.365158514"/>
    </contour>
  </outline>
</glyph>
<glyph name="Thorn" format="1">
  <advance width="1191.40426202"/>
  <unicode hex="00DE"/>
  <outline>
    <contour>
      <point x="143.440373714" y="7.39633634264" type="line"/>
      <point x="329.849569599" y="7.39633634264" type="line"/>
      <point x="329.849569599" y="314.823850514" type="line"/>
      <point x="353.214728113" y="314.823850514"/>
      <point x="646.823850514" y="310.637308419"/>
      <point x="651.6917384" y="310.637308419" type="curve" smooth="yes"/>
      <point x="951.40426202" y="310.637308419"/>
      <point x="1119.28747638" y="466.746168381"/>
      <point x="1119.28747638" y="720.0" type="curve" smooth="yes"/>
      <point x="1119.28747638" y="1011.85749528"/>
      <point x="914.6917384" y="1115.80306529"/>
      <point x="601.209794247" y="1115.80306529" type="curve" smooth="yes"/>
      <point x="329.849569599" y="1115.80306529" type="line"/>
      <point x="329.849569599" y="1344.48194415" type="line"/>
      <point x="143.440373714" y="1344.48194415" type="line"/>
    </contour>
    <contour>
      <point x="330.21226118" y="475.365158514" type="line"/>
      <point x="329.849569599" y="959.70213101" type="line"/>
      <point x="619.253831619" y="959.70213101" type="line" smooth="yes"/>
      <point x="843.075215201" y="959.70213101"/>
      <point x="936.614056267" y="886.779813143"/>
      <point x="936.614056267" y="717.98960739" type="curve" smooth="yes"/>
      <point x="936.614056267" y="571.935177409"/>
      <point x="852.129645182" y="475.365158514"/>
      <point x="651.264224228" y="475.365158514" type="curve" smooth="yes"/>
    </contour>
  </outline>
</glyph>
<glyph name="germandbls" format="1">
  <advance width="1144.2999993"/>
  <unicode hex="00DF"/>
  <outline>
    <contour>
      <point x="354.199998975" y="0.0" type="line"/>
      <point x="145.700000584" y="0.0" type="line"/>
      <point x="145.700000584" y="939.400000215" type="line" smooth="yes"/>
      <point x="145.700000584" y="1208.00000024"/>
      <point x="282.49999994" y="1370.5000003"/>
      <point x="560.399999976" y="1370.5000003" type="curve" smooth="yes"/>
      <point x="773.299999893" y="1370.5000003"/>
      <point x="941.699998915" y="1267.19999993"/>
      <point x="941.699998915" y="1069.60000062" type="curve" smooth="yes"/>
      <point x="941.699998915" y="853.70000118"/>
      <point x="763.599998355" y="787.800000072"/>
      <point x="763.599998355" y="712.999999762" type="curve" smooth="yes"/>
      <point x="763.599998355" y="614.620299468"/>
      <point x="1103.6999988" y="563.38469938"/>
      <point x="1103.6999988" y="281.69999963" type="curve" smooth="yes"/>
      <point x="1103.6999988" y="92.9000000358"/>
      <point x="977.699999154" y="-20.0999999642"/>
      <point x="778.099999487" y="-20.0999999642" type="curve" smooth="yes"/>
      <point x="675.799998999" y="-20.0999999642"/>
      <point x="566.499998748" y="7.30000025034"/>
      <point x="470.999999404" y="48.3000001311" type="curve"/>
      <point x="522.09999913" y="197.799999118" type="line"/>
      <point x="566.799999356" y="174.499998987"/>
      <point x="654.299999535" y="143.199998856"/>
      <point x="741.200000048" y="143.199998856" type="curve" smooth="yes"/>
      <point x="835.800000787" y="143.199998856"/>
      <point x="894.900000513" y="193.299999654"/>
      <point x="894.900000513" y="285.299999416" type="curve" smooth="yes"/>
      <point x="894.900000513" y="466.463799899"/>
      <point x="562.100000083" y="514.787299872"/>
      <point x="562.100000083" y="691.699999988" type="curve" smooth="yes"/>
      <point x="562.100000083" y="846.49999994"/>
      <point x="748.700000226" y="895.300000131"/>
      <point x="749.000000238" y="1064.30000073" type="curve" smooth="yes"/>
      <point x="749.161700245" y="1152.6000011"/>
      <point x="682.80000031" y="1212.8000015"/>
      <point x="570.199999809" y="1212.8000015" type="curve" smooth="yes"/>
      <point x="409.39999938" y="1212.8000015"/>
      <point x="354.199998975" y="1122.30000156"/>
      <point x="354.199998975" y="938.600000381" type="curve" smooth="yes"/>
    </contour>
  </outline>
</glyph>
<glyph name="ae" format="1">
  <advance width="1625.30000073"/>
  <unicode hex="00E6"/>
  <outline>
    <contour>
      <point x="409.200000167" y="-17.1999999285" type="curve" smooth="yes"/>
      <point x="574.800000072" y="-17.1999999285"/>
      <point x="742.000000477" y="51.0000002384"/>
      <point x="824.400000453" y="133.10000056" type="curve"/>
      <point x="896.700000465" y="36.8000001907"/>
      <point x="997.700000823" y="-18.0"/>
      <point x="1158.1000008" y="-18.0" type="curve" smooth="yes"/>
      <point x="1315.40000057" y="-18.0"/>
      <point x="1414.6000005" y="17.0"/>
      <point x="1499.50000066" y="79.4999998212" type="curve"/>
      <point x="1438.90000111" y="215.79999876" type="line"/>
      <point x="1365.60000038" y="172.099998534"/>
      <point x="1281.30000061" y="138.599998832"/>
      <point x="1173.80000079" y="138.599998832" type="curve"/>
      <point x="1005.5000003" y="139.999998808"/>
      <point x="912.299999416" y="226.999999285"/>
      <point x="902.599999428" y="442.500000656" type="curve"/>
      <point x="1401.5999999" y="442.500000656"/>
      <point x="1525.70000035" y="567.199999332"/>
      <point x="1525.70000035" y="727.800000191" type="curve" smooth="yes"/>
      <point x="1525.70000035" y="876.11101782"/>
      <point x="1431.90989548" y="1035.49999946"/>
      <point x="1166.40000057" y="1035.49999946" type="curve" smooth="yes"/>
      <point x="1024.00000036" y="1035.49999946"/>
      <point x="886.599999785" y="962.299999177"/>
      <point x="830.500000179" y="853.299998105" type="curve"/>
      <point x="798.400000572" y="978.499999225"/>
      <point x="688.200000048" y="1035.79999948"/>
      <point x="534.899999559" y="1035.79999948" type="curve" smooth="yes"/>
      <point x="391.764108535" y="1035.79999948"/>
      <point x="230.134880655" y="993.199765064"/>
      <point x="141.900000513" y="943.299999654" type="curve"/>
      <point x="200.600000143" y="804.200000644" type="line"/>
      <point x="270.000000477" y="835.700000942"/>
      <point x="409.100000322" y="878.400000691"/>
      <point x="517.100000203" y="878.400000691" type="curve"/>
      <point x="655.900000751" y="874.200000763"/>
      <point x="703.100001037" y="809.80000031"/>
      <point x="703.100001037" y="683.699999869" type="curve" smooth="yes"/>
      <point x="703.100001037" y="582.69999963" type="line"/>
      <point x="582.50000006" y="582.69999963" type="line" smooth="yes"/>
      <point x="281.499999583" y="582.69999963"/>
      <point x="102.600000262" y="510.099999368"/>
      <point x="102.600000262" y="290.999999762" type="curve" smooth="yes"/>
      <point x="102.600000262" y="103.39999938"/>
      <point x="227.900000513" y="-17.1999999285"/>
    </contour>
    <contour>
      <point x="437.49999994" y="130.799999118" type="curve" smooth="yes"/>
      <point x="347.89999944" y="130.799999118"/>
      <point x="295.499998868" y="179.499999344"/>
      <point x="295.499998868" y="283.100000083" type="curve" smooth="yes"/>
      <point x="295.499998868" y="385.500000656"/>
      <point x="361.999999046" y="443.400000691"/>
      <point x="576.200000525" y="443.400000691" type="curve" smooth="yes"/>
      <point x="706.600000978" y="443.400000691" type="line"/>
      <point x="709.40000093" y="376.200000525"/>
      <point x="728.700000823" y="293.200000405"/>
      <point x="745.400001049" y="252.699999869" type="curve"/>
      <point x="666.300000966" y="182.599999428"/>
      <point x="536.200000405" y="130.799999118"/>
    </contour>
    <contour>
      <point x="904.499999464" y="581.199999571" type="curve"/>
      <point x="926.199999452" y="806.199999332"/>
      <point x="1051.69999927" y="892.100000441"/>
      <point x="1182.60000038" y="892.100000441" type="curve" smooth="yes"/>
      <point x="1298.50000125" y="892.100000441"/>
      <point x="1361.60000157" y="830.899999917"/>
      <point x="1361.60000157" y="736.299999893" type="curve" smooth="yes"/>
      <point x="1361.60000157" y="631.199999213"/>
      <point x="1245.6000005" y="581.199999571"/>
    </contour>
  </outline>
</glyph>
<glyph name="eth" format="1">
  <advance width="1121.80000186"/>
  <unicode hex="00F0"/>
  <outline>
    <contour>
      <point x="570.800000548" y="-20.0000001192" type="curve" smooth="yes"/>
      <point x="872.600000858" y="-20.0000001192"/>
      <point x="1046.40000021" y="163.400000691"/>
      <point x="1046.40000021" y="436.000000477" type="curve"/>
      <point x="1045.70000023" y="566.000000358"/>
      <point x="1012.60000038" y="680.400000215"/>
      <point x="952.700000226" y="786.800000668" type="curve"/>
      <point x="883.400000334" y="904.900000632"/>
      <point x="784.200000167" y="1020.90000099"/>
      <point x="661.999999285" y="1155.3000018" type="curve"/>
      <point x="863.700000107" y="1234.30000204" type="line"/>
      <point x="811.800000548" y="1377.90000099" type="line"/>
      <point x="559.50000006" y="1277.50000089" type="line"/>
      <point x="440.799999475" y="1410.90000135" type="line"/>
      <point x="197.100001276" y="1410.90000135" type="line"/>
      <point x="397.400001884" y="1204.70000142" type="line"/>
      <point x="217.200001001" y="1133.50000113" type="line"/>
      <point x="266.800000548" y="988.800002098" type="line"/>
      <point x="502.700001061" y="1084.10000235" type="line"/>
      <point x="594.100003421" y="993.600000143"/>
      <point x="682.300003469" y="883.399999738"/>
      <point x="722.400003552" y="820.09999913" type="curve"/>
      <point x="678.800003171" y="843.899999678"/>
      <point x="614.700002491" y="873.400000453"/>
      <point x="534.500000775" y="873.400000453" type="curve" smooth="yes"/>
      <point x="268.600000858" y="873.400000453"/>
      <point x="92.7000009418" y="699.100000322"/>
      <point x="92.7000009418" y="437.500000179" type="curve" smooth="yes"/>
      <point x="92.7000009418" y="179.900000513"/>
      <point x="274.500000298" y="-20.0000001192"/>
    </contour>
    <contour>
      <point x="577.200000525" y="141.799998522" type="curve" smooth="yes"/>
      <point x="389.999999642" y="141.799998522"/>
      <point x="289.999999523" y="275.999999642"/>
      <point x="289.999999523" y="437.600000143" type="curve" smooth="yes"/>
      <point x="289.999999523" y="601.300000489"/>
      <point x="391.49999994" y="722.800001383"/>
      <point x="571.200000525" y="722.800001383" type="curve" smooth="yes"/>
      <point x="755.700001299" y="722.800001383"/>
      <point x="858.500001609" y="588.600000262"/>
      <point x="858.500001609" y="430.0" type="curve" smooth="yes"/>
      <point x="858.500001609" y="262.699999392"/>
      <point x="757.500001252" y="141.799998522"/>
    </contour>
  </outline>
</glyph>
<glyph name="divide" format="1">
  <advance width="1196.19999659"/>
  <unicode hex="00F7"/>
  <outline>
    <contour>
      <point x="488.099998772" y="18.9000000358" type="line"/>
      <point x="702.199996948" y="18.9000000358" type="line"/>
      <point x="702.199996948" y="253.199998975" type="line"/>
      <point x="488.099998772" y="253.199998975" type="line"/>
    </contour>
    <contour>
      <point x="126.099998891" y="459.900000632" type="line"/>
      <point x="1073.59999728" y="459.900000632" type="line"/>
      <point x="1073.59999728" y="620.999999642" type="line"/>
      <point x="126.099998891" y="620.999999642" type="line"/>
    </contour>
    <contour>
      <point x="488.099998772" y="825.500001132" type="line"/>
      <point x="722.199997425" y="825.500001132" type="line"/>
      <point x="722.199997425" y="1053.90000027" type="line"/>
      <point x="488.099998772" y="1053.90000027" type="line"/>
    </contour>
  </outline>
</glyph>
<glyph name="oslash" format="1">
  <advance width="1150.0"/>
  <unicode hex="00F8"/>
  <outline>
    <contour>
      <point x="275.699999988" y="-141.0" type="line"/>
      <point x="956.699999988" y="1108.0" type="line"/>
      <point x="885.300000131" y="1147.79999983" type="line"/>
      <point x="210.300000131" y="-100.200000167" type="line"/>
    </contour>
    <component base="o"/>
  </outline>
</glyph>
<glyph name="Hbar" format="1">
  <advance width="1388.40000308"/>
  <unicode hex="0126"/>
  <outline>
    <contour>
      <point x="155.3000018" y="0.0" type="line"/>
      <point x="335.199998736" y="308.100012243" type="line"/>
      <point x="308.799997687" y="724.60000515" type="line"/>
      <point x="725.299990594" y="744.700005949" type="line"/>
      <point x="751.699991643" y="328.200013041" type="line"/>
      <point x="932.299988568" y="413.400016427" type="line"/>
      <point x="958.699989617" y="1161.0000037" type="line"/>
      <point x="1011.19998872" y="1075.80000031" type="line"/>
      <point x="1267.69999892" y="1171.69999868" type="line"/>
      <point x="1215.19999981" y="1256.90000206" type="line"/>
      <point x="1241.60000086" y="1347.90000051" type="line"/>
      <point x="1061.00000393" y="1262.69999713" type="line"/>
      <point x="1087.10000497" y="1171.69999868" type="line"/>
      <point x="670.600012064" y="1151.59999788" type="line"/>
      <point x="644.500011027" y="1242.59999633" type="line"/>
      <point x="464.600014091" y="934.499984086" type="line"/>
      <point x="438.200013041" y="843.499985635" type="line"/>
      <point x="385.700013936" y="1040.89999348" type="line"/>
      <point x="129.200003743" y="944.999995112" type="line"/>
      <point x="181.700002849" y="747.599987268" type="line"/>
    </contour>
    <contour>
      <point x="361.599999785" y="779.899999678" type="line"/>
      <point x="618.100009978" y="975.89999634" type="line"/>
      <point x="1034.60000288" y="1055.69999951" type="line"/>
      <point x="778.099992692" y="859.700002849" type="line"/>
    </contour>
  </outline>
</glyph>
<glyph name="hbar" format="1">
  <advance width="1088.20000184"/>
  <unicode hex="0127"/>
  <outline>
    <contour>
      <point x="144.800002217" y="0.0" type="line"/>
      <point x="341.900000274" y="0.0" type="line"/>
      <point x="341.900000274" y="683.599999905" type="line"/>
      <point x="374.899999917" y="773.400000095"/>
      <point x="486.200000525" y="868.000000954"/>
      <point x="621.700001419" y="868.000000954" type="curve" smooth="yes"/>
      <point x="768.500002444" y="868.000000954"/>
      <point x="797.000002503" y="779.500000298"/>
      <point x="797.000002503" y="583.09999913" type="curve" smooth="yes"/>
      <point x="797.000002503" y="0.0" type="line"/>
      <point x="994.10000056" y="0.0" type="line"/>
      <point x="994.10000056" y="609.599999785" type="line" smooth="yes"/>
      <point x="994.10000056" y="894.099998891"/>
      <point x="874.000001669" y="1028.59999979"/>
      <point x="674.000001311" y="1028.59999979" type="curve" smooth="yes"/>
      <point x="535.300000727" y="1028.59999979"/>
      <point x="423.500000417" y="979.499999464"/>
      <point x="341.900000274" y="890.999998927" type="curve"/>
      <point x="341.900000274" y="1132.00000095" type="line"/>
      <point x="597.100000083" y="1132.00000095" type="line"/>
      <point x="597.100000083" y="1255.00000024" type="line"/>
      <point x="341.900000274" y="1255.00000024" type="line"/>
      <point x="341.900000274" y="1380.39999974" type="line"/>
      <point x="144.800002217" y="1362.39999974" type="line"/>
      <point x="144.800002217" y="1255.00000024" type="line"/>
      <point x="57.5000023246" y="1255.00000024" type="line"/>
      <point x="57.5000023246" y="1132.00000095" type="line"/>
      <point x="144.800002217" y="1132.00000095" type="line"/>
    </contour>
  </outline>
</glyph>
<glyph name="dotlessi" format="1">
  <advance width="473.599998116"/>
  <unicode hex="0131"/>
  <outline>
    <contour>
      <point x="139.700000107" y="0.0" type="line"/>
      <point x="344.099998057" y="0.0" type="line"/>
      <point x="344.099998057" y="1007.59999967" type="line"/>
      <point x="139.700000107" y="1007.59999967" type="line"/>
    </contour>
  </outline>
</glyph>
<glyph name="Eng" format="1">
  <advance width="1271.81099097"/>
  <unicode hex="014A"/>
  <outline>
    <contour>
      <point x="755.207327315" y="-301.176149486" type="curve" smooth="yes"/>
      <point x="1090.92231787" y="-301.176149486"/>
      <point x="1184.77188747" y="-138.440373714"/>
      <point x="1184.77188747" y="146.823850514" type="curve" smooth="yes"/>
      <point x="1184.77188747" y="897.261757296" type="line" smooth="yes"/>
      <point x="1184.77188747" y="1199.62444888"/>
      <point x="1049.33151375" y="1373.51558891"/>
      <point x="783.593271048" y="1373.51558891" type="curve" smooth="yes"/>
      <point x="632.670953181" y="1373.51558891"/>
      <point x="464.769420533" y="1322.81099097"/>
      <point x="331.618990132" y="1180.66056057" type="curve"/>
      <point x="312.805532228" y="1352.19693471" type="line"/>
      <point x="118.305794667" y="1352.19693471" type="line"/>
      <point x="119.580411505" y="0.0" type="line"/>
      <point x="335.883214361" y="0.0" type="line"/>
      <point x="335.883214361" y="977.658093638" type="line"/>
      <point x="419.025719085" y="1110.47155154"/>
      <point x="572.981681713" y="1197.69966408"/>
      <point x="730.285009448" y="1197.69966408" type="curve" smooth="yes"/>
      <point x="905.326579887" y="1197.69966408"/>
      <point x="968.78773882" y="1118.10639303"/>
      <point x="968.78773882" y="889.810990972" type="curve" smooth="yes"/>
      <point x="968.78773882" y="147.922317867" type="line" smooth="yes"/>
      <point x="968.78773882" y="-61.4146546294"/>
      <point x="944.974280915" y="-121.381009868"/>
      <point x="734.033644762" y="-121.381009868" type="curve" smooth="yes"/>
      <point x="721.385943733" y="-121.381009868"/>
      <point x="684.329046819" y="-120.381009868"/>
      <point x="597.486878018" y="-115.150430401" type="curve"/>
      <point x="617.805532228" y="-293.033644762" type="line"/>
      <point x="695.505196305" y="-300.857495276"/>
      <point x="738.6917384" y="-301.176149486"/>
    </contour>
  </outline>
</glyph>
<glyph name="eng" format="1">
  <advance width="1069.80000114"/>
  <unicode hex="014B"/>
  <outline>
    <contour>
      <point x="586.300000131" y="-303.499998868" type="line"/>
      <point x="649.600000143" y="-303.499998868" type="line" smooth="yes"/>
      <point x="941.999999166" y="-303.499998868"/>
      <point x="992.399998784" y="-159.499998987"/>
      <point x="993.099998772" y="122.300000846" type="curve"/>
      <point x="993.099998772" y="626.199999452" type="line" smooth="yes"/>
      <point x="993.099998772" y="885.599999785"/>
      <point x="886.699999034" y="1030.19999957"/>
      <point x="654.399999142" y="1030.19999957" type="curve" smooth="yes"/>
      <point x="512.499999106" y="1030.19999957"/>
      <point x="410.699999034" y="970.899999678"/>
      <point x="334.899999201" y="878.59999907" type="curve"/>
      <point x="313.599999309" y="1006.99999964" type="line"/>
      <point x="136.800000548" y="1006.99999964" type="line"/>
      <point x="136.800000548" y="0.0" type="line"/>
      <point x="350.199998856" y="0.0" type="line"/>
      <point x="350.199998856" y="520.900000989" type="line" smooth="yes"/>
      <point x="350.199998856" y="589.500000298"/>
      <point x="353.199998856" y="649.399999738"/>
      <point x="362.299998701" y="699.499999464" type="curve"/>
      <point x="395.299998581" y="795.000000238"/>
      <point x="473.99999845" y="866.500000894"/>
      <point x="605.599999785" y="866.500000894" type="curve" smooth="yes"/>
      <point x="746.000000358" y="866.500000894"/>
      <point x="779.000000477" y="774.500000536"/>
      <point x="779.700000465" y="617.400000215" type="curve"/>
      <point x="779.700000465" y="74.4000008106" type="line" smooth="yes"/>
      <point x="779.700000465" y="-104.499999821"/>
      <point x="764.100000441" y="-134.399999738"/>
      <point x="617.0" y="-134.399999738" type="curve" smooth="yes"/>
      <point x="568.100000441" y="-134.399999738" type="line"/>
    </contour>
  </outline>
</glyph>
<glyph name="OE" format="1">
  <advance width="1892.59999883"/>
  <unicode hex="0152"/>
  <outline>
    <contour>
      <point x="749.500000894" y="-19.1000000834" type="curve" smooth="yes"/>
      <point x="690.799993992" y="-19.1000000834"/>
      <point x="712.499990404" y="94.6000030041"/>
      <point x="765.699989498" y="262.600007772" type="curve"/>
      <point x="769.899989665" y="381.700012505"/>
      <point x="843.699992597" y="423.700016677"/>
      <point x="951.699996889" y="423.700016677" type="curve"/>
      <point x="995.199998617" y="423.700016677"/>
      <point x="1632.29998988" y="409.000016093"/>
      <point x="1648.79999053" y="390.100015342" type="curve"/>
      <point x="1661.39999032" y="557.8000139" type="line"/>
      <point x="1377.20000398" y="557.8000139" type="line"/>
      <point x="1373.30000383" y="800.300008118" type="line"/>
      <point x="1641.1999923" y="800.300008118" type="line"/>
      <point x="1641.1999923" y="783.599999428" type="line"/>
      <point x="1361.90000337" y="783.599999428" type="line"/>
      <point x="1361.90000337" y="988.699994266" type="line"/>
      <point x="1659.39999199" y="988.699994266" type="line"/>
      <point x="1671.99999177" y="966.29998523" type="line"/>
      <point x="1210.00000715" y="966.29998523" type="line"/>
      <point x="1206.70000702" y="893.699984729" type="line"/>
      <point x="1147.20000803" y="931.499984086"/>
      <point x="918.700002968" y="953.199983716"/>
      <point x="833.300004423" y="953.199983716" type="curve" smooth="yes"/>
      <point x="572.200008869" y="953.199983716"/>
      <point x="375.500012219" y="775.099988163"/>
      <point x="373.400012255" y="497.199992895" type="curve"/>
      <point x="370.100012124" y="204.399997234"/>
      <point x="507.200006723" y="-19.1000000834"/>
    </contour>
    <contour>
      <point x="749.300000966" y="152.199998617" type="curve" smooth="yes"/>
      <point x="587.800005436" y="152.899998605"/>
      <point x="541.200008869" y="331.599996686"/>
      <point x="550.500009239" y="513.899993718" type="curve"/>
      <point x="551.900009215" y="693.099990666"/>
      <point x="650.600007534" y="1175.30000061"/>
      <point x="833.300004423" y="1175.30000061" type="curve" smooth="yes"/>
      <point x="909.80000186" y="1191.20000124"/>
      <point x="949.199999332" y="1170.10000235"/>
      <point x="959.199997187" y="1126.0000031" type="curve"/>
      <point x="862.89999336" y="1126.0000031"/>
      <point x="802.899990976" y="526.600009441"/>
      <point x="799.599990845" y="419.200005174" type="curve"/>
      <point x="756.899991572" y="271.600001454"/>
      <point x="720.499994338" y="153.999998689"/>
    </contour>
    <contour>
      <point x="946.299999416" y="404.700016081" type="move"/>
    </contour>
  </outline>
</glyph>
<glyph name="uni01C4" format="1">
  <advance width="2659.32112114"/>
  <unicode hex="01C4"/>
  <outline>
    <contour>
      <point x="1582.99207432" y="0.0" type="line"/>
      <point x="2506.9712891" y="0.0" type="line"/>
      <point x="2509.83917699" y="174.89360697" type="line"/>
      <point x="1867.27409196" y="174.89360697" type="line"/>
      <point x="2501.1578312" y="1191.10639303" type="line"/>
      <point x="2501.1578312" y="1340.14250472" type="line"/>
      <point x="1597.32112114" y="1340.14250472" type="line"/>
      <point x="1597.63977535" y="1169.01831829" type="line"/>
      <point x="2231.89906571" y="1169.01831829" type="line"/>
      <point x="1582.99207432" y="146.507663237" type="line"/>
    </contour>
    <contour>
      <point x="1983.75902792" y="1512.14003779" type="line"/>
      <point x="2175.98960739" y="1512.14003779" type="line"/>
      <point x="2380.33398068" y="1857.74370145" type="line"/>
      <point x="2221.85749528" y="1857.74370145" type="line"/>
      <point x="2074.08807474" y="1626.83671006" type="line"/>
      <point x="1934.52844846" y="1857.74370145" type="line"/>
      <point x="1779.41465463" y="1857.74370145" type="line"/>
    </contour>
    <contour>
      <point x="407.149905522" y="173.300335923" type="line"/>
      <point x="407.149905522" y="1170.29293512" type="line"/>
      <point x="568.937644342" y="1170.29293512" type="line" smooth="yes"/>
      <point x="904.979214781" y="1170.29293512"/>
      <point x="1084.84463573" y="1026.73330884"/>
      <point x="1084.84463573" y="670.362691581" type="curve" smooth="yes"/>
      <point x="1084.84463573" y="344.815924837"/>
      <point x="919.033644762" y="173.300335923"/>
      <point x="594.937644342" y="173.300335923" type="curve" smooth="yes"/>
    </contour>
    <contour>
      <point x="182.562093219" y="0.0" type="line"/>
      <point x="591.771887466" y="0.0" type="line" smooth="yes"/>
      <point x="1032.541308" y="0.0"/>
      <point x="1309.38841067" y="233.220186857"/>
      <point x="1309.38841067" y="675.044037371" type="curve" smooth="yes"/>
      <point x="1309.38841067" y="1136.37308419"/>
      <point x="1011.39880328" y="1340.14250472"/>
      <point x="566.859962209" y="1340.14250472" type="curve" smooth="yes"/>
      <point x="182.562093219" y="1340.14250472" type="line"/>
    </contour>
  </outline>
</glyph>
<glyph name="uni0237" format="1">
  <advance width="436.463625866"/>
  <unicode hex="0237"/>
  <outline>
    <contour>
      <point x="218.572485828" y="314.193050598" type="move" name="top"/>
    </contour>
    <contour>
      <point x="-46.9663552383" y="-362.150430401" type="line"/>
      <point x="-0.0544299811043" y="-362.150430401" type="line" smooth="yes"/>
      <point x="272.717457485" y="-362.150430401"/>
      <point x="333.751102246" y="-251.19200084"/>
      <point x="333.751102246" y="10.7327839597" type="curve" smooth="yes"/>
      <point x="333.751102246" y="993.417121562" type="line"/>
      <point x="133.979214781" y="993.417121562" type="line"/>
      <point x="133.979214781" y="1.41166281755" type="line" smooth="yes"/>
      <point x="133.979214781" y="-150.137570859"/>
      <point x="138.593271048" y="-195.829309259"/>
      <point x="-15.4275141717" y="-195.829309259" type="curve" smooth="yes"/>
      <point x="-60.2513646861" y="-195.829309259" type="line"/>
    </contour>
  </outline>
</glyph>
<glyph name="uni02BC" format="1">
  <advance width="399.100002587"/>
  <unicode hex="02BC"/>
  <outline>
    <contour>
      <point x="106.900000632" y="939.700002491" type="line"/>
      <point x="231.199999809" y="939.700002491" type="line"/>
      <point x="319.700001299" y="1394.20000148" type="line"/>
      <point x="148.600002527" y="1394.20000148" type="line"/>
    </contour>
  </outline>
</glyph>
<glyph name="circumflex" format="1">
  <advance width="705.200001001"/>
  <unicode hex="02C6"/>
  <outline>
    <contour>
      <point x="66.1000013947" y="1091.20000184" type="line"/>
      <point x="214.700000107" y="1091.20000184" type="line"/>
      <point x="359.400000215" y="1312.20000291" type="line"/>
      <point x="511.399999976" y="1091.20000184" type="line"/>
      <point x="663.199998617" y="1091.20000184" type="line"/>
      <point x="460.49999994" y="1451.70000154" type="line"/>
      <point x="273.200000286" y="1451.70000154" type="line"/>
    </contour>
  </outline>
</glyph>
<glyph name="caron" format="1">
  <advance width="704.500001013"/>
  <unicode hex="02C7"/>
  <outline>
    <contour>
      <point x="271.600000024" y="1112.90000147" type="line"/>
      <point x="454.69999975" y="1112.90000147" type="line"/>
      <point x="670.899998486" y="1451.70000154" type="line"/>
      <point x="505.50000006" y="1451.70000154" type="line"/>
      <point x="355.200000048" y="1246.80000019" type="line"/>
      <point x="222.799999952" y="1451.70000154" type="line"/>
      <point x="60.5000014901" y="1451.70000154" type="line"/>
    </contour>
  </outline>
</glyph>
<glyph name="breve" format="1">
  <advance width="657.689271468"/>
  <unicode hex="02D8"/>
  <outline>
    <contour>
      <point x="332.295402058" y="314.193050598" type="move" name="_top"/>
    </contour>
    <contour>
      <point x="330.976747848" y="1144.38100987" type="curve" smooth="yes"/>
      <point x="461.670953181" y="1144.38100987"/>
      <point x="578.670953181" y="1215.00792568"/>
      <point x="578.670953181" y="1376.22811253" type="curve"/>
      <point x="445.041570439" y="1376.22811253" type="line"/>
      <point x="445.041570439" y="1301.52598152"/>
      <point x="400.515588915" y="1268.60366366"/>
      <point x="330.976747848" y="1268.60366366" type="curve" smooth="yes"/>
      <point x="261.437906781" y="1268.60366366"/>
      <point x="219.505196305" y="1301.52598152"/>
      <point x="219.505196305" y="1376.22811253" type="curve"/>
      <point x="85.9198509343" y="1376.22811253" type="line"/>
      <point x="85.9198509343" y="1215.37061726"/>
      <point x="201.282542515" y="1144.38100987"/>
    </contour>
  </outline>
</glyph>
